%TF.GenerationSoftware,KiCad,Pcbnew,6.0.0*%
%TF.CreationDate,2022-01-29T03:06:04+03:00*%
%TF.ProjectId,pump,70756d70-2e6b-4696-9361-645f70636258,rev?*%
%TF.SameCoordinates,Original*%
%TF.FileFunction,Legend,Bot*%
%TF.FilePolarity,Positive*%
%FSLAX46Y46*%
G04 Gerber Fmt 4.6, Leading zero omitted, Abs format (unit mm)*
G04 Created by KiCad (PCBNEW 6.0.0) date 2022-01-29 03:06:04*
%MOMM*%
%LPD*%
G01*
G04 APERTURE LIST*
%ADD10C,0.150000*%
%ADD11C,0.300000*%
G04 APERTURE END LIST*
D10*
X108625285Y-75906333D02*
X109101476Y-75906333D01*
X108530047Y-75620619D02*
X108863380Y-76620619D01*
X109196714Y-75620619D01*
X109530047Y-75620619D02*
X109530047Y-76287285D01*
X109530047Y-76096809D02*
X109577666Y-76192047D01*
X109625285Y-76239666D01*
X109720523Y-76287285D01*
X109815761Y-76287285D01*
X110577666Y-75620619D02*
X110577666Y-76620619D01*
X110577666Y-75668238D02*
X110482428Y-75620619D01*
X110291952Y-75620619D01*
X110196714Y-75668238D01*
X110149095Y-75715857D01*
X110101476Y-75811095D01*
X110101476Y-76096809D01*
X110149095Y-76192047D01*
X110196714Y-76239666D01*
X110291952Y-76287285D01*
X110482428Y-76287285D01*
X110577666Y-76239666D01*
X111482428Y-76287285D02*
X111482428Y-75620619D01*
X111053857Y-76287285D02*
X111053857Y-75763476D01*
X111101476Y-75668238D01*
X111196714Y-75620619D01*
X111339571Y-75620619D01*
X111434809Y-75668238D01*
X111482428Y-75715857D01*
X111958619Y-75620619D02*
X111958619Y-76287285D01*
X111958619Y-76620619D02*
X111911000Y-76573000D01*
X111958619Y-76525380D01*
X112006238Y-76573000D01*
X111958619Y-76620619D01*
X111958619Y-76525380D01*
X112434809Y-76287285D02*
X112434809Y-75620619D01*
X112434809Y-76192047D02*
X112482428Y-76239666D01*
X112577666Y-76287285D01*
X112720523Y-76287285D01*
X112815761Y-76239666D01*
X112863380Y-76144428D01*
X112863380Y-75620619D01*
X113482428Y-75620619D02*
X113387190Y-75668238D01*
X113339571Y-75715857D01*
X113291952Y-75811095D01*
X113291952Y-76096809D01*
X113339571Y-76192047D01*
X113387190Y-76239666D01*
X113482428Y-76287285D01*
X113625285Y-76287285D01*
X113720523Y-76239666D01*
X113768142Y-76192047D01*
X113815761Y-76096809D01*
X113815761Y-75811095D01*
X113768142Y-75715857D01*
X113720523Y-75668238D01*
X113625285Y-75620619D01*
X113482428Y-75620619D01*
X115006238Y-76287285D02*
X115006238Y-75620619D01*
X115006238Y-76192047D02*
X115053857Y-76239666D01*
X115149095Y-76287285D01*
X115291952Y-76287285D01*
X115387190Y-76239666D01*
X115434809Y-76144428D01*
X115434809Y-75620619D01*
X116339571Y-75620619D02*
X116339571Y-76144428D01*
X116291952Y-76239666D01*
X116196714Y-76287285D01*
X116006238Y-76287285D01*
X115911000Y-76239666D01*
X116339571Y-75668238D02*
X116244333Y-75620619D01*
X116006238Y-75620619D01*
X115911000Y-75668238D01*
X115863380Y-75763476D01*
X115863380Y-75858714D01*
X115911000Y-75953952D01*
X116006238Y-76001571D01*
X116244333Y-76001571D01*
X116339571Y-76049190D01*
X116815761Y-76287285D02*
X116815761Y-75620619D01*
X116815761Y-76192047D02*
X116863380Y-76239666D01*
X116958619Y-76287285D01*
X117101476Y-76287285D01*
X117196714Y-76239666D01*
X117244333Y-76144428D01*
X117244333Y-75620619D01*
X117863380Y-75620619D02*
X117768142Y-75668238D01*
X117720523Y-75715857D01*
X117672904Y-75811095D01*
X117672904Y-76096809D01*
X117720523Y-76192047D01*
X117768142Y-76239666D01*
X117863380Y-76287285D01*
X118006238Y-76287285D01*
X118101476Y-76239666D01*
X118149095Y-76192047D01*
X118196714Y-76096809D01*
X118196714Y-75811095D01*
X118149095Y-75715857D01*
X118101476Y-75668238D01*
X118006238Y-75620619D01*
X117863380Y-75620619D01*
X108457142Y-110307380D02*
X108457142Y-109640714D01*
X108457142Y-109735952D02*
X108409523Y-109688333D01*
X108314285Y-109640714D01*
X108171428Y-109640714D01*
X108076190Y-109688333D01*
X108028571Y-109783571D01*
X108028571Y-110307380D01*
X108028571Y-109783571D02*
X107980952Y-109688333D01*
X107885714Y-109640714D01*
X107742857Y-109640714D01*
X107647619Y-109688333D01*
X107600000Y-109783571D01*
X107600000Y-110307380D01*
X107123809Y-110307380D02*
X107123809Y-109640714D01*
X107123809Y-109307380D02*
X107171428Y-109355000D01*
X107123809Y-109402619D01*
X107076190Y-109355000D01*
X107123809Y-109307380D01*
X107123809Y-109402619D01*
X106647619Y-110307380D02*
X106647619Y-109307380D01*
X106552380Y-109926428D02*
X106266666Y-110307380D01*
X106266666Y-109640714D02*
X106647619Y-110021666D01*
X105885714Y-110259761D02*
X105790476Y-110307380D01*
X105600000Y-110307380D01*
X105504761Y-110259761D01*
X105457142Y-110164523D01*
X105457142Y-110116904D01*
X105504761Y-110021666D01*
X105600000Y-109974047D01*
X105742857Y-109974047D01*
X105838095Y-109926428D01*
X105885714Y-109831190D01*
X105885714Y-109783571D01*
X105838095Y-109688333D01*
X105742857Y-109640714D01*
X105600000Y-109640714D01*
X105504761Y-109688333D01*
X104885714Y-110307380D02*
X104980952Y-110259761D01*
X105028571Y-110212142D01*
X105076190Y-110116904D01*
X105076190Y-109831190D01*
X105028571Y-109735952D01*
X104980952Y-109688333D01*
X104885714Y-109640714D01*
X104742857Y-109640714D01*
X104647619Y-109688333D01*
X104600000Y-109735952D01*
X104552380Y-109831190D01*
X104552380Y-110116904D01*
X104600000Y-110212142D01*
X104647619Y-110259761D01*
X104742857Y-110307380D01*
X104885714Y-110307380D01*
X103980952Y-110307380D02*
X104076190Y-110259761D01*
X104123809Y-110164523D01*
X104123809Y-109307380D01*
X103457142Y-110307380D02*
X103552380Y-110259761D01*
X103600000Y-110212142D01*
X103647619Y-110116904D01*
X103647619Y-109831190D01*
X103600000Y-109735952D01*
X103552380Y-109688333D01*
X103457142Y-109640714D01*
X103314285Y-109640714D01*
X103219047Y-109688333D01*
X103171428Y-109735952D01*
X103123809Y-109831190D01*
X103123809Y-110116904D01*
X103171428Y-110212142D01*
X103219047Y-110259761D01*
X103314285Y-110307380D01*
X103457142Y-110307380D01*
X102076190Y-109831190D02*
X102123809Y-109783571D01*
X102219047Y-109735952D01*
X102314285Y-109735952D01*
X102409523Y-109783571D01*
X102457142Y-109831190D01*
X102504761Y-109926428D01*
X102504761Y-110021666D01*
X102457142Y-110116904D01*
X102409523Y-110164523D01*
X102314285Y-110212142D01*
X102219047Y-110212142D01*
X102123809Y-110164523D01*
X102076190Y-110116904D01*
X102076190Y-109735952D02*
X102076190Y-110116904D01*
X102028571Y-110164523D01*
X101980952Y-110164523D01*
X101885714Y-110116904D01*
X101838095Y-110021666D01*
X101838095Y-109783571D01*
X101933333Y-109640714D01*
X102076190Y-109545476D01*
X102266666Y-109497857D01*
X102457142Y-109545476D01*
X102600000Y-109640714D01*
X102695238Y-109783571D01*
X102742857Y-109974047D01*
X102695238Y-110164523D01*
X102600000Y-110307380D01*
X102457142Y-110402619D01*
X102266666Y-110450238D01*
X102076190Y-110402619D01*
X101933333Y-110307380D01*
X101504761Y-109640714D02*
X101266666Y-110307380D01*
X101028571Y-109640714D02*
X101266666Y-110307380D01*
X101361904Y-110545476D01*
X101409523Y-110593095D01*
X101504761Y-110640714D01*
X100219047Y-110307380D02*
X100219047Y-109783571D01*
X100266666Y-109688333D01*
X100361904Y-109640714D01*
X100552380Y-109640714D01*
X100647619Y-109688333D01*
X100219047Y-110259761D02*
X100314285Y-110307380D01*
X100552380Y-110307380D01*
X100647619Y-110259761D01*
X100695238Y-110164523D01*
X100695238Y-110069285D01*
X100647619Y-109974047D01*
X100552380Y-109926428D01*
X100314285Y-109926428D01*
X100219047Y-109878809D01*
X99742857Y-109640714D02*
X99742857Y-110307380D01*
X99742857Y-109735952D02*
X99695238Y-109688333D01*
X99600000Y-109640714D01*
X99457142Y-109640714D01*
X99361904Y-109688333D01*
X99314285Y-109783571D01*
X99314285Y-110307380D01*
X98409523Y-110307380D02*
X98409523Y-109307380D01*
X98409523Y-110259761D02*
X98504761Y-110307380D01*
X98695238Y-110307380D01*
X98790476Y-110259761D01*
X98838095Y-110212142D01*
X98885714Y-110116904D01*
X98885714Y-109831190D01*
X98838095Y-109735952D01*
X98790476Y-109688333D01*
X98695238Y-109640714D01*
X98504761Y-109640714D01*
X98409523Y-109688333D01*
X97552380Y-110259761D02*
X97647619Y-110307380D01*
X97838095Y-110307380D01*
X97933333Y-110259761D01*
X97980952Y-110164523D01*
X97980952Y-109783571D01*
X97933333Y-109688333D01*
X97838095Y-109640714D01*
X97647619Y-109640714D01*
X97552380Y-109688333D01*
X97504761Y-109783571D01*
X97504761Y-109878809D01*
X97980952Y-109974047D01*
X97171428Y-110307380D02*
X96647619Y-109640714D01*
X97171428Y-109640714D02*
X96647619Y-110307380D01*
X96266666Y-110212142D02*
X96219047Y-110259761D01*
X96266666Y-110307380D01*
X96314285Y-110259761D01*
X96266666Y-110212142D01*
X96266666Y-110307380D01*
X95790476Y-110307380D02*
X95790476Y-109640714D01*
X95790476Y-109831190D02*
X95742857Y-109735952D01*
X95695238Y-109688333D01*
X95600000Y-109640714D01*
X95504761Y-109640714D01*
X94742857Y-109640714D02*
X94742857Y-110307380D01*
X95171428Y-109640714D02*
X95171428Y-110164523D01*
X95123809Y-110259761D01*
X95028571Y-110307380D01*
X94885714Y-110307380D01*
X94790476Y-110259761D01*
X94742857Y-110212142D01*
D11*
%TO.C,G\u002A\u002A\u002A*%
X118182571Y-38989000D02*
X118327714Y-38916428D01*
X118545428Y-38916428D01*
X118763142Y-38989000D01*
X118908285Y-39134142D01*
X118980857Y-39279285D01*
X119053428Y-39569571D01*
X119053428Y-39787285D01*
X118980857Y-40077571D01*
X118908285Y-40222714D01*
X118763142Y-40367857D01*
X118545428Y-40440428D01*
X118400285Y-40440428D01*
X118182571Y-40367857D01*
X118110000Y-40295285D01*
X118110000Y-39787285D01*
X118400285Y-39787285D01*
X117239142Y-38916428D02*
X117239142Y-39279285D01*
X117602000Y-39134142D02*
X117239142Y-39279285D01*
X116876285Y-39134142D01*
X117456857Y-39569571D02*
X117239142Y-39279285D01*
X117021428Y-39569571D01*
X116078000Y-38916428D02*
X116078000Y-39279285D01*
X116440857Y-39134142D02*
X116078000Y-39279285D01*
X115715142Y-39134142D01*
X116295714Y-39569571D02*
X116078000Y-39279285D01*
X115860285Y-39569571D01*
X114916857Y-38916428D02*
X114916857Y-39279285D01*
X115279714Y-39134142D02*
X114916857Y-39279285D01*
X114554000Y-39134142D01*
X115134571Y-39569571D02*
X114916857Y-39279285D01*
X114699142Y-39569571D01*
G36*
X120552308Y-46198692D02*
G01*
X120552308Y-45807923D01*
X120943077Y-45807923D01*
X122896923Y-45807923D01*
X122896923Y-43854077D01*
X120943077Y-43854077D01*
X120943077Y-45807923D01*
X120552308Y-45807923D01*
X120552308Y-43463307D01*
X123287693Y-43463307D01*
X123287693Y-46198692D01*
X120552308Y-46198692D01*
G37*
G36*
X120078930Y-44657739D02*
G01*
X120145154Y-44770729D01*
X120161539Y-45026384D01*
X120150477Y-45251935D01*
X120093982Y-45384384D01*
X119966154Y-45417154D01*
X119839848Y-45449264D01*
X119770769Y-45612538D01*
X119802880Y-45738844D01*
X119966154Y-45807923D01*
X120092460Y-45840034D01*
X120161539Y-46003307D01*
X120139415Y-46116083D01*
X120026425Y-46182307D01*
X119770769Y-46198692D01*
X119380000Y-46198692D01*
X119380000Y-45807923D01*
X119391062Y-45582372D01*
X119447557Y-45449923D01*
X119575385Y-45417154D01*
X119688160Y-45395030D01*
X119754385Y-45282040D01*
X119770769Y-45026384D01*
X119781832Y-44800833D01*
X119838326Y-44668385D01*
X119966154Y-44635615D01*
X120078930Y-44657739D01*
G37*
G36*
X118920152Y-45840034D02*
G01*
X118989231Y-46003307D01*
X118957120Y-46129613D01*
X118793846Y-46198692D01*
X118667541Y-46166581D01*
X118598462Y-46003307D01*
X118630573Y-45877002D01*
X118793846Y-45807923D01*
X118920152Y-45840034D01*
G37*
G36*
X122506154Y-37992538D02*
G01*
X122506154Y-37601769D01*
X122495092Y-37376218D01*
X122438597Y-37243769D01*
X122310769Y-37211000D01*
X122184464Y-37243110D01*
X122115385Y-37406384D01*
X122083274Y-37532690D01*
X121920000Y-37601769D01*
X121833461Y-37590993D01*
X121763062Y-37519892D01*
X121731745Y-37342994D01*
X121724616Y-37015615D01*
X121724616Y-36429461D01*
X122115385Y-36429461D01*
X122340936Y-36440523D01*
X122473385Y-36497018D01*
X122506154Y-36624846D01*
X122538265Y-36751152D01*
X122701539Y-36820231D01*
X122827844Y-36788120D01*
X122896923Y-36624846D01*
X122929034Y-36498540D01*
X123092308Y-36429461D01*
X123218614Y-36461572D01*
X123287693Y-36624846D01*
X123255582Y-36751152D01*
X123092308Y-36820231D01*
X122966002Y-36852341D01*
X122896923Y-37015615D01*
X122929034Y-37141921D01*
X123092308Y-37211000D01*
X123218614Y-37243110D01*
X123287693Y-37406384D01*
X123255582Y-37532690D01*
X123092308Y-37601769D01*
X122966002Y-37633880D01*
X122896923Y-37797154D01*
X122929034Y-37923459D01*
X123092308Y-37992538D01*
X123218614Y-38024649D01*
X123287693Y-38187923D01*
X123255582Y-38314229D01*
X123092308Y-38383307D01*
X122966002Y-38415418D01*
X122896923Y-38578692D01*
X122896843Y-38589156D01*
X122880012Y-38674588D01*
X122809277Y-38728724D01*
X122649272Y-38758635D01*
X122364635Y-38771395D01*
X121920000Y-38774077D01*
X121867680Y-38774093D01*
X121440518Y-38777459D01*
X121169841Y-38791606D01*
X121020285Y-38823607D01*
X120956485Y-38880534D01*
X120943077Y-38969461D01*
X120920953Y-39082237D01*
X120807963Y-39148461D01*
X120552308Y-39164846D01*
X120326757Y-39153784D01*
X120194308Y-39097289D01*
X120161539Y-38969461D01*
X120129428Y-38843156D01*
X119966154Y-38774077D01*
X119879615Y-38784853D01*
X119809216Y-38855953D01*
X119777899Y-39032852D01*
X119770769Y-39360231D01*
X119774362Y-39619849D01*
X119798062Y-39831046D01*
X119857028Y-39924997D01*
X119966154Y-39946384D01*
X120092460Y-39914274D01*
X120161539Y-39751000D01*
X120164415Y-39699485D01*
X120203652Y-39621804D01*
X120320307Y-39578482D01*
X120553681Y-39559694D01*
X120943077Y-39555615D01*
X121149136Y-39554896D01*
X121459861Y-39545087D01*
X121633148Y-39515923D01*
X121708299Y-39457580D01*
X121724616Y-39360231D01*
X121756726Y-39233925D01*
X121920000Y-39164846D01*
X122032776Y-39186970D01*
X122099000Y-39299960D01*
X122115385Y-39555615D01*
X122126447Y-39781166D01*
X122182942Y-39913615D01*
X122310769Y-39946384D01*
X122437075Y-39978495D01*
X122506154Y-40141769D01*
X122474043Y-40268075D01*
X122310769Y-40337154D01*
X122184464Y-40369264D01*
X122115385Y-40532538D01*
X122147496Y-40658844D01*
X122310769Y-40727923D01*
X122437075Y-40760034D01*
X122506154Y-40923307D01*
X122474043Y-41049613D01*
X122310769Y-41118692D01*
X122184464Y-41086581D01*
X122115385Y-40923307D01*
X122083274Y-40797002D01*
X121920000Y-40727923D01*
X121807225Y-40750047D01*
X121741000Y-40863037D01*
X121724616Y-41118692D01*
X121735678Y-41344243D01*
X121792173Y-41476692D01*
X121920000Y-41509461D01*
X122046306Y-41541572D01*
X122115385Y-41704846D01*
X122147496Y-41831152D01*
X122310769Y-41900231D01*
X122437075Y-41868120D01*
X122506154Y-41704846D01*
X122538265Y-41578540D01*
X122701539Y-41509461D01*
X122827844Y-41541572D01*
X122896923Y-41704846D01*
X122929034Y-41831152D01*
X123092308Y-41900231D01*
X123205083Y-41922355D01*
X123271308Y-42035344D01*
X123287693Y-42291000D01*
X123278111Y-42486384D01*
X123276631Y-42516551D01*
X123220136Y-42648999D01*
X123092308Y-42681769D01*
X122966002Y-42713880D01*
X122896923Y-42877154D01*
X122864813Y-43003459D01*
X122701539Y-43072538D01*
X122575233Y-43040427D01*
X122506154Y-42877154D01*
X122474043Y-42750848D01*
X122310769Y-42681769D01*
X122184464Y-42713880D01*
X122115385Y-42877154D01*
X122083274Y-43003459D01*
X121920000Y-43072538D01*
X121793695Y-43040427D01*
X121724616Y-42877154D01*
X121702492Y-42764378D01*
X121589502Y-42698154D01*
X121333846Y-42681769D01*
X121108295Y-42692831D01*
X120975847Y-42749326D01*
X120943077Y-42877154D01*
X120920953Y-42989929D01*
X120807963Y-43056153D01*
X120552308Y-43072538D01*
X120161539Y-43072538D01*
X120161539Y-44244846D01*
X119770769Y-44244846D01*
X119545218Y-44233784D01*
X119412770Y-44177289D01*
X119380000Y-44049461D01*
X119347890Y-43923156D01*
X119184616Y-43854077D01*
X119058310Y-43821966D01*
X118989231Y-43658692D01*
X118967107Y-43545917D01*
X118854117Y-43479692D01*
X118598462Y-43463307D01*
X118207693Y-43463307D01*
X118207693Y-43854077D01*
X118196631Y-44079628D01*
X118140136Y-44212076D01*
X118012308Y-44244846D01*
X117886002Y-44276957D01*
X117816923Y-44440231D01*
X117827699Y-44526770D01*
X117898800Y-44597169D01*
X118075698Y-44628486D01*
X118403077Y-44635615D01*
X118989231Y-44635615D01*
X118989231Y-45026384D01*
X118978169Y-45251935D01*
X118921674Y-45384384D01*
X118793846Y-45417154D01*
X118667541Y-45385043D01*
X118598462Y-45221769D01*
X118587686Y-45135230D01*
X118516585Y-45064830D01*
X118339687Y-45033513D01*
X118012308Y-45026384D01*
X117752690Y-45022792D01*
X117541492Y-44999092D01*
X117447542Y-44940126D01*
X117426154Y-44831000D01*
X117394043Y-44704694D01*
X117230769Y-44635615D01*
X117104464Y-44603504D01*
X117035385Y-44440231D01*
X117003274Y-44313925D01*
X116840000Y-44244846D01*
X116727225Y-44266970D01*
X116661000Y-44379960D01*
X116644616Y-44635615D01*
X116633554Y-44861166D01*
X116577059Y-44993615D01*
X116449231Y-45026384D01*
X116322925Y-45058495D01*
X116253846Y-45221769D01*
X116253926Y-45232233D01*
X116270757Y-45317665D01*
X116341493Y-45371801D01*
X116501498Y-45401712D01*
X116786135Y-45414472D01*
X117230769Y-45417154D01*
X117283090Y-45417170D01*
X117710251Y-45420536D01*
X117980928Y-45434683D01*
X118130485Y-45466684D01*
X118194285Y-45523611D01*
X118207693Y-45612538D01*
X118185569Y-45725314D01*
X118072579Y-45791538D01*
X117816923Y-45807923D01*
X117591372Y-45818985D01*
X117458924Y-45875480D01*
X117426154Y-46003307D01*
X117426074Y-46013771D01*
X117409243Y-46099204D01*
X117338507Y-46153339D01*
X117178503Y-46183250D01*
X116893866Y-46196010D01*
X116449231Y-46198692D01*
X116396911Y-46198676D01*
X115969749Y-46195310D01*
X115699072Y-46181163D01*
X115549516Y-46149162D01*
X115485716Y-46092234D01*
X115472308Y-46003307D01*
X115440197Y-45877002D01*
X115276923Y-45807923D01*
X115150618Y-45840034D01*
X115081539Y-46003307D01*
X115049428Y-46129613D01*
X114886154Y-46198692D01*
X114759848Y-46166581D01*
X114690769Y-46003307D01*
X114679993Y-45916768D01*
X114608893Y-45846369D01*
X114431994Y-45815052D01*
X114104616Y-45807923D01*
X113844997Y-45811515D01*
X113633800Y-45835215D01*
X113539849Y-45894181D01*
X113518462Y-46003307D01*
X113496338Y-46116083D01*
X113383348Y-46182307D01*
X113127693Y-46198692D01*
X112902142Y-46187630D01*
X112769693Y-46131135D01*
X112736923Y-46003307D01*
X112704813Y-45877002D01*
X112541539Y-45807923D01*
X112415233Y-45840034D01*
X112346154Y-46003307D01*
X112314043Y-46129613D01*
X112150769Y-46198692D01*
X112037994Y-46176568D01*
X111971770Y-46063578D01*
X111955385Y-45807923D01*
X111955385Y-45417154D01*
X111173846Y-45417154D01*
X111173846Y-44440231D01*
X111564616Y-44440231D01*
X111596726Y-44566536D01*
X111760000Y-44635615D01*
X111872776Y-44657739D01*
X111939000Y-44770729D01*
X111955385Y-45026384D01*
X111966447Y-45251935D01*
X112022942Y-45384384D01*
X112150769Y-45417154D01*
X112263545Y-45395030D01*
X112329769Y-45282040D01*
X112346154Y-45026384D01*
X112336572Y-44831000D01*
X112736923Y-44831000D01*
X112769034Y-44957305D01*
X112932308Y-45026384D01*
X113045083Y-45048508D01*
X113111308Y-45161498D01*
X113127693Y-45417154D01*
X113138755Y-45642705D01*
X113195249Y-45775153D01*
X113323077Y-45807923D01*
X113449383Y-45775812D01*
X113518462Y-45612538D01*
X113540586Y-45499763D01*
X113653576Y-45433538D01*
X113909231Y-45417154D01*
X114134782Y-45406092D01*
X114267231Y-45349597D01*
X114300000Y-45221769D01*
X114332111Y-45095463D01*
X114495385Y-45026384D01*
X114608160Y-45048508D01*
X114674385Y-45161498D01*
X114690769Y-45417154D01*
X114701832Y-45642705D01*
X114758326Y-45775153D01*
X114886154Y-45807923D01*
X114998930Y-45785799D01*
X115065154Y-45672809D01*
X115081539Y-45417154D01*
X115092601Y-45191603D01*
X115149096Y-45059154D01*
X115276923Y-45026384D01*
X115389699Y-45048508D01*
X115455923Y-45161498D01*
X115472308Y-45417154D01*
X115483370Y-45642705D01*
X115539865Y-45775153D01*
X115667693Y-45807923D01*
X115780468Y-45785799D01*
X115846692Y-45672809D01*
X115863077Y-45417154D01*
X115874139Y-45191603D01*
X115930634Y-45059154D01*
X116058462Y-45026384D01*
X116171237Y-45004260D01*
X116237462Y-44891271D01*
X116253846Y-44635615D01*
X116264908Y-44410064D01*
X116321403Y-44277615D01*
X116449231Y-44244846D01*
X116575537Y-44212735D01*
X116644616Y-44049461D01*
X116612505Y-43923156D01*
X116449231Y-43854077D01*
X116322925Y-43886187D01*
X116253846Y-44049461D01*
X116221736Y-44175767D01*
X116058462Y-44244846D01*
X115932156Y-44212735D01*
X115863077Y-44049461D01*
X115830966Y-43923156D01*
X115667693Y-43854077D01*
X115541387Y-43886187D01*
X115472308Y-44049461D01*
X115504419Y-44175767D01*
X115667693Y-44244846D01*
X115793998Y-44276957D01*
X115863077Y-44440231D01*
X115840953Y-44553006D01*
X115727963Y-44619230D01*
X115472308Y-44635615D01*
X115246757Y-44646677D01*
X115114308Y-44703172D01*
X115081539Y-44831000D01*
X115049428Y-44957305D01*
X114886154Y-45026384D01*
X114799615Y-45015608D01*
X114729216Y-44944508D01*
X114697899Y-44767609D01*
X114690769Y-44440231D01*
X114687177Y-44180612D01*
X114663477Y-43969415D01*
X114604511Y-43875464D01*
X114495385Y-43854077D01*
X114408845Y-43864853D01*
X114338446Y-43935953D01*
X114307129Y-44112852D01*
X114304255Y-44244846D01*
X114300000Y-44440231D01*
X114296408Y-44699849D01*
X114272708Y-44911046D01*
X114213742Y-45004997D01*
X114104616Y-45026384D01*
X113978310Y-44994274D01*
X113909231Y-44831000D01*
X113898455Y-44744460D01*
X113827354Y-44674061D01*
X113650456Y-44642744D01*
X113323077Y-44635615D01*
X113063459Y-44639207D01*
X112852262Y-44662907D01*
X112758311Y-44721873D01*
X112736923Y-44831000D01*
X112336572Y-44831000D01*
X112335092Y-44800833D01*
X112278597Y-44668385D01*
X112150769Y-44635615D01*
X112024464Y-44603504D01*
X111955385Y-44440231D01*
X111923274Y-44313925D01*
X111760000Y-44244846D01*
X112346154Y-44244846D01*
X113518462Y-44244846D01*
X113518462Y-43072538D01*
X112346154Y-43072538D01*
X112346154Y-44244846D01*
X111760000Y-44244846D01*
X111633695Y-44276957D01*
X111564616Y-44440231D01*
X111173846Y-44440231D01*
X111173846Y-43854077D01*
X111564616Y-43854077D01*
X111790167Y-43843015D01*
X111922615Y-43786520D01*
X111955385Y-43658692D01*
X111923274Y-43532386D01*
X111760000Y-43463307D01*
X111633695Y-43431197D01*
X111564616Y-43267923D01*
X111596726Y-43141617D01*
X111760000Y-43072538D01*
X111886306Y-43040427D01*
X111955385Y-42877154D01*
X111923274Y-42750848D01*
X111760000Y-42681769D01*
X111633695Y-42649658D01*
X111564616Y-42486384D01*
X111532505Y-42360079D01*
X111369231Y-42291000D01*
X111242925Y-42323110D01*
X111173846Y-42486384D01*
X111141736Y-42612690D01*
X110978462Y-42681769D01*
X110852156Y-42713880D01*
X110783077Y-42877154D01*
X110750966Y-43003459D01*
X110587693Y-43072538D01*
X110461387Y-43040427D01*
X110392308Y-42877154D01*
X110424419Y-42750848D01*
X110587693Y-42681769D01*
X110713998Y-42649658D01*
X110783077Y-42486384D01*
X110750966Y-42360079D01*
X110587693Y-42291000D01*
X110536178Y-42288124D01*
X110458497Y-42248887D01*
X110415175Y-42132232D01*
X110396498Y-41900231D01*
X110783077Y-41900231D01*
X111173846Y-41900231D01*
X111399397Y-41911293D01*
X111531846Y-41967787D01*
X111564616Y-42095615D01*
X111586740Y-42208391D01*
X111699729Y-42274615D01*
X111955385Y-42291000D01*
X112180936Y-42302062D01*
X112313385Y-42358557D01*
X112346154Y-42486384D01*
X112378265Y-42612690D01*
X112541539Y-42681769D01*
X112667844Y-42649658D01*
X112736923Y-42486384D01*
X113127693Y-42486384D01*
X113159803Y-42612690D01*
X113323077Y-42681769D01*
X113449383Y-42649658D01*
X113518462Y-42486384D01*
X113486351Y-42360079D01*
X113323077Y-42291000D01*
X113196771Y-42323110D01*
X113127693Y-42486384D01*
X112736923Y-42486384D01*
X112704813Y-42360079D01*
X112541539Y-42291000D01*
X112415233Y-42258889D01*
X112346154Y-42095615D01*
X112378265Y-41969309D01*
X112541539Y-41900231D01*
X112667844Y-41868120D01*
X112736923Y-41704846D01*
X112759047Y-41592070D01*
X112872037Y-41525846D01*
X113127693Y-41509461D01*
X113353244Y-41498399D01*
X113485692Y-41441904D01*
X113518462Y-41314077D01*
X113909231Y-41314077D01*
X113941342Y-41440382D01*
X114104616Y-41509461D01*
X114230921Y-41477351D01*
X114300000Y-41314077D01*
X114322124Y-41201301D01*
X114435114Y-41135077D01*
X114690769Y-41118692D01*
X114916321Y-41129754D01*
X115048769Y-41186249D01*
X115081539Y-41314077D01*
X115103663Y-41426852D01*
X115216653Y-41493077D01*
X115472308Y-41509461D01*
X115697859Y-41498399D01*
X115830308Y-41441904D01*
X115863077Y-41314077D01*
X115895188Y-41187771D01*
X116058462Y-41118692D01*
X116184768Y-41086581D01*
X116253846Y-40923307D01*
X116285957Y-40797002D01*
X116449231Y-40727923D01*
X116575537Y-40695812D01*
X116644616Y-40532538D01*
X116666740Y-40419763D01*
X116779729Y-40353538D01*
X117035385Y-40337154D01*
X117260936Y-40348216D01*
X117393385Y-40404710D01*
X117426154Y-40532538D01*
X117448278Y-40645314D01*
X117561268Y-40711538D01*
X117816923Y-40727923D01*
X118042474Y-40738985D01*
X118174923Y-40795480D01*
X118207693Y-40923307D01*
X118175582Y-41049613D01*
X118012308Y-41118692D01*
X117886002Y-41150803D01*
X117816923Y-41314077D01*
X117784813Y-41440382D01*
X117621539Y-41509461D01*
X117495233Y-41541572D01*
X117426154Y-41704846D01*
X117394043Y-41831152D01*
X117230769Y-41900231D01*
X117117994Y-41878106D01*
X117051770Y-41765117D01*
X117035385Y-41509461D01*
X117024323Y-41283910D01*
X116967828Y-41151462D01*
X116840000Y-41118692D01*
X116713695Y-41150803D01*
X116644616Y-41314077D01*
X116612505Y-41440382D01*
X116449231Y-41509461D01*
X116322925Y-41541572D01*
X116253846Y-41704846D01*
X116243070Y-41791385D01*
X116171970Y-41861784D01*
X115995071Y-41893101D01*
X115667693Y-41900231D01*
X115408074Y-41903823D01*
X115196877Y-41927523D01*
X115102926Y-41986489D01*
X115081539Y-42095615D01*
X115049428Y-42221921D01*
X114886154Y-42291000D01*
X114759848Y-42258889D01*
X114690769Y-42095615D01*
X114658659Y-41969309D01*
X114495385Y-41900231D01*
X114382609Y-41922355D01*
X114316385Y-42035344D01*
X114300000Y-42291000D01*
X114309582Y-42486384D01*
X114311062Y-42516551D01*
X114367557Y-42648999D01*
X114495385Y-42681769D01*
X114621691Y-42713880D01*
X114690769Y-42877154D01*
X114668645Y-42989929D01*
X114555656Y-43056153D01*
X114300000Y-43072538D01*
X114074449Y-43083600D01*
X113942001Y-43140095D01*
X113909231Y-43267923D01*
X113920007Y-43354462D01*
X113991108Y-43424861D01*
X114168006Y-43456178D01*
X114495385Y-43463307D01*
X114755003Y-43459715D01*
X114966200Y-43436015D01*
X115060151Y-43377049D01*
X115081539Y-43267923D01*
X115113649Y-43141617D01*
X115276923Y-43072538D01*
X115403229Y-43040427D01*
X115472308Y-42877154D01*
X115504419Y-42750848D01*
X115667693Y-42681769D01*
X115780468Y-42703893D01*
X115846692Y-42816883D01*
X115863077Y-43072538D01*
X115874139Y-43298089D01*
X115930634Y-43430538D01*
X116058462Y-43463307D01*
X116171237Y-43441183D01*
X116237462Y-43328194D01*
X116253846Y-43072538D01*
X116264908Y-42846987D01*
X116321403Y-42714538D01*
X116449231Y-42681769D01*
X116562007Y-42703893D01*
X116628231Y-42816883D01*
X116644616Y-43072538D01*
X116655678Y-43298089D01*
X116712173Y-43430538D01*
X116840000Y-43463307D01*
X116952776Y-43485431D01*
X117019000Y-43598421D01*
X117035385Y-43854077D01*
X117035385Y-44244846D01*
X117816923Y-44244846D01*
X117816923Y-43854077D01*
X117827985Y-43628526D01*
X117884480Y-43496077D01*
X118012308Y-43463307D01*
X118138614Y-43431197D01*
X118207693Y-43267923D01*
X118175582Y-43141617D01*
X118012308Y-43072538D01*
X117886002Y-43104649D01*
X117816923Y-43267923D01*
X117794799Y-43380698D01*
X117681810Y-43446923D01*
X117426154Y-43463307D01*
X117035385Y-43463307D01*
X117035385Y-43072538D01*
X117046447Y-42846987D01*
X117102942Y-42714538D01*
X117230769Y-42681769D01*
X117343545Y-42659645D01*
X117409769Y-42546655D01*
X117426154Y-42291000D01*
X117437216Y-42065449D01*
X117493711Y-41933000D01*
X117621539Y-41900231D01*
X117747844Y-41868120D01*
X117816923Y-41704846D01*
X117849034Y-41578540D01*
X118012308Y-41509461D01*
X118138614Y-41541572D01*
X118207693Y-41704846D01*
X118239803Y-41831152D01*
X118403077Y-41900231D01*
X118529383Y-41932341D01*
X118598462Y-42095615D01*
X118566351Y-42221921D01*
X118403077Y-42291000D01*
X118276771Y-42323110D01*
X118207693Y-42486384D01*
X118229817Y-42599160D01*
X118342806Y-42665384D01*
X118598462Y-42681769D01*
X118824013Y-42692831D01*
X118956462Y-42749326D01*
X118989231Y-42877154D01*
X119021342Y-43003459D01*
X119184616Y-43072538D01*
X119310921Y-43040427D01*
X119380000Y-42877154D01*
X119770769Y-42877154D01*
X119802880Y-43003459D01*
X119966154Y-43072538D01*
X120092460Y-43040427D01*
X120161539Y-42877154D01*
X120129428Y-42750848D01*
X119966154Y-42681769D01*
X119839848Y-42713880D01*
X119770769Y-42877154D01*
X119380000Y-42877154D01*
X119347890Y-42750848D01*
X119184616Y-42681769D01*
X119058310Y-42649658D01*
X118989231Y-42486384D01*
X120552308Y-42486384D01*
X120584419Y-42612690D01*
X120747693Y-42681769D01*
X120873998Y-42649658D01*
X120943077Y-42486384D01*
X120910966Y-42360079D01*
X120747693Y-42291000D01*
X120621387Y-42323110D01*
X120552308Y-42486384D01*
X118989231Y-42486384D01*
X119021342Y-42360079D01*
X119184616Y-42291000D01*
X119310921Y-42258889D01*
X119380000Y-42095615D01*
X119770769Y-42095615D01*
X119802880Y-42221921D01*
X119966154Y-42291000D01*
X120092460Y-42258889D01*
X120161539Y-42095615D01*
X121333846Y-42095615D01*
X121365957Y-42221921D01*
X121529231Y-42291000D01*
X121655537Y-42323110D01*
X121724616Y-42486384D01*
X121756726Y-42612690D01*
X121920000Y-42681769D01*
X122046306Y-42649658D01*
X122115385Y-42486384D01*
X122506154Y-42486384D01*
X122538265Y-42612690D01*
X122701539Y-42681769D01*
X122827844Y-42649658D01*
X122896923Y-42486384D01*
X122864813Y-42360079D01*
X122701539Y-42291000D01*
X122575233Y-42323110D01*
X122506154Y-42486384D01*
X122115385Y-42486384D01*
X122083274Y-42360079D01*
X121920000Y-42291000D01*
X121793695Y-42258889D01*
X121724616Y-42095615D01*
X121692505Y-41969309D01*
X121529231Y-41900231D01*
X121402925Y-41932341D01*
X121333846Y-42095615D01*
X120161539Y-42095615D01*
X120129428Y-41969309D01*
X119966154Y-41900231D01*
X119839848Y-41932341D01*
X119770769Y-42095615D01*
X119380000Y-42095615D01*
X119357876Y-41982840D01*
X119244886Y-41916615D01*
X118989231Y-41900231D01*
X118598462Y-41900231D01*
X118598462Y-41509461D01*
X118608044Y-41314077D01*
X119380000Y-41314077D01*
X119412111Y-41440382D01*
X119575385Y-41509461D01*
X119701691Y-41477351D01*
X119770769Y-41314077D01*
X119738659Y-41187771D01*
X119575385Y-41118692D01*
X119449079Y-41150803D01*
X119380000Y-41314077D01*
X118608044Y-41314077D01*
X118609524Y-41283910D01*
X118666019Y-41151462D01*
X118793846Y-41118692D01*
X118906622Y-41096568D01*
X118972846Y-40983578D01*
X118989231Y-40727923D01*
X119000293Y-40502372D01*
X119056788Y-40369923D01*
X119184616Y-40337154D01*
X119310921Y-40369264D01*
X119380000Y-40532538D01*
X119390776Y-40619078D01*
X119461877Y-40689477D01*
X119638775Y-40720794D01*
X119966154Y-40727923D01*
X120225772Y-40731515D01*
X120436970Y-40755215D01*
X120530921Y-40814181D01*
X120552308Y-40923307D01*
X120520197Y-41049613D01*
X120356923Y-41118692D01*
X120230618Y-41150803D01*
X120161539Y-41314077D01*
X120193649Y-41440382D01*
X120356923Y-41509461D01*
X120483229Y-41541572D01*
X120552308Y-41704846D01*
X120584419Y-41831152D01*
X120747693Y-41900231D01*
X120873998Y-41868120D01*
X120943077Y-41704846D01*
X120975188Y-41578540D01*
X121138462Y-41509461D01*
X121264768Y-41477351D01*
X121333846Y-41314077D01*
X121301736Y-41187771D01*
X121138462Y-41118692D01*
X121012156Y-41086581D01*
X120943077Y-40923307D01*
X120910966Y-40797002D01*
X120747693Y-40727923D01*
X120621387Y-40695812D01*
X120552308Y-40532538D01*
X120574432Y-40419763D01*
X120687422Y-40353538D01*
X120943077Y-40337154D01*
X121168628Y-40348216D01*
X121301077Y-40404710D01*
X121333846Y-40532538D01*
X121365957Y-40658844D01*
X121529231Y-40727923D01*
X121642007Y-40705799D01*
X121708231Y-40592809D01*
X121724616Y-40337154D01*
X121724616Y-39946384D01*
X121138462Y-39946384D01*
X120878843Y-39949976D01*
X120667646Y-39973677D01*
X120573695Y-40032643D01*
X120552308Y-40141769D01*
X120541532Y-40228308D01*
X120470431Y-40298707D01*
X120293533Y-40330024D01*
X119966154Y-40337154D01*
X119380000Y-40337154D01*
X119380000Y-38383307D01*
X118989231Y-38383307D01*
X118763680Y-38372245D01*
X118631231Y-38315751D01*
X118598462Y-38187923D01*
X118620586Y-38075147D01*
X118733576Y-38008923D01*
X118989231Y-37992538D01*
X119380000Y-37992538D01*
X119380000Y-37797154D01*
X119770769Y-37797154D01*
X119781546Y-37883693D01*
X119852646Y-37954092D01*
X120029545Y-37985409D01*
X120356923Y-37992538D01*
X120616542Y-37996130D01*
X120827739Y-38019830D01*
X120921690Y-38078797D01*
X120943077Y-38187923D01*
X120920953Y-38300698D01*
X120807963Y-38366923D01*
X120552308Y-38383307D01*
X120326757Y-38394369D01*
X120194308Y-38450864D01*
X120161539Y-38578692D01*
X120183663Y-38691468D01*
X120296653Y-38757692D01*
X120552308Y-38774077D01*
X120777859Y-38763015D01*
X120910308Y-38706520D01*
X120943077Y-38578692D01*
X120975188Y-38452386D01*
X121138462Y-38383307D01*
X121264768Y-38351197D01*
X121333846Y-38187923D01*
X122506154Y-38187923D01*
X122538265Y-38314229D01*
X122701539Y-38383307D01*
X122827844Y-38351197D01*
X122896923Y-38187923D01*
X122864813Y-38061617D01*
X122701539Y-37992538D01*
X122575233Y-38024649D01*
X122506154Y-38187923D01*
X121333846Y-38187923D01*
X121301736Y-38061617D01*
X121138462Y-37992538D01*
X121012156Y-37960427D01*
X120943077Y-37797154D01*
X120932301Y-37710614D01*
X120861200Y-37640215D01*
X120684302Y-37608898D01*
X120356923Y-37601769D01*
X120097305Y-37605361D01*
X119886108Y-37629061D01*
X119792157Y-37688027D01*
X119770769Y-37797154D01*
X119380000Y-37797154D01*
X119380000Y-37406384D01*
X119376408Y-37146766D01*
X119352708Y-36935569D01*
X119293742Y-36841618D01*
X119184616Y-36820231D01*
X119058310Y-36852341D01*
X118989231Y-37015615D01*
X118957120Y-37141921D01*
X118793846Y-37211000D01*
X118681071Y-37188876D01*
X118614847Y-37075886D01*
X118598462Y-36820231D01*
X118588880Y-36624846D01*
X119770769Y-36624846D01*
X119802880Y-36751152D01*
X119966154Y-36820231D01*
X120092460Y-36852341D01*
X120161539Y-37015615D01*
X120183663Y-37128391D01*
X120296653Y-37194615D01*
X120552308Y-37211000D01*
X120777859Y-37199938D01*
X120910308Y-37143443D01*
X120943077Y-37015615D01*
X120920953Y-36902840D01*
X120807963Y-36836615D01*
X120552308Y-36820231D01*
X120326757Y-36809168D01*
X120194308Y-36752674D01*
X120161539Y-36624846D01*
X120129428Y-36498540D01*
X119966154Y-36429461D01*
X119839848Y-36461572D01*
X119770769Y-36624846D01*
X118588880Y-36624846D01*
X118587400Y-36594679D01*
X118530905Y-36462231D01*
X118403077Y-36429461D01*
X118316538Y-36418685D01*
X118246139Y-36347585D01*
X118226044Y-36234077D01*
X118989231Y-36234077D01*
X119021342Y-36360382D01*
X119184616Y-36429461D01*
X119310921Y-36397351D01*
X119380000Y-36234077D01*
X119412111Y-36107771D01*
X119575385Y-36038692D01*
X119701691Y-36006581D01*
X119770769Y-35843307D01*
X119738659Y-35717002D01*
X119575385Y-35647923D01*
X119449079Y-35680034D01*
X119380000Y-35843307D01*
X119347890Y-35969613D01*
X119184616Y-36038692D01*
X119058310Y-36070803D01*
X118989231Y-36234077D01*
X118226044Y-36234077D01*
X118214822Y-36170686D01*
X118207693Y-35843307D01*
X118204101Y-35583689D01*
X118180400Y-35372492D01*
X118121434Y-35278541D01*
X118012308Y-35257154D01*
X117899532Y-35279278D01*
X117833308Y-35392267D01*
X117816923Y-35647923D01*
X117805861Y-35873474D01*
X117749366Y-36005923D01*
X117621539Y-36038692D01*
X117534999Y-36027916D01*
X117464600Y-35956815D01*
X117433283Y-35779917D01*
X117426154Y-35452538D01*
X117426154Y-34866384D01*
X116840000Y-34866384D01*
X116580382Y-34869976D01*
X116369185Y-34893677D01*
X116275234Y-34952643D01*
X116253846Y-35061769D01*
X116221736Y-35188075D01*
X116058462Y-35257154D01*
X115932156Y-35289264D01*
X115863077Y-35452538D01*
X115830966Y-35578844D01*
X115667693Y-35647923D01*
X115541387Y-35615812D01*
X115472308Y-35452538D01*
X115440197Y-35326232D01*
X115276923Y-35257154D01*
X115150618Y-35289264D01*
X115081539Y-35452538D01*
X115113649Y-35578844D01*
X115276923Y-35647923D01*
X115403229Y-35680034D01*
X115472308Y-35843307D01*
X115504419Y-35969613D01*
X115667693Y-36038692D01*
X115793998Y-36006581D01*
X115863077Y-35843307D01*
X115895188Y-35717002D01*
X116058462Y-35647923D01*
X116184768Y-35680034D01*
X116253846Y-35843307D01*
X116285957Y-35969613D01*
X116449231Y-36038692D01*
X116562007Y-36060816D01*
X116628231Y-36173806D01*
X116644616Y-36429461D01*
X116644616Y-36820231D01*
X116253846Y-36820231D01*
X116028295Y-36831293D01*
X115895847Y-36887787D01*
X115863077Y-37015615D01*
X115840953Y-37128391D01*
X115727963Y-37194615D01*
X115472308Y-37211000D01*
X115246757Y-37222062D01*
X115114308Y-37278557D01*
X115081539Y-37406384D01*
X115049428Y-37532690D01*
X114886154Y-37601769D01*
X114773379Y-37579645D01*
X114707154Y-37466655D01*
X114690769Y-37211000D01*
X114679707Y-36985449D01*
X114623213Y-36853000D01*
X114495385Y-36820231D01*
X114382609Y-36842355D01*
X114316385Y-36955344D01*
X114300000Y-37211000D01*
X114311062Y-37436551D01*
X114367557Y-37568999D01*
X114495385Y-37601769D01*
X114621691Y-37633880D01*
X114690769Y-37797154D01*
X114658659Y-37923459D01*
X114495385Y-37992538D01*
X114369079Y-38024649D01*
X114300000Y-38187923D01*
X114322124Y-38300698D01*
X114435114Y-38366923D01*
X114690769Y-38383307D01*
X114916321Y-38394369D01*
X115048769Y-38450864D01*
X115081539Y-38578692D01*
X115113649Y-38704998D01*
X115276923Y-38774077D01*
X115403229Y-38741966D01*
X115472308Y-38578692D01*
X115440197Y-38452386D01*
X115276923Y-38383307D01*
X115164148Y-38361183D01*
X115097923Y-38248194D01*
X115081539Y-37992538D01*
X115081539Y-37601769D01*
X115863077Y-37601769D01*
X115863077Y-38383307D01*
X115863796Y-38589366D01*
X115873605Y-38900091D01*
X115902769Y-39073379D01*
X115961113Y-39148529D01*
X116058462Y-39164846D01*
X116145001Y-39175622D01*
X116215400Y-39246723D01*
X116246717Y-39423621D01*
X116253846Y-39751000D01*
X116250254Y-40010618D01*
X116226554Y-40221815D01*
X116167588Y-40315766D01*
X116058462Y-40337154D01*
X115945686Y-40315030D01*
X115879462Y-40202040D01*
X115863077Y-39946384D01*
X115852015Y-39720833D01*
X115795520Y-39588385D01*
X115667693Y-39555615D01*
X115541387Y-39523504D01*
X115472308Y-39360231D01*
X115440197Y-39233925D01*
X115276923Y-39164846D01*
X115150618Y-39196957D01*
X115081539Y-39360231D01*
X115113649Y-39486536D01*
X115276923Y-39555615D01*
X115363463Y-39566391D01*
X115433862Y-39637492D01*
X115453957Y-39751000D01*
X115465179Y-39814390D01*
X115472308Y-40141769D01*
X115472308Y-40727923D01*
X115081539Y-40727923D01*
X114855988Y-40716861D01*
X114723539Y-40660366D01*
X114690769Y-40532538D01*
X114722880Y-40406232D01*
X114886154Y-40337154D01*
X115012460Y-40305043D01*
X115081539Y-40141769D01*
X115049428Y-40015463D01*
X114886154Y-39946384D01*
X114759848Y-39978495D01*
X114690769Y-40141769D01*
X114668645Y-40254544D01*
X114555656Y-40320769D01*
X114300000Y-40337154D01*
X114074449Y-40348216D01*
X113942001Y-40404710D01*
X113909231Y-40532538D01*
X113941342Y-40658844D01*
X114104616Y-40727923D01*
X114230921Y-40760034D01*
X114300000Y-40923307D01*
X114267890Y-41049613D01*
X114104616Y-41118692D01*
X113978310Y-41150803D01*
X113909231Y-41314077D01*
X113518462Y-41314077D01*
X113496338Y-41201301D01*
X113383348Y-41135077D01*
X113127693Y-41118692D01*
X112902142Y-41107630D01*
X112769693Y-41051135D01*
X112736923Y-40923307D01*
X112769034Y-40797002D01*
X112932308Y-40727923D01*
X113058614Y-40695812D01*
X113127693Y-40532538D01*
X113095582Y-40406232D01*
X112932308Y-40337154D01*
X112819532Y-40315030D01*
X112753308Y-40202040D01*
X112736923Y-39946384D01*
X112727341Y-39751000D01*
X113518462Y-39751000D01*
X113550573Y-39877305D01*
X113713846Y-39946384D01*
X113840152Y-39914274D01*
X113909231Y-39751000D01*
X113877120Y-39624694D01*
X113713846Y-39555615D01*
X113587541Y-39587726D01*
X113518462Y-39751000D01*
X112727341Y-39751000D01*
X112725861Y-39720833D01*
X112669366Y-39588385D01*
X112541539Y-39555615D01*
X112454999Y-39544839D01*
X112384600Y-39473738D01*
X112353283Y-39296840D01*
X112346154Y-38969461D01*
X112342562Y-38709843D01*
X112318862Y-38498646D01*
X112259896Y-38404695D01*
X112150769Y-38383307D01*
X112024464Y-38415418D01*
X111955385Y-38578692D01*
X111923274Y-38704998D01*
X111760000Y-38774077D01*
X111708486Y-38771201D01*
X111630804Y-38731964D01*
X111587482Y-38615309D01*
X111568695Y-38381934D01*
X111564616Y-37992538D01*
X111563934Y-37797154D01*
X111955385Y-37797154D01*
X111987496Y-37923459D01*
X112150769Y-37992538D01*
X112277075Y-37960427D01*
X112346154Y-37797154D01*
X112314043Y-37670848D01*
X112150769Y-37601769D01*
X112024464Y-37633880D01*
X111955385Y-37797154D01*
X111563934Y-37797154D01*
X111563897Y-37786480D01*
X111554087Y-37475754D01*
X111524924Y-37302467D01*
X111466580Y-37227316D01*
X111369231Y-37211000D01*
X111242925Y-37178889D01*
X111173846Y-37015615D01*
X111141736Y-36889309D01*
X110978462Y-36820231D01*
X110852156Y-36852341D01*
X110783077Y-37015615D01*
X110815188Y-37141921D01*
X110978462Y-37211000D01*
X111104768Y-37243110D01*
X111173846Y-37406384D01*
X111141736Y-37532690D01*
X110978462Y-37601769D01*
X110852156Y-37633880D01*
X110783077Y-37797154D01*
X110815188Y-37923459D01*
X110978462Y-37992538D01*
X111091237Y-38014662D01*
X111157462Y-38127652D01*
X111173846Y-38383307D01*
X111184908Y-38608858D01*
X111241403Y-38741307D01*
X111369231Y-38774077D01*
X111482007Y-38796201D01*
X111548231Y-38909190D01*
X111564616Y-39164846D01*
X111564616Y-39555615D01*
X112346154Y-39555615D01*
X112346154Y-39946384D01*
X112357216Y-40171935D01*
X112413711Y-40304384D01*
X112541539Y-40337154D01*
X112667844Y-40369264D01*
X112736923Y-40532538D01*
X112704813Y-40658844D01*
X112541539Y-40727923D01*
X112415233Y-40760034D01*
X112346154Y-40923307D01*
X112314043Y-41049613D01*
X112150769Y-41118692D01*
X112037994Y-41096568D01*
X111971770Y-40983578D01*
X111955385Y-40727923D01*
X111944323Y-40502372D01*
X111887828Y-40369923D01*
X111760000Y-40337154D01*
X111633695Y-40305043D01*
X111564616Y-40141769D01*
X111532505Y-40015463D01*
X111369231Y-39946384D01*
X111242925Y-39978495D01*
X111173846Y-40141769D01*
X111205957Y-40268075D01*
X111369231Y-40337154D01*
X111495537Y-40369264D01*
X111564616Y-40532538D01*
X111542492Y-40645314D01*
X111429502Y-40711538D01*
X111173846Y-40727923D01*
X110783077Y-40727923D01*
X110783077Y-41900231D01*
X110396498Y-41900231D01*
X110396387Y-41898857D01*
X110392308Y-41509461D01*
X110393027Y-41303403D01*
X110402836Y-40992677D01*
X110432000Y-40819390D01*
X110490344Y-40744239D01*
X110587693Y-40727923D01*
X110713998Y-40695812D01*
X110783077Y-40532538D01*
X110750966Y-40406232D01*
X110587693Y-40337154D01*
X110461387Y-40305043D01*
X110392308Y-40141769D01*
X110414432Y-40028993D01*
X110527422Y-39962769D01*
X110783077Y-39946384D01*
X111173846Y-39946384D01*
X111173846Y-39360231D01*
X111170254Y-39100612D01*
X111146554Y-38889415D01*
X111087588Y-38795464D01*
X110978462Y-38774077D01*
X110852156Y-38741966D01*
X110783077Y-38578692D01*
X110750966Y-38452386D01*
X110587693Y-38383307D01*
X110577229Y-38383228D01*
X110491796Y-38366396D01*
X110437661Y-38295661D01*
X110407750Y-38135656D01*
X110394990Y-37851019D01*
X110392308Y-37406384D01*
X110392308Y-36429461D01*
X110783077Y-36429461D01*
X111008628Y-36440523D01*
X111141077Y-36497018D01*
X111173846Y-36624846D01*
X111205957Y-36751152D01*
X111369231Y-36820231D01*
X111495537Y-36788120D01*
X111564616Y-36624846D01*
X111596726Y-36498540D01*
X111760000Y-36429461D01*
X111872776Y-36451585D01*
X111939000Y-36564575D01*
X111955385Y-36820231D01*
X111966447Y-37045782D01*
X112022942Y-37178230D01*
X112150769Y-37211000D01*
X112277075Y-37178889D01*
X112346154Y-37015615D01*
X112378265Y-36889309D01*
X112541539Y-36820231D01*
X112667844Y-36788120D01*
X112736923Y-36624846D01*
X112769034Y-36498540D01*
X112932308Y-36429461D01*
X113045083Y-36451585D01*
X113111308Y-36564575D01*
X113127693Y-36820231D01*
X113138755Y-37045782D01*
X113195249Y-37178230D01*
X113323077Y-37211000D01*
X113409617Y-37221776D01*
X113480016Y-37292876D01*
X113511333Y-37469775D01*
X113518462Y-37797154D01*
X113514870Y-38056772D01*
X113491170Y-38267969D01*
X113432203Y-38361920D01*
X113323077Y-38383307D01*
X113210302Y-38361183D01*
X113144077Y-38248194D01*
X113127693Y-37992538D01*
X113116631Y-37766987D01*
X113060136Y-37634538D01*
X112932308Y-37601769D01*
X112806002Y-37633880D01*
X112736923Y-37797154D01*
X112704813Y-37923459D01*
X112541539Y-37992538D01*
X112415233Y-38024649D01*
X112346154Y-38187923D01*
X112378265Y-38314229D01*
X112541539Y-38383307D01*
X112667844Y-38415418D01*
X112736923Y-38578692D01*
X112769034Y-38704998D01*
X112932308Y-38774077D01*
X113058614Y-38806187D01*
X113127693Y-38969461D01*
X113149817Y-39082237D01*
X113262806Y-39148461D01*
X113518462Y-39164846D01*
X113744013Y-39175908D01*
X113876462Y-39232403D01*
X113909231Y-39360231D01*
X113931355Y-39473006D01*
X114044345Y-39539230D01*
X114300000Y-39555615D01*
X114690769Y-39555615D01*
X114690769Y-39164846D01*
X114679707Y-38939295D01*
X114623213Y-38806846D01*
X114495385Y-38774077D01*
X114369079Y-38741966D01*
X114300000Y-38578692D01*
X114267890Y-38452386D01*
X114104616Y-38383307D01*
X113978310Y-38351197D01*
X113909231Y-38187923D01*
X113941342Y-38061617D01*
X114104616Y-37992538D01*
X114230921Y-37960427D01*
X114300000Y-37797154D01*
X114267890Y-37670848D01*
X114104616Y-37601769D01*
X113991840Y-37579645D01*
X113925616Y-37466655D01*
X113909231Y-37211000D01*
X113898169Y-36985449D01*
X113841674Y-36853000D01*
X113713846Y-36820231D01*
X113627307Y-36809454D01*
X113556908Y-36738354D01*
X113525591Y-36561455D01*
X113518462Y-36234077D01*
X113522054Y-35974458D01*
X113545754Y-35763261D01*
X113604720Y-35669310D01*
X113713846Y-35647923D01*
X113800386Y-35658699D01*
X113870785Y-35729800D01*
X113902102Y-35906698D01*
X113909231Y-36234077D01*
X113912823Y-36493695D01*
X113936523Y-36704892D01*
X113995489Y-36798843D01*
X114104616Y-36820231D01*
X114230921Y-36788120D01*
X114300000Y-36624846D01*
X114322124Y-36512070D01*
X114435114Y-36445846D01*
X114690769Y-36429461D01*
X114916321Y-36440523D01*
X115048769Y-36497018D01*
X115081539Y-36624846D01*
X115113649Y-36751152D01*
X115276923Y-36820231D01*
X115389699Y-36798106D01*
X115455923Y-36685117D01*
X115472308Y-36429461D01*
X115461246Y-36203910D01*
X115404751Y-36071462D01*
X115276923Y-36038692D01*
X115150618Y-36006581D01*
X115081539Y-35843307D01*
X115049428Y-35717002D01*
X114886154Y-35647923D01*
X114759848Y-35680034D01*
X114690769Y-35843307D01*
X114658659Y-35969613D01*
X114495385Y-36038692D01*
X114408845Y-36027916D01*
X114338446Y-35956815D01*
X114307129Y-35779917D01*
X114300000Y-35452538D01*
X114303592Y-35192920D01*
X114327293Y-34981723D01*
X114386259Y-34887772D01*
X114495385Y-34866384D01*
X114621691Y-34898495D01*
X114690769Y-35061769D01*
X114722880Y-35188075D01*
X114886154Y-35257154D01*
X115012460Y-35225043D01*
X115081539Y-35061769D01*
X115113649Y-34935463D01*
X115276923Y-34866384D01*
X115389699Y-34844260D01*
X115455923Y-34731271D01*
X115472308Y-34475615D01*
X115483370Y-34250064D01*
X115539865Y-34117615D01*
X115667693Y-34084846D01*
X115793998Y-34052735D01*
X115863077Y-33889461D01*
X115840953Y-33776686D01*
X115727963Y-33710461D01*
X115472308Y-33694077D01*
X115246757Y-33683015D01*
X115114308Y-33626520D01*
X115081539Y-33498692D01*
X115084415Y-33447177D01*
X115123652Y-33369496D01*
X115240307Y-33326174D01*
X115473681Y-33307387D01*
X115863077Y-33303307D01*
X116069136Y-33304026D01*
X116379861Y-33313836D01*
X116553148Y-33342999D01*
X116628299Y-33401343D01*
X116644616Y-33498692D01*
X116612505Y-33624998D01*
X116449231Y-33694077D01*
X116322925Y-33726187D01*
X116253846Y-33889461D01*
X116221736Y-34015767D01*
X116058462Y-34084846D01*
X115945686Y-34106970D01*
X115879462Y-34219960D01*
X115863077Y-34475615D01*
X115874139Y-34701166D01*
X115930634Y-34833615D01*
X116058462Y-34866384D01*
X116184768Y-34834274D01*
X116253846Y-34671000D01*
X116275970Y-34558224D01*
X116388960Y-34492000D01*
X116644616Y-34475615D01*
X116870167Y-34464553D01*
X117002615Y-34408058D01*
X117035385Y-34280231D01*
X117067496Y-34153925D01*
X117230769Y-34084846D01*
X117357075Y-34116957D01*
X117426154Y-34280231D01*
X117458265Y-34406536D01*
X117621539Y-34475615D01*
X117747844Y-34507726D01*
X117816923Y-34671000D01*
X117839047Y-34783775D01*
X117952037Y-34850000D01*
X118207693Y-34866384D01*
X118433244Y-34855322D01*
X118565692Y-34798827D01*
X118598462Y-34671000D01*
X118566351Y-34544694D01*
X118403077Y-34475615D01*
X118276771Y-34443504D01*
X118207693Y-34280231D01*
X118175582Y-34153925D01*
X118012308Y-34084846D01*
X117899532Y-34062722D01*
X117833308Y-33949732D01*
X117816923Y-33694077D01*
X117816923Y-33303307D01*
X120161539Y-33303307D01*
X120161539Y-33694077D01*
X120150477Y-33919628D01*
X120093982Y-34052076D01*
X119966154Y-34084846D01*
X119839848Y-34052735D01*
X119770769Y-33889461D01*
X119767894Y-33837947D01*
X119728656Y-33760265D01*
X119612002Y-33716943D01*
X119378627Y-33698156D01*
X118989231Y-33694077D01*
X118783173Y-33694796D01*
X118472447Y-33704605D01*
X118299160Y-33733769D01*
X118224009Y-33792112D01*
X118207693Y-33889461D01*
X118239803Y-34015767D01*
X118403077Y-34084846D01*
X118529383Y-34116957D01*
X118598462Y-34280231D01*
X118630573Y-34406536D01*
X118793846Y-34475615D01*
X118920152Y-34443504D01*
X118989231Y-34280231D01*
X119021342Y-34153925D01*
X119184616Y-34084846D01*
X119310921Y-34116957D01*
X119380000Y-34280231D01*
X119402124Y-34393006D01*
X119515114Y-34459230D01*
X119770769Y-34475615D01*
X119996321Y-34486677D01*
X120128769Y-34543172D01*
X120161539Y-34671000D01*
X120139415Y-34783775D01*
X120026425Y-34850000D01*
X119770769Y-34866384D01*
X119545218Y-34855322D01*
X119412770Y-34798827D01*
X119380000Y-34671000D01*
X119347890Y-34544694D01*
X119184616Y-34475615D01*
X119058310Y-34507726D01*
X118989231Y-34671000D01*
X118957120Y-34797305D01*
X118793846Y-34866384D01*
X118707307Y-34877160D01*
X118636908Y-34948261D01*
X118605591Y-35125159D01*
X118598462Y-35452538D01*
X118602054Y-35712157D01*
X118625754Y-35923354D01*
X118684720Y-36017305D01*
X118793846Y-36038692D01*
X118906622Y-36016568D01*
X118972846Y-35903578D01*
X118989231Y-35647923D01*
X118989231Y-35257154D01*
X119380000Y-35257154D01*
X119605551Y-35268216D01*
X119738000Y-35324710D01*
X119770769Y-35452538D01*
X119802880Y-35578844D01*
X119966154Y-35647923D01*
X120078930Y-35670047D01*
X120145154Y-35783037D01*
X120149017Y-35843307D01*
X120161539Y-36038692D01*
X120161539Y-36429461D01*
X121333846Y-36429461D01*
X121333846Y-37992538D01*
X122506154Y-37992538D01*
G37*
G36*
X111495537Y-45840034D02*
G01*
X111564616Y-46003307D01*
X111532505Y-46129613D01*
X111369231Y-46198692D01*
X111242925Y-46166581D01*
X111173846Y-46003307D01*
X111205957Y-45877002D01*
X111369231Y-45807923D01*
X111495537Y-45840034D01*
G37*
G36*
X110713998Y-45449264D02*
G01*
X110783077Y-45612538D01*
X110750966Y-45738844D01*
X110587693Y-45807923D01*
X110461387Y-45775812D01*
X110392308Y-45612538D01*
X110424419Y-45486232D01*
X110587693Y-45417154D01*
X110713998Y-45449264D01*
G37*
G36*
X110674232Y-43864853D02*
G01*
X110744631Y-43935953D01*
X110775948Y-44112852D01*
X110783077Y-44440231D01*
X110779485Y-44699849D01*
X110755785Y-44911046D01*
X110696819Y-45004997D01*
X110587693Y-45026384D01*
X110501153Y-45015608D01*
X110430754Y-44944508D01*
X110399437Y-44767609D01*
X110392308Y-44440231D01*
X110395900Y-44180612D01*
X110419600Y-43969415D01*
X110478566Y-43875464D01*
X110587693Y-43854077D01*
X110674232Y-43864853D01*
G37*
G36*
X123218614Y-40369264D02*
G01*
X123287693Y-40532538D01*
X123255582Y-40658844D01*
X123092308Y-40727923D01*
X122966002Y-40695812D01*
X122896923Y-40532538D01*
X122929034Y-40406232D01*
X123092308Y-40337154D01*
X123218614Y-40369264D01*
G37*
G36*
X122827844Y-39196957D02*
G01*
X122896923Y-39360231D01*
X122929034Y-39486536D01*
X123092308Y-39555615D01*
X123218614Y-39587726D01*
X123287693Y-39751000D01*
X123255582Y-39877305D01*
X123092308Y-39946384D01*
X122966002Y-39914274D01*
X122896923Y-39751000D01*
X122864813Y-39624694D01*
X122701539Y-39555615D01*
X122575233Y-39523504D01*
X122506154Y-39360231D01*
X122538265Y-39233925D01*
X122701539Y-39164846D01*
X122827844Y-39196957D01*
G37*
G36*
X120552308Y-36038692D02*
G01*
X120552308Y-35647923D01*
X120943077Y-35647923D01*
X122896923Y-35647923D01*
X122896923Y-33694077D01*
X120943077Y-33694077D01*
X120943077Y-35647923D01*
X120552308Y-35647923D01*
X120552308Y-33303307D01*
X123287693Y-33303307D01*
X123287693Y-36038692D01*
X120552308Y-36038692D01*
G37*
G36*
X110392308Y-36038692D02*
G01*
X110392308Y-35647923D01*
X110783077Y-35647923D01*
X112736923Y-35647923D01*
X112736923Y-33694077D01*
X110783077Y-33694077D01*
X110783077Y-35647923D01*
X110392308Y-35647923D01*
X110392308Y-33303307D01*
X113127693Y-33303307D01*
X113127693Y-36038692D01*
X110392308Y-36038692D01*
G37*
G36*
X114230921Y-33335418D02*
G01*
X114300000Y-33498692D01*
X114332111Y-33624998D01*
X114495385Y-33694077D01*
X114621691Y-33726187D01*
X114690769Y-33889461D01*
X114668645Y-34002237D01*
X114555656Y-34068461D01*
X114300000Y-34084846D01*
X113909231Y-34084846D01*
X113909231Y-34475615D01*
X113898169Y-34701166D01*
X113841674Y-34833615D01*
X113713846Y-34866384D01*
X113627307Y-34855608D01*
X113556908Y-34784508D01*
X113525591Y-34607609D01*
X113518462Y-34280231D01*
X113522054Y-34020612D01*
X113545754Y-33809415D01*
X113604720Y-33715464D01*
X113713846Y-33694077D01*
X113840152Y-33661966D01*
X113909231Y-33498692D01*
X113941342Y-33372386D01*
X114104616Y-33303307D01*
X114230921Y-33335418D01*
G37*
G36*
X122506154Y-45417154D02*
G01*
X121333846Y-45417154D01*
X121333846Y-44244846D01*
X122506154Y-44244846D01*
X122506154Y-45417154D01*
G37*
G36*
X116952776Y-41922355D02*
G01*
X117019000Y-42035344D01*
X117035385Y-42291000D01*
X117024323Y-42516551D01*
X116967828Y-42648999D01*
X116840000Y-42681769D01*
X116727225Y-42659645D01*
X116661000Y-42546655D01*
X116644616Y-42291000D01*
X116655678Y-42065449D01*
X116712173Y-41933000D01*
X116840000Y-41900231D01*
X116952776Y-41922355D01*
G37*
G36*
X115403229Y-42323110D02*
G01*
X115472308Y-42486384D01*
X115440197Y-42612690D01*
X115276923Y-42681769D01*
X115150618Y-42649658D01*
X115081539Y-42486384D01*
X115113649Y-42360079D01*
X115276923Y-42291000D01*
X115403229Y-42323110D01*
G37*
G36*
X120873998Y-41150803D02*
G01*
X120943077Y-41314077D01*
X120910966Y-41440382D01*
X120747693Y-41509461D01*
X120621387Y-41477351D01*
X120552308Y-41314077D01*
X120584419Y-41187771D01*
X120747693Y-41118692D01*
X120873998Y-41150803D01*
G37*
G36*
X115793998Y-40760034D02*
G01*
X115863077Y-40923307D01*
X115830966Y-41049613D01*
X115667693Y-41118692D01*
X115541387Y-41086581D01*
X115472308Y-40923307D01*
X115504419Y-40797002D01*
X115667693Y-40727923D01*
X115793998Y-40760034D01*
G37*
G36*
X117230769Y-38383307D02*
G01*
X117104464Y-38415418D01*
X117035385Y-38578692D01*
X117057509Y-38691468D01*
X117170499Y-38757692D01*
X117426154Y-38774077D01*
X117651705Y-38763015D01*
X117784154Y-38706520D01*
X117816923Y-38578692D01*
X117839047Y-38465917D01*
X117952037Y-38399692D01*
X118207693Y-38383307D01*
X118433244Y-38394369D01*
X118565692Y-38450864D01*
X118598462Y-38578692D01*
X118566351Y-38704998D01*
X118403077Y-38774077D01*
X118276771Y-38806187D01*
X118207693Y-38969461D01*
X118239803Y-39095767D01*
X118403077Y-39164846D01*
X118529383Y-39196957D01*
X118598462Y-39360231D01*
X118566351Y-39486536D01*
X118403077Y-39555615D01*
X118290302Y-39577739D01*
X118224077Y-39690729D01*
X118220214Y-39751000D01*
X118207693Y-39946384D01*
X118207693Y-40337154D01*
X117816923Y-40337154D01*
X117591372Y-40326092D01*
X117458924Y-40269597D01*
X117426154Y-40141769D01*
X117394043Y-40015463D01*
X117230769Y-39946384D01*
X117104464Y-39914274D01*
X117035385Y-39751000D01*
X117003274Y-39624694D01*
X116840000Y-39555615D01*
X116727225Y-39533491D01*
X116661000Y-39420501D01*
X116657138Y-39360231D01*
X117035385Y-39360231D01*
X117067496Y-39486536D01*
X117230769Y-39555615D01*
X117357075Y-39587726D01*
X117426154Y-39751000D01*
X117458265Y-39877305D01*
X117621539Y-39946384D01*
X117747844Y-39914274D01*
X117816923Y-39751000D01*
X117784813Y-39624694D01*
X117621539Y-39555615D01*
X117495233Y-39523504D01*
X117426154Y-39360231D01*
X117394043Y-39233925D01*
X117230769Y-39164846D01*
X117104464Y-39196957D01*
X117035385Y-39360231D01*
X116657138Y-39360231D01*
X116644616Y-39164846D01*
X116633554Y-38939295D01*
X116577059Y-38806846D01*
X116449231Y-38774077D01*
X116336456Y-38751953D01*
X116270231Y-38638963D01*
X116253846Y-38383307D01*
X116263428Y-38187923D01*
X116644616Y-38187923D01*
X116676726Y-38314229D01*
X116840000Y-38383307D01*
X116966306Y-38351197D01*
X117035385Y-38187923D01*
X117003274Y-38061617D01*
X116840000Y-37992538D01*
X116713695Y-38024649D01*
X116644616Y-38187923D01*
X116263428Y-38187923D01*
X116264908Y-38157756D01*
X116321403Y-38025308D01*
X116449231Y-37992538D01*
X116575537Y-37960427D01*
X116644616Y-37797154D01*
X116612505Y-37670848D01*
X116449231Y-37601769D01*
X116322925Y-37569658D01*
X116253846Y-37406384D01*
X117035385Y-37406384D01*
X117067496Y-37532690D01*
X117230769Y-37601769D01*
X117357075Y-37569658D01*
X117426154Y-37406384D01*
X117394043Y-37280079D01*
X117230769Y-37211000D01*
X117104464Y-37243110D01*
X117035385Y-37406384D01*
X116253846Y-37406384D01*
X116285957Y-37280079D01*
X116449231Y-37211000D01*
X116575537Y-37178889D01*
X116644616Y-37015615D01*
X116666740Y-36902840D01*
X116779729Y-36836615D01*
X117035385Y-36820231D01*
X117260936Y-36809168D01*
X117393385Y-36752674D01*
X117426154Y-36624846D01*
X117458265Y-36498540D01*
X117621539Y-36429461D01*
X117747844Y-36461572D01*
X117816923Y-36624846D01*
X117784813Y-36751152D01*
X117621539Y-36820231D01*
X117495233Y-36852341D01*
X117426154Y-37015615D01*
X117458265Y-37141921D01*
X117621539Y-37211000D01*
X117747844Y-37243110D01*
X117816923Y-37406384D01*
X117849034Y-37532690D01*
X118012308Y-37601769D01*
X118138614Y-37569658D01*
X118207693Y-37406384D01*
X118239803Y-37280079D01*
X118403077Y-37211000D01*
X118529383Y-37243110D01*
X118598462Y-37406384D01*
X118566351Y-37532690D01*
X118403077Y-37601769D01*
X118276771Y-37633880D01*
X118207693Y-37797154D01*
X118185569Y-37909929D01*
X118072579Y-37976153D01*
X117816923Y-37992538D01*
X117591372Y-38003600D01*
X117458924Y-38060095D01*
X117426154Y-38187923D01*
X117394043Y-38314229D01*
X117230769Y-38383307D01*
G37*
G36*
X116575537Y-35289264D02*
G01*
X116644616Y-35452538D01*
X116676726Y-35578844D01*
X116840000Y-35647923D01*
X116966306Y-35680034D01*
X117035385Y-35843307D01*
X117003274Y-35969613D01*
X116840000Y-36038692D01*
X116713695Y-36006581D01*
X116644616Y-35843307D01*
X116612505Y-35717002D01*
X116449231Y-35647923D01*
X116322925Y-35615812D01*
X116253846Y-35452538D01*
X116285957Y-35326232D01*
X116449231Y-35257154D01*
X116575537Y-35289264D01*
G37*
G36*
X113058614Y-43495418D02*
G01*
X113127693Y-43658692D01*
X113095582Y-43784998D01*
X112932308Y-43854077D01*
X112806002Y-43821966D01*
X112736923Y-43658692D01*
X112769034Y-43532386D01*
X112932308Y-43463307D01*
X113058614Y-43495418D01*
G37*
G36*
X111955385Y-41509461D02*
G01*
X111944323Y-41735012D01*
X111887828Y-41867461D01*
X111760000Y-41900231D01*
X111633695Y-41868120D01*
X111564616Y-41704846D01*
X111532505Y-41578540D01*
X111369231Y-41509461D01*
X111242925Y-41477351D01*
X111173846Y-41314077D01*
X111195970Y-41201301D01*
X111308960Y-41135077D01*
X111564616Y-41118692D01*
X111955385Y-41118692D01*
X111955385Y-41509461D01*
G37*
G36*
X112667844Y-41150803D02*
G01*
X112736923Y-41314077D01*
X112704813Y-41440382D01*
X112541539Y-41509461D01*
X112415233Y-41477351D01*
X112346154Y-41314077D01*
X112378265Y-41187771D01*
X112541539Y-41118692D01*
X112667844Y-41150803D01*
G37*
G36*
X122506154Y-35257154D02*
G01*
X121333846Y-35257154D01*
X121333846Y-34084846D01*
X122506154Y-34084846D01*
X122506154Y-35257154D01*
G37*
G36*
X112346154Y-35257154D02*
G01*
X111173846Y-35257154D01*
X111173846Y-34084846D01*
X112346154Y-34084846D01*
X112346154Y-35257154D01*
G37*
%TD*%
M02*
