%TF.GenerationSoftware,KiCad,Pcbnew,6.0.0*%
%TF.CreationDate,2022-01-29T03:06:04+03:00*%
%TF.ProjectId,pump,70756d70-2e6b-4696-9361-645f70636258,rev?*%
%TF.SameCoordinates,Original*%
%TF.FileFunction,Copper,L2,Bot*%
%TF.FilePolarity,Positive*%
%FSLAX46Y46*%
G04 Gerber Fmt 4.6, Leading zero omitted, Abs format (unit mm)*
G04 Created by KiCad (PCBNEW 6.0.0) date 2022-01-29 03:06:04*
%MOMM*%
%LPD*%
G01*
G04 APERTURE LIST*
G04 Aperture macros list*
%AMRoundRect*
0 Rectangle with rounded corners*
0 $1 Rounding radius*
0 $2 $3 $4 $5 $6 $7 $8 $9 X,Y pos of 4 corners*
0 Add a 4 corners polygon primitive as box body*
4,1,4,$2,$3,$4,$5,$6,$7,$8,$9,$2,$3,0*
0 Add four circle primitives for the rounded corners*
1,1,$1+$1,$2,$3*
1,1,$1+$1,$4,$5*
1,1,$1+$1,$6,$7*
1,1,$1+$1,$8,$9*
0 Add four rect primitives between the rounded corners*
20,1,$1+$1,$2,$3,$4,$5,0*
20,1,$1+$1,$4,$5,$6,$7,0*
20,1,$1+$1,$6,$7,$8,$9,0*
20,1,$1+$1,$8,$9,$2,$3,0*%
G04 Aperture macros list end*
%TA.AperFunction,ComponentPad*%
%ADD10R,1.778000X1.778000*%
%TD*%
%TA.AperFunction,ComponentPad*%
%ADD11RoundRect,0.889000X0.000000X0.000000X0.000000X0.000000X0.000000X0.000000X0.000000X0.000000X0*%
%TD*%
%TA.AperFunction,ComponentPad*%
%ADD12O,2.000000X4.000000*%
%TD*%
%TA.AperFunction,ComponentPad*%
%ADD13O,4.000000X2.000000*%
%TD*%
%TA.AperFunction,ComponentPad*%
%ADD14O,4.400000X2.200000*%
%TD*%
%TA.AperFunction,ComponentPad*%
%ADD15RoundRect,0.889000X0.000000X0.000000X0.000000X0.000000X0.000000X0.000000X0.000000X0.000000X0*%
%TD*%
%TA.AperFunction,ComponentPad*%
%ADD16R,1.650000X1.650000*%
%TD*%
%TA.AperFunction,ComponentPad*%
%ADD17C,1.650000*%
%TD*%
%TA.AperFunction,ComponentPad*%
%ADD18R,1.800000X1.800000*%
%TD*%
%TA.AperFunction,ComponentPad*%
%ADD19C,1.800000*%
%TD*%
%TA.AperFunction,ComponentPad*%
%ADD20RoundRect,0.889000X0.000000X0.000000X0.000000X0.000000X0.000000X0.000000X0.000000X0.000000X0*%
%TD*%
%TA.AperFunction,ComponentPad*%
%ADD21C,3.000000*%
%TD*%
%TA.AperFunction,ComponentPad*%
%ADD22C,1.100000*%
%TD*%
%TA.AperFunction,ComponentPad*%
%ADD23R,1.100000X1.100000*%
%TD*%
%TA.AperFunction,ViaPad*%
%ADD24C,0.800000*%
%TD*%
%TA.AperFunction,Conductor*%
%ADD25C,0.500000*%
%TD*%
%TA.AperFunction,Conductor*%
%ADD26C,1.000000*%
%TD*%
%TA.AperFunction,Conductor*%
%ADD27C,0.400000*%
%TD*%
G04 APERTURE END LIST*
D10*
%TO.P,J10,1,1*%
%TO.N,+12V*%
X106045000Y-78105000D03*
D11*
%TO.P,J10,2,2*%
%TO.N,Net-(TB1-Pad30)*%
X106045000Y-75565000D03*
%TD*%
D12*
%TO.P,J1,3*%
%TO.N,GND*%
X93725000Y-41100000D03*
D13*
%TO.P,J1,2*%
X98425000Y-38100000D03*
D14*
%TO.P,J1,1*%
%TO.N,+12V*%
X98425000Y-44100000D03*
%TD*%
D10*
%TO.P,R3,1*%
%TO.N,FAULT*%
X128270000Y-60960000D03*
D11*
%TO.P,R3,2*%
%TO.N,Net-(TB1-Pad8)*%
X128270000Y-58420000D03*
%TD*%
D10*
%TO.P,R2,1*%
%TO.N,Net-(D2-Pad2)*%
X102870000Y-58420000D03*
D15*
%TO.P,R2,2*%
%TO.N,/LED1*%
X105410000Y-58420000D03*
%TD*%
D10*
%TO.P,R1,1*%
%TO.N,Net-(D1-Pad2)*%
X102235000Y-61595000D03*
D15*
%TO.P,R1,2*%
%TO.N,/LED2*%
X104775000Y-61595000D03*
%TD*%
D10*
%TO.P,D2,1,K*%
%TO.N,GND*%
X97155000Y-58420000D03*
D15*
%TO.P,D2,2,A*%
%TO.N,Net-(D2-Pad2)*%
X99695000Y-58420000D03*
%TD*%
D10*
%TO.P,D1,1,K*%
%TO.N,GND*%
X97155000Y-61595000D03*
D15*
%TO.P,D1,2,A*%
%TO.N,Net-(D1-Pad2)*%
X99695000Y-61595000D03*
%TD*%
D16*
%TO.P,U2,1,~{EN}*%
%TO.N,unconnected-(U2-Pad1)*%
X100965000Y-88900000D03*
D17*
%TO.P,U2,2,M0*%
%TO.N,M0*%
X100965000Y-91440000D03*
%TO.P,U2,3,M1*%
%TO.N,M1*%
X100965000Y-93980000D03*
%TO.P,U2,4,M2*%
%TO.N,M2*%
X100965000Y-96520000D03*
%TO.P,U2,5,~{RST}*%
%TO.N,+5V*%
X100965000Y-99060000D03*
%TO.P,U2,6,~{SLP}*%
X100965000Y-101600000D03*
%TO.P,U2,7,STEP*%
%TO.N,STEP*%
X100965000Y-104140000D03*
%TO.P,U2,8,DIR*%
%TO.N,DIR*%
X100965000Y-106680000D03*
%TO.P,U2,9,GND*%
%TO.N,GND*%
X113665000Y-106680000D03*
%TO.P,U2,10,~{FLT}*%
%TO.N,FAULT*%
X113665000Y-104140000D03*
%TO.P,U2,11,A2*%
%TO.N,/A2*%
X113665000Y-101600000D03*
%TO.P,U2,12,A1*%
%TO.N,/A1*%
X113665000Y-99060000D03*
%TO.P,U2,13,B1*%
%TO.N,/B1*%
X113665000Y-96520000D03*
%TO.P,U2,14,B2*%
%TO.N,/B2*%
X113665000Y-93980000D03*
%TO.P,U2,15,GND_MOT*%
%TO.N,GND*%
X113665000Y-91440000D03*
%TO.P,U2,16,VMOT*%
%TO.N,+12V*%
X113665000Y-88900000D03*
%TD*%
D18*
%TO.P,TB1,1,D1/TX*%
%TO.N,Net-(J4-Pad4)*%
X124460000Y-73660000D03*
D19*
%TO.P,TB1,2,D0/RX*%
%TO.N,Net-(J4-Pad3)*%
X124460000Y-71120000D03*
%TO.P,TB1,3,RESET*%
%TO.N,unconnected-(TB1-Pad28)*%
X124460000Y-68580000D03*
%TO.P,TB1,4,COM/GND*%
%TO.N,GND*%
X124460000Y-66040000D03*
%TO.P,TB1,5,D2*%
%TO.N,Net-(J4-Pad2)*%
X124460000Y-63500000D03*
%TO.P,TB1,6,D3*%
%TO.N,Net-(J4-Pad1)*%
X124460000Y-60960000D03*
%TO.P,TB1,7,D4*%
%TO.N,DIR*%
X124460000Y-58420000D03*
%TO.P,TB1,8,D5*%
%TO.N,Net-(TB1-Pad8)*%
X124460000Y-55880000D03*
%TO.P,TB1,9,D6*%
%TO.N,M2*%
X124460000Y-53340000D03*
%TO.P,TB1,10,D7*%
%TO.N,M1*%
X124460000Y-50800000D03*
%TO.P,TB1,11,D8*%
%TO.N,M0*%
X124460000Y-48260000D03*
%TO.P,TB1,12,D9*%
%TO.N,STEP*%
X124460000Y-45720000D03*
%TO.P,TB1,13,D10*%
%TO.N,Net-(J6-Pad1)*%
X124460000Y-43180000D03*
%TO.P,TB1,14,D11/MOSI*%
%TO.N,Net-(J6-Pad2)*%
X124460000Y-40640000D03*
%TO.P,TB1,15,D12/MISO*%
%TO.N,Net-(J6-Pad3)*%
X124460000Y-38100000D03*
%TO.P,TB1,16,D13/SCK*%
%TO.N,Net-(J6-Pad4)*%
X109220000Y-38100000D03*
%TO.P,TB1,17,3V3*%
%TO.N,Net-(J5-Pad1)*%
X109220000Y-40640000D03*
%TO.P,TB1,18,AREF*%
%TO.N,unconnected-(TB1-Pad18)*%
X109220000Y-43180000D03*
%TO.P,TB1,19,A0*%
%TO.N,Net-(J2-Pad2)*%
X109220000Y-45720000D03*
%TO.P,TB1,20,A1*%
%TO.N,unconnected-(TB1-Pad20)*%
X109220000Y-48260000D03*
%TO.P,TB1,21,A2*%
%TO.N,Net-(J3-Pad4)*%
X109220000Y-50800000D03*
%TO.P,TB1,22,A3*%
%TO.N,Net-(J3-Pad3)*%
X109220000Y-53340000D03*
%TO.P,TB1,23,A4*%
%TO.N,Net-(J3-Pad2)*%
X109220000Y-55880000D03*
%TO.P,TB1,24,A5*%
%TO.N,unconnected-(TB1-Pad24)*%
X109220000Y-58420000D03*
%TO.P,TB1,25,A6*%
%TO.N,/LED1*%
X109220000Y-60960000D03*
%TO.P,TB1,26,A7*%
%TO.N,/LED2*%
X109220000Y-63500000D03*
%TO.P,TB1,27,+5V*%
%TO.N,+5V*%
X109220000Y-66040000D03*
%TO.P,TB1,28,RESET*%
%TO.N,unconnected-(TB1-Pad28)*%
X109220000Y-68580000D03*
%TO.P,TB1,29,COM/GND*%
%TO.N,GND*%
X109220000Y-71120000D03*
%TO.P,TB1,30,VIN*%
%TO.N,Net-(TB1-Pad30)*%
X109220000Y-73660000D03*
%TD*%
D10*
%TO.P,J9,1,1*%
%TO.N,/B2*%
X128270000Y-89535000D03*
D20*
%TO.P,J9,2,2*%
%TO.N,/B1*%
X128270000Y-92075000D03*
%TO.P,J9,3,3*%
%TO.N,/A1*%
X128270000Y-94615000D03*
%TO.P,J9,4,4*%
%TO.N,/A2*%
X128270000Y-97155000D03*
%TD*%
D21*
%TO.P,J8,1,12V*%
%TO.N,/A2*%
X121285000Y-101600000D03*
%TO.P,J8,2,GND*%
%TO.N,/A1*%
X121285000Y-96520000D03*
%TO.P,J8,3,GND*%
%TO.N,/B1*%
X121285000Y-91440000D03*
%TO.P,J8,4,5V*%
%TO.N,/B2*%
X121285000Y-86360000D03*
%TD*%
D10*
%TO.P,J7,1,1*%
%TO.N,GND*%
X104775000Y-64770000D03*
D20*
%TO.P,J7,2,2*%
%TO.N,+5V*%
X104775000Y-67310000D03*
%TD*%
D10*
%TO.P,J6,1,1*%
%TO.N,Net-(J6-Pad1)*%
X128905000Y-43180000D03*
D11*
%TO.P,J6,2,2*%
%TO.N,Net-(J6-Pad2)*%
X128905000Y-40640000D03*
%TO.P,J6,3,3*%
%TO.N,Net-(J6-Pad3)*%
X128905000Y-38100000D03*
%TO.P,J6,4,4*%
%TO.N,Net-(J6-Pad4)*%
X128905000Y-35560000D03*
%TD*%
D10*
%TO.P,J5,1,1*%
%TO.N,Net-(J5-Pad1)*%
X106045000Y-40640000D03*
D11*
%TO.P,J5,2,2*%
%TO.N,GND*%
X106045000Y-38100000D03*
%TD*%
D10*
%TO.P,J4,1,1*%
%TO.N,Net-(J4-Pad1)*%
X129792250Y-65914750D03*
D20*
%TO.P,J4,2,2*%
%TO.N,Net-(J4-Pad2)*%
X129792250Y-68454750D03*
%TO.P,J4,3,3*%
%TO.N,Net-(J4-Pad3)*%
X129792250Y-70994750D03*
%TO.P,J4,4,4*%
%TO.N,Net-(J4-Pad4)*%
X129792250Y-73534750D03*
%TD*%
D10*
%TO.P,J3,1,1*%
%TO.N,GND*%
X105157750Y-55245000D03*
D11*
%TO.P,J3,2,2*%
%TO.N,Net-(J3-Pad2)*%
X105157750Y-52705000D03*
%TO.P,J3,3,3*%
%TO.N,Net-(J3-Pad3)*%
X105157750Y-50165000D03*
%TO.P,J3,4,4*%
%TO.N,Net-(J3-Pad4)*%
X105157750Y-47625000D03*
%TD*%
D10*
%TO.P,J2,1,1*%
%TO.N,GND*%
X94232250Y-48260000D03*
D20*
%TO.P,J2,2,2*%
%TO.N,Net-(J2-Pad2)*%
X94232250Y-50800000D03*
%TO.P,J2,3,3*%
%TO.N,+5V*%
X94232250Y-53340000D03*
%TD*%
D22*
%TO.P,C5,+,+*%
%TO.N,+12V*%
X104795000Y-83185000D03*
D23*
%TO.P,C5,-,-*%
%TO.N,GND*%
X107295000Y-83185000D03*
%TD*%
D22*
%TO.P,C4,+,+*%
%TO.N,+5V*%
X97175000Y-83185000D03*
D23*
%TO.P,C4,-,-*%
%TO.N,GND*%
X99675000Y-83185000D03*
%TD*%
D22*
%TO.P,C2,+,+*%
%TO.N,+12V*%
X101580000Y-49530000D03*
D23*
%TO.P,C2,-,-*%
%TO.N,GND*%
X99080000Y-49530000D03*
%TD*%
D24*
%TO.N,GND*%
X103759000Y-79248000D03*
X98298000Y-80645000D03*
X104140000Y-85598000D03*
X99695000Y-85725000D03*
X98933000Y-64389000D03*
X102108000Y-64516000D03*
X102616000Y-71374000D03*
X102616000Y-73152000D03*
X102235000Y-74930000D03*
X110236000Y-76073000D03*
X112268000Y-78359000D03*
X109347000Y-78232000D03*
X110490000Y-80518000D03*
X108839000Y-80518000D03*
%TO.N,+5V*%
X101092000Y-69596000D03*
X100330000Y-67183000D03*
X99314000Y-71247000D03*
X99314000Y-69469000D03*
X97409000Y-69469000D03*
X97409000Y-71247000D03*
%TO.N,GND*%
X105156000Y-34036000D03*
X103886000Y-35814000D03*
X120523000Y-40894000D03*
X113538000Y-43434000D03*
X113538000Y-41021000D03*
X112395000Y-71247000D03*
X112395000Y-73025000D03*
X112395000Y-74676000D03*
X126238000Y-79248000D03*
X125603000Y-81280000D03*
X123317000Y-81280000D03*
X121158000Y-80645000D03*
X118618000Y-84582000D03*
X97663000Y-107061000D03*
X94107000Y-103251000D03*
X95123000Y-106299000D03*
X97155000Y-104267000D03*
X96647000Y-101473000D03*
X96520000Y-94615000D03*
X97663000Y-92075000D03*
X97028000Y-89281000D03*
X118999000Y-107061000D03*
X109347000Y-104648000D03*
X108712000Y-106807000D03*
X111379000Y-106553000D03*
X111252000Y-104521000D03*
X103759000Y-100838000D03*
X104140000Y-96393000D03*
X106553000Y-98806000D03*
X106426000Y-94869000D03*
X111379000Y-96139000D03*
X111379000Y-92964000D03*
X112395000Y-58674000D03*
X112395000Y-61341000D03*
X112395000Y-63246000D03*
X112395000Y-65151000D03*
%TO.N,FAULT*%
X127000000Y-76835000D03*
%TO.N,M0*%
X114300000Y-48260000D03*
%TO.N,M1*%
X115570000Y-51435000D03*
%TO.N,M2*%
X116840000Y-53975000D03*
%TO.N,STEP*%
X118110000Y-46355000D03*
%TO.N,GND*%
X93345000Y-80010000D03*
X93345000Y-78740000D03*
%TD*%
D25*
%TO.N,unconnected-(TB1-Pad28)*%
X109220000Y-68580000D02*
X124460000Y-68580000D01*
%TO.N,Net-(J5-Pad1)*%
X106045000Y-40640000D02*
X109220000Y-40640000D01*
%TO.N,Net-(TB1-Pad8)*%
X124460000Y-55880000D02*
X125730000Y-55880000D01*
X125730000Y-55880000D02*
X128270000Y-58420000D01*
%TO.N,Net-(J6-Pad1)*%
X128905000Y-43180000D02*
X124460000Y-43180000D01*
%TO.N,Net-(J6-Pad2)*%
X128905000Y-40640000D02*
X124460000Y-40640000D01*
%TO.N,Net-(J6-Pad3)*%
X128905000Y-38100000D02*
X124460000Y-38100000D01*
%TO.N,FAULT*%
X127000000Y-76835000D02*
X127000000Y-65405000D01*
X127000000Y-65405000D02*
X128270000Y-64135000D01*
X128270000Y-64135000D02*
X128270000Y-60960000D01*
%TO.N,Net-(J6-Pad4)*%
X109220000Y-38100000D02*
X118110000Y-38100000D01*
X118110000Y-38100000D02*
X120650000Y-35560000D01*
X120650000Y-35560000D02*
X128905000Y-35560000D01*
D26*
%TO.N,+12V*%
X104795000Y-83185000D02*
X95566489Y-73956489D01*
X95566489Y-73956489D02*
X95566489Y-55543511D01*
X95566489Y-55543511D02*
X101580000Y-49530000D01*
X113665000Y-88900000D02*
X110510000Y-88900000D01*
X110510000Y-88900000D02*
X104795000Y-83185000D01*
D25*
%TO.N,M0*%
X114300000Y-48260000D02*
X124460000Y-48260000D01*
%TO.N,M1*%
X115570000Y-51435000D02*
X116205000Y-50800000D01*
X116205000Y-50800000D02*
X124460000Y-50800000D01*
%TO.N,M2*%
X117475000Y-53340000D02*
X124460000Y-53340000D01*
X116840000Y-53975000D02*
X117475000Y-53340000D01*
D27*
%TO.N,STEP*%
X118110000Y-46355000D02*
X118745000Y-45720000D01*
X118745000Y-45720000D02*
X124460000Y-45720000D01*
D26*
%TO.N,+12V*%
X98425000Y-44100000D02*
X98425000Y-46375000D01*
X98425000Y-46375000D02*
X101580000Y-49530000D01*
%TD*%
%TA.AperFunction,Conductor*%
%TO.N,GND*%
G36*
X130264366Y-32260366D02*
G01*
X130275400Y-32262535D01*
X130284340Y-32261725D01*
X130284347Y-32261725D01*
X130284832Y-32261681D01*
X130314912Y-32262562D01*
X130415456Y-32277655D01*
X130442047Y-32284683D01*
X130555186Y-32328271D01*
X130579619Y-32340901D01*
X130680609Y-32408005D01*
X130701713Y-32425632D01*
X130785734Y-32513051D01*
X130802515Y-32534843D01*
X130865561Y-32638405D01*
X130877215Y-32663322D01*
X130916287Y-32778102D01*
X130922255Y-32804952D01*
X130932626Y-32899399D01*
X130932279Y-32915097D01*
X130933305Y-32915110D01*
X130933196Y-32924079D01*
X130931814Y-32932954D01*
X130935936Y-32964475D01*
X130937000Y-32980813D01*
X130937000Y-64400127D01*
X130916998Y-64468248D01*
X130863342Y-64514741D01*
X130793602Y-64524768D01*
X130791566Y-64524005D01*
X130729384Y-64517250D01*
X129120157Y-64517250D01*
X129052036Y-64497248D01*
X129005543Y-64443592D01*
X128995439Y-64373318D01*
X128996793Y-64365611D01*
X129009490Y-64304571D01*
X129010457Y-64300299D01*
X129026473Y-64234845D01*
X129027808Y-64229390D01*
X129028500Y-64218236D01*
X129028536Y-64218238D01*
X129028775Y-64214245D01*
X129029149Y-64210053D01*
X129030640Y-64202885D01*
X129028546Y-64125479D01*
X129028500Y-64122072D01*
X129028500Y-62483500D01*
X129048502Y-62415379D01*
X129102158Y-62368886D01*
X129154500Y-62357500D01*
X129207134Y-62357500D01*
X129269316Y-62350745D01*
X129405705Y-62299615D01*
X129522261Y-62212261D01*
X129609615Y-62095705D01*
X129660745Y-61959316D01*
X129667500Y-61897134D01*
X129667500Y-60022866D01*
X129660745Y-59960684D01*
X129609615Y-59824295D01*
X129522261Y-59707739D01*
X129405705Y-59620385D01*
X129329879Y-59591959D01*
X129273115Y-59549317D01*
X129248415Y-59482756D01*
X129263622Y-59413407D01*
X129277794Y-59392741D01*
X129414676Y-59230476D01*
X129417378Y-59225879D01*
X129417382Y-59225874D01*
X129519332Y-59052450D01*
X129534868Y-59026023D01*
X129618893Y-58804242D01*
X129664349Y-58571475D01*
X129667500Y-58513296D01*
X129667500Y-58326704D01*
X129664349Y-58268525D01*
X129662441Y-58258756D01*
X129619915Y-58040990D01*
X129619914Y-58040987D01*
X129618893Y-58035758D01*
X129534868Y-57813977D01*
X129477738Y-57716795D01*
X129417382Y-57614126D01*
X129417378Y-57614121D01*
X129414676Y-57609524D01*
X129370930Y-57557665D01*
X129272664Y-57441177D01*
X129261755Y-57428245D01*
X129180869Y-57360012D01*
X129084559Y-57278768D01*
X129084557Y-57278767D01*
X129080476Y-57275324D01*
X129075879Y-57272622D01*
X129075874Y-57272618D01*
X128973205Y-57212262D01*
X128876023Y-57155132D01*
X128654242Y-57071107D01*
X128649013Y-57070086D01*
X128649010Y-57070085D01*
X128425761Y-57026488D01*
X128421475Y-57025651D01*
X128413537Y-57025221D01*
X128364984Y-57022591D01*
X128364969Y-57022591D01*
X128363296Y-57022500D01*
X128176704Y-57022500D01*
X128175031Y-57022591D01*
X128175016Y-57022591D01*
X128126463Y-57025221D01*
X128118525Y-57025651D01*
X128041960Y-57040603D01*
X127971268Y-57034028D01*
X127928715Y-57006034D01*
X126313770Y-55391089D01*
X126301384Y-55376677D01*
X126292851Y-55365082D01*
X126292846Y-55365077D01*
X126288508Y-55359182D01*
X126282930Y-55354443D01*
X126282927Y-55354440D01*
X126248232Y-55324965D01*
X126240716Y-55318035D01*
X126235021Y-55312340D01*
X126228880Y-55307482D01*
X126212749Y-55294719D01*
X126209345Y-55291928D01*
X126159297Y-55249409D01*
X126159295Y-55249408D01*
X126153715Y-55244667D01*
X126147199Y-55241339D01*
X126142150Y-55237972D01*
X126137021Y-55234805D01*
X126131284Y-55230266D01*
X126065125Y-55199345D01*
X126061225Y-55197439D01*
X125996192Y-55164231D01*
X125989084Y-55162492D01*
X125983441Y-55160393D01*
X125977678Y-55158476D01*
X125971050Y-55155378D01*
X125942214Y-55149380D01*
X125899588Y-55140514D01*
X125895299Y-55139543D01*
X125892639Y-55138892D01*
X125824390Y-55122192D01*
X125818788Y-55121844D01*
X125818785Y-55121844D01*
X125813236Y-55121500D01*
X125813238Y-55121464D01*
X125809245Y-55121225D01*
X125805053Y-55120851D01*
X125797885Y-55119360D01*
X125731675Y-55121151D01*
X125720479Y-55121454D01*
X125717072Y-55121500D01*
X125715493Y-55121500D01*
X125647372Y-55101498D01*
X125609701Y-55063941D01*
X125608935Y-55062756D01*
X125579764Y-55017665D01*
X125423887Y-54846358D01*
X125419836Y-54843159D01*
X125419832Y-54843155D01*
X125247077Y-54706722D01*
X125206014Y-54648805D01*
X125202782Y-54577882D01*
X125238407Y-54516470D01*
X125252001Y-54505261D01*
X125255872Y-54502500D01*
X125372243Y-54419494D01*
X125536303Y-54256005D01*
X125671458Y-54067917D01*
X125718641Y-53972450D01*
X125771784Y-53864922D01*
X125771785Y-53864920D01*
X125774078Y-53860280D01*
X125841408Y-53638671D01*
X125871640Y-53409041D01*
X125873327Y-53340000D01*
X125861232Y-53192883D01*
X125854773Y-53114318D01*
X125854772Y-53114312D01*
X125854349Y-53109167D01*
X125817130Y-52960990D01*
X125799184Y-52889544D01*
X125799183Y-52889540D01*
X125797925Y-52884533D01*
X125787589Y-52860761D01*
X125707630Y-52676868D01*
X125707628Y-52676865D01*
X125705570Y-52672131D01*
X125579764Y-52477665D01*
X125423887Y-52306358D01*
X125419836Y-52303159D01*
X125419832Y-52303155D01*
X125247077Y-52166722D01*
X125206014Y-52108805D01*
X125202782Y-52037882D01*
X125238407Y-51976470D01*
X125252001Y-51965261D01*
X125255872Y-51962500D01*
X125372243Y-51879494D01*
X125536303Y-51716005D01*
X125671458Y-51527917D01*
X125689281Y-51491856D01*
X125771784Y-51324922D01*
X125771785Y-51324920D01*
X125774078Y-51320280D01*
X125841408Y-51098671D01*
X125871640Y-50869041D01*
X125873327Y-50800000D01*
X125861232Y-50652883D01*
X125854773Y-50574318D01*
X125854772Y-50574312D01*
X125854349Y-50569167D01*
X125818902Y-50428046D01*
X125799184Y-50349544D01*
X125799183Y-50349540D01*
X125797925Y-50344533D01*
X125786412Y-50318054D01*
X125707630Y-50136868D01*
X125707628Y-50136865D01*
X125705570Y-50132131D01*
X125579764Y-49937665D01*
X125423887Y-49766358D01*
X125419836Y-49763159D01*
X125419832Y-49763155D01*
X125247077Y-49626722D01*
X125206014Y-49568805D01*
X125202782Y-49497882D01*
X125238407Y-49436470D01*
X125252001Y-49425261D01*
X125255872Y-49422500D01*
X125372243Y-49339494D01*
X125536303Y-49176005D01*
X125671458Y-48987917D01*
X125689281Y-48951856D01*
X125771784Y-48784922D01*
X125771785Y-48784920D01*
X125774078Y-48780280D01*
X125841408Y-48558671D01*
X125871640Y-48329041D01*
X125873327Y-48260000D01*
X125857196Y-48063794D01*
X125854773Y-48034318D01*
X125854772Y-48034312D01*
X125854349Y-48029167D01*
X125819002Y-47888444D01*
X125799184Y-47809544D01*
X125799183Y-47809540D01*
X125797925Y-47804533D01*
X125787589Y-47780761D01*
X125707630Y-47596868D01*
X125707628Y-47596865D01*
X125705570Y-47592131D01*
X125579764Y-47397665D01*
X125572639Y-47389834D01*
X125508652Y-47319514D01*
X125423887Y-47226358D01*
X125419836Y-47223159D01*
X125419832Y-47223155D01*
X125247077Y-47086722D01*
X125206014Y-47028805D01*
X125202782Y-46957882D01*
X125238407Y-46896470D01*
X125252001Y-46885261D01*
X125257812Y-46881116D01*
X125372243Y-46799494D01*
X125536303Y-46636005D01*
X125671458Y-46447917D01*
X125681055Y-46428500D01*
X125771784Y-46244922D01*
X125771785Y-46244920D01*
X125774078Y-46240280D01*
X125841408Y-46018671D01*
X125871640Y-45789041D01*
X125873327Y-45720000D01*
X125858488Y-45539511D01*
X125854773Y-45494318D01*
X125854772Y-45494312D01*
X125854349Y-45489167D01*
X125797925Y-45264533D01*
X125786015Y-45237142D01*
X125707630Y-45056868D01*
X125707628Y-45056865D01*
X125705570Y-45052131D01*
X125579764Y-44857665D01*
X125560708Y-44836722D01*
X125530134Y-44803122D01*
X125423887Y-44686358D01*
X125419836Y-44683159D01*
X125419832Y-44683155D01*
X125247077Y-44546722D01*
X125206014Y-44488805D01*
X125202782Y-44417882D01*
X125238407Y-44356470D01*
X125252001Y-44345261D01*
X125255872Y-44342500D01*
X125372243Y-44259494D01*
X125536303Y-44096005D01*
X125611777Y-43990973D01*
X125667770Y-43947326D01*
X125714098Y-43938500D01*
X127381500Y-43938500D01*
X127449621Y-43958502D01*
X127496114Y-44012158D01*
X127507500Y-44064500D01*
X127507500Y-44117134D01*
X127514255Y-44179316D01*
X127565385Y-44315705D01*
X127652739Y-44432261D01*
X127769295Y-44519615D01*
X127905684Y-44570745D01*
X127967866Y-44577500D01*
X129842134Y-44577500D01*
X129904316Y-44570745D01*
X130040705Y-44519615D01*
X130157261Y-44432261D01*
X130244615Y-44315705D01*
X130295745Y-44179316D01*
X130302500Y-44117134D01*
X130302500Y-42242866D01*
X130295745Y-42180684D01*
X130244615Y-42044295D01*
X130157261Y-41927739D01*
X130040705Y-41840385D01*
X129964879Y-41811959D01*
X129908115Y-41769317D01*
X129883415Y-41702756D01*
X129898622Y-41633407D01*
X129912794Y-41612741D01*
X130049676Y-41450476D01*
X130052378Y-41445879D01*
X130052382Y-41445874D01*
X130154332Y-41272450D01*
X130169868Y-41246023D01*
X130253893Y-41024242D01*
X130299349Y-40791475D01*
X130302500Y-40733296D01*
X130302500Y-40546704D01*
X130299349Y-40488525D01*
X130297441Y-40478756D01*
X130254915Y-40260990D01*
X130254914Y-40260987D01*
X130253893Y-40255758D01*
X130169868Y-40033977D01*
X130112738Y-39936795D01*
X130052382Y-39834126D01*
X130052378Y-39834121D01*
X130049676Y-39829524D01*
X130044967Y-39823941D01*
X129900195Y-39652323D01*
X129896755Y-39648245D01*
X129796564Y-39563727D01*
X129719559Y-39498768D01*
X129719557Y-39498767D01*
X129715476Y-39495324D01*
X129687063Y-39478621D01*
X129638475Y-39426856D01*
X129625586Y-39357039D01*
X129652490Y-39291337D01*
X129687063Y-39261379D01*
X129698892Y-39254425D01*
X129715476Y-39244676D01*
X129770793Y-39198013D01*
X129892677Y-39095195D01*
X129896755Y-39091755D01*
X129966990Y-39008496D01*
X130046232Y-38914559D01*
X130046234Y-38914556D01*
X130049676Y-38910476D01*
X130052378Y-38905879D01*
X130052382Y-38905874D01*
X130116616Y-38796607D01*
X130169868Y-38706023D01*
X130253893Y-38484242D01*
X130275547Y-38373361D01*
X130298512Y-38255761D01*
X130299349Y-38251475D01*
X130302500Y-38193296D01*
X130302500Y-38006704D01*
X130299349Y-37948525D01*
X130278520Y-37841864D01*
X130254915Y-37720990D01*
X130254914Y-37720987D01*
X130253893Y-37715758D01*
X130169868Y-37493977D01*
X130089517Y-37357295D01*
X130052382Y-37294126D01*
X130052378Y-37294121D01*
X130049676Y-37289524D01*
X130044967Y-37283941D01*
X129900195Y-37112323D01*
X129896755Y-37108245D01*
X129715476Y-36955324D01*
X129687063Y-36938621D01*
X129638475Y-36886856D01*
X129625586Y-36817039D01*
X129652490Y-36751337D01*
X129687063Y-36721379D01*
X129715476Y-36704676D01*
X129728309Y-36693851D01*
X129892677Y-36555195D01*
X129896755Y-36551755D01*
X130049676Y-36370476D01*
X130052378Y-36365879D01*
X130052382Y-36365874D01*
X130112738Y-36263205D01*
X130169868Y-36166023D01*
X130253893Y-35944242D01*
X130299349Y-35711475D01*
X130302500Y-35653296D01*
X130302500Y-35466704D01*
X130299349Y-35408525D01*
X130253893Y-35175758D01*
X130169868Y-34953977D01*
X130089236Y-34816818D01*
X130052382Y-34754126D01*
X130052378Y-34754121D01*
X130049676Y-34749524D01*
X129896755Y-34568245D01*
X129715476Y-34415324D01*
X129710879Y-34412622D01*
X129710874Y-34412618D01*
X129608205Y-34352262D01*
X129511023Y-34295132D01*
X129289242Y-34211107D01*
X129284013Y-34210086D01*
X129284010Y-34210085D01*
X129060761Y-34166488D01*
X129056475Y-34165651D01*
X129048537Y-34165221D01*
X128999984Y-34162591D01*
X128999969Y-34162591D01*
X128998296Y-34162500D01*
X128811704Y-34162500D01*
X128810031Y-34162591D01*
X128810016Y-34162591D01*
X128761463Y-34165221D01*
X128753525Y-34165651D01*
X128749239Y-34166488D01*
X128525990Y-34210085D01*
X128525987Y-34210086D01*
X128520758Y-34211107D01*
X128298977Y-34295132D01*
X128201795Y-34352262D01*
X128099126Y-34412618D01*
X128099121Y-34412622D01*
X128094524Y-34415324D01*
X127913245Y-34568245D01*
X127760324Y-34749524D01*
X127760266Y-34749475D01*
X127706041Y-34792351D01*
X127658903Y-34801500D01*
X120717063Y-34801500D01*
X120698114Y-34800067D01*
X120697907Y-34800036D01*
X120676651Y-34796802D01*
X120669359Y-34797395D01*
X120669356Y-34797395D01*
X120623991Y-34801085D01*
X120613777Y-34801500D01*
X120605707Y-34801500D01*
X120602087Y-34801922D01*
X120602069Y-34801923D01*
X120577461Y-34804792D01*
X120573100Y-34805224D01*
X120547981Y-34807267D01*
X120507661Y-34810546D01*
X120507658Y-34810547D01*
X120500363Y-34811140D01*
X120493399Y-34813396D01*
X120487440Y-34814587D01*
X120481585Y-34815971D01*
X120474319Y-34816818D01*
X120405673Y-34841735D01*
X120401545Y-34843152D01*
X120339064Y-34863393D01*
X120339062Y-34863394D01*
X120332101Y-34865649D01*
X120325846Y-34869445D01*
X120320372Y-34871951D01*
X120314942Y-34874670D01*
X120308063Y-34877167D01*
X120247016Y-34917191D01*
X120243327Y-34919518D01*
X120223135Y-34931771D01*
X120185693Y-34954491D01*
X120185688Y-34954495D01*
X120180892Y-34957405D01*
X120172516Y-34964803D01*
X120172493Y-34964777D01*
X120169503Y-34967426D01*
X120166264Y-34970134D01*
X120160148Y-34974144D01*
X120155121Y-34979451D01*
X120155117Y-34979454D01*
X120106872Y-35030383D01*
X120104494Y-35032825D01*
X117832724Y-37304595D01*
X117770412Y-37338621D01*
X117743629Y-37341500D01*
X110475493Y-37341500D01*
X110407372Y-37321498D01*
X110369701Y-37283941D01*
X110342571Y-37242004D01*
X110339764Y-37237665D01*
X110335205Y-37232654D01*
X110226029Y-37112672D01*
X110183887Y-37066358D01*
X110179836Y-37063159D01*
X110179832Y-37063155D01*
X110006177Y-36926011D01*
X110006172Y-36926008D01*
X110002123Y-36922810D01*
X109997607Y-36920317D01*
X109997604Y-36920315D01*
X109803879Y-36813373D01*
X109803875Y-36813371D01*
X109799355Y-36810876D01*
X109794486Y-36809152D01*
X109794482Y-36809150D01*
X109585903Y-36735288D01*
X109585899Y-36735287D01*
X109581028Y-36733562D01*
X109575935Y-36732655D01*
X109575932Y-36732654D01*
X109358095Y-36693851D01*
X109358089Y-36693850D01*
X109353006Y-36692945D01*
X109280096Y-36692054D01*
X109126581Y-36690179D01*
X109126579Y-36690179D01*
X109121411Y-36690116D01*
X108892464Y-36725150D01*
X108672314Y-36797106D01*
X108667726Y-36799494D01*
X108667722Y-36799496D01*
X108499905Y-36886856D01*
X108466872Y-36904052D01*
X108462739Y-36907155D01*
X108462736Y-36907157D01*
X108285790Y-37040012D01*
X108281655Y-37043117D01*
X108121639Y-37210564D01*
X108118725Y-37214836D01*
X108118724Y-37214837D01*
X108067776Y-37289524D01*
X107991119Y-37401899D01*
X107893602Y-37611981D01*
X107831707Y-37835169D01*
X107807095Y-38065469D01*
X107820427Y-38296697D01*
X107821564Y-38301743D01*
X107821565Y-38301749D01*
X107837338Y-38371736D01*
X107871346Y-38522642D01*
X107873288Y-38527424D01*
X107873289Y-38527428D01*
X107944417Y-38702595D01*
X107958484Y-38737237D01*
X108079501Y-38934719D01*
X108231147Y-39109784D01*
X108349024Y-39207647D01*
X108396884Y-39247381D01*
X108409349Y-39257730D01*
X108413819Y-39260342D01*
X108417511Y-39262500D01*
X108466232Y-39314140D01*
X108479301Y-39383924D01*
X108452566Y-39449694D01*
X108429589Y-39472045D01*
X108413696Y-39483978D01*
X108347627Y-39533584D01*
X108281655Y-39583117D01*
X108121639Y-39750564D01*
X108103152Y-39777665D01*
X108069835Y-39826505D01*
X108014923Y-39871507D01*
X107965747Y-39881500D01*
X107568500Y-39881500D01*
X107500379Y-39861498D01*
X107453886Y-39807842D01*
X107442500Y-39755500D01*
X107442500Y-39702866D01*
X107435745Y-39640684D01*
X107384615Y-39504295D01*
X107297261Y-39387739D01*
X107180705Y-39300385D01*
X107104383Y-39271773D01*
X107047619Y-39229131D01*
X107022919Y-39162570D01*
X107038127Y-39093221D01*
X107052304Y-39072547D01*
X107185822Y-38914269D01*
X107191974Y-38905580D01*
X107306712Y-38710403D01*
X107311304Y-38700820D01*
X107391521Y-38489090D01*
X107394432Y-38478872D01*
X107415345Y-38371782D01*
X107414141Y-38358832D01*
X107399089Y-38354000D01*
X104689297Y-38354000D01*
X104676820Y-38357664D01*
X104674963Y-38373361D01*
X104695568Y-38478872D01*
X104698479Y-38489090D01*
X104778696Y-38700820D01*
X104783288Y-38710403D01*
X104898026Y-38905580D01*
X104904178Y-38914269D01*
X105037696Y-39072547D01*
X105066331Y-39137513D01*
X105055297Y-39207647D01*
X105008097Y-39260682D01*
X104985617Y-39271773D01*
X104909295Y-39300385D01*
X104792739Y-39387739D01*
X104705385Y-39504295D01*
X104654255Y-39640684D01*
X104647500Y-39702866D01*
X104647500Y-41577134D01*
X104654255Y-41639316D01*
X104705385Y-41775705D01*
X104792739Y-41892261D01*
X104909295Y-41979615D01*
X105045684Y-42030745D01*
X105101560Y-42036815D01*
X105104267Y-42037109D01*
X105107866Y-42037500D01*
X106982134Y-42037500D01*
X106985734Y-42037109D01*
X106988440Y-42036815D01*
X107044316Y-42030745D01*
X107180705Y-41979615D01*
X107297261Y-41892261D01*
X107384615Y-41775705D01*
X107435745Y-41639316D01*
X107442500Y-41577134D01*
X107442500Y-41524500D01*
X107462502Y-41456379D01*
X107516158Y-41409886D01*
X107568500Y-41398500D01*
X107962230Y-41398500D01*
X108030351Y-41418502D01*
X108069662Y-41458665D01*
X108076798Y-41470309D01*
X108076801Y-41470314D01*
X108079501Y-41474719D01*
X108231147Y-41649784D01*
X108409349Y-41797730D01*
X108413819Y-41800342D01*
X108417511Y-41802500D01*
X108466232Y-41854140D01*
X108479301Y-41923924D01*
X108452566Y-41989694D01*
X108429589Y-42012045D01*
X108375438Y-42052703D01*
X108281655Y-42123117D01*
X108121639Y-42290564D01*
X108118725Y-42294836D01*
X108118724Y-42294837D01*
X108103152Y-42317665D01*
X107991119Y-42481899D01*
X107893602Y-42691981D01*
X107831707Y-42915169D01*
X107807095Y-43145469D01*
X107807392Y-43150622D01*
X107807392Y-43150625D01*
X107814597Y-43275581D01*
X107820427Y-43376697D01*
X107821564Y-43381743D01*
X107821565Y-43381749D01*
X107851794Y-43515884D01*
X107871346Y-43602642D01*
X107873288Y-43607424D01*
X107873289Y-43607428D01*
X107956540Y-43812450D01*
X107958484Y-43817237D01*
X108079501Y-44014719D01*
X108231147Y-44189784D01*
X108409349Y-44337730D01*
X108413819Y-44340342D01*
X108417511Y-44342500D01*
X108466232Y-44394140D01*
X108479301Y-44463924D01*
X108452566Y-44529694D01*
X108429589Y-44552045D01*
X108281655Y-44663117D01*
X108121639Y-44830564D01*
X108118730Y-44834829D01*
X108118724Y-44834837D01*
X108103152Y-44857665D01*
X107991119Y-45021899D01*
X107893602Y-45231981D01*
X107831707Y-45455169D01*
X107807095Y-45685469D01*
X107807392Y-45690622D01*
X107807392Y-45690625D01*
X107815069Y-45823774D01*
X107820427Y-45916697D01*
X107821564Y-45921743D01*
X107821565Y-45921749D01*
X107853741Y-46064523D01*
X107871346Y-46142642D01*
X107873288Y-46147424D01*
X107873289Y-46147428D01*
X107940585Y-46313157D01*
X107958484Y-46357237D01*
X108033912Y-46480324D01*
X108065518Y-46531900D01*
X108079501Y-46554719D01*
X108231147Y-46729784D01*
X108328299Y-46810441D01*
X108393621Y-46864672D01*
X108409349Y-46877730D01*
X108413819Y-46880342D01*
X108417511Y-46882500D01*
X108466232Y-46934140D01*
X108479301Y-47003924D01*
X108452566Y-47069694D01*
X108429589Y-47092045D01*
X108281655Y-47203117D01*
X108121639Y-47370564D01*
X108118725Y-47374836D01*
X108118724Y-47374837D01*
X108051922Y-47472765D01*
X107991119Y-47561899D01*
X107893602Y-47771981D01*
X107831707Y-47995169D01*
X107807095Y-48225469D01*
X107807392Y-48230622D01*
X107807392Y-48230625D01*
X107813067Y-48329041D01*
X107820427Y-48456697D01*
X107821564Y-48461743D01*
X107821565Y-48461749D01*
X107852208Y-48597722D01*
X107871346Y-48682642D01*
X107873288Y-48687424D01*
X107873289Y-48687428D01*
X107950530Y-48877649D01*
X107958484Y-48897237D01*
X107961183Y-48901641D01*
X108076799Y-49090309D01*
X108079501Y-49094719D01*
X108231147Y-49269784D01*
X108409349Y-49417730D01*
X108413819Y-49420342D01*
X108417511Y-49422500D01*
X108466232Y-49474140D01*
X108479301Y-49543924D01*
X108452566Y-49609694D01*
X108429589Y-49632045D01*
X108290018Y-49736838D01*
X108281655Y-49743117D01*
X108121639Y-49910564D01*
X108118725Y-49914836D01*
X108118724Y-49914837D01*
X108067776Y-49989524D01*
X107991119Y-50101899D01*
X107893602Y-50311981D01*
X107831707Y-50535169D01*
X107807095Y-50765469D01*
X107807392Y-50770622D01*
X107807392Y-50770625D01*
X107814928Y-50901329D01*
X107820427Y-50996697D01*
X107821564Y-51001743D01*
X107821565Y-51001749D01*
X107853741Y-51144523D01*
X107871346Y-51222642D01*
X107873288Y-51227424D01*
X107873289Y-51227428D01*
X107945809Y-51406023D01*
X107958484Y-51437237D01*
X107961183Y-51441641D01*
X108076799Y-51630309D01*
X108079501Y-51634719D01*
X108231147Y-51809784D01*
X108328299Y-51890441D01*
X108396884Y-51947381D01*
X108409349Y-51957730D01*
X108413819Y-51960342D01*
X108417511Y-51962500D01*
X108466232Y-52014140D01*
X108479301Y-52083924D01*
X108452566Y-52149694D01*
X108429589Y-52172045D01*
X108281655Y-52283117D01*
X108121639Y-52450564D01*
X108118725Y-52454836D01*
X108118724Y-52454837D01*
X108067776Y-52529524D01*
X107991119Y-52641899D01*
X107893602Y-52851981D01*
X107831707Y-53075169D01*
X107807095Y-53305469D01*
X107807392Y-53310622D01*
X107807392Y-53310625D01*
X107814928Y-53441329D01*
X107820427Y-53536697D01*
X107821564Y-53541743D01*
X107821565Y-53541749D01*
X107852303Y-53678140D01*
X107871346Y-53762642D01*
X107873288Y-53767424D01*
X107873289Y-53767428D01*
X107945809Y-53946023D01*
X107958484Y-53977237D01*
X108045051Y-54118502D01*
X108076799Y-54170309D01*
X108079501Y-54174719D01*
X108231147Y-54349784D01*
X108409349Y-54497730D01*
X108413819Y-54500342D01*
X108417511Y-54502500D01*
X108466232Y-54554140D01*
X108479301Y-54623924D01*
X108452566Y-54689694D01*
X108429589Y-54712045D01*
X108281655Y-54823117D01*
X108121639Y-54990564D01*
X108118725Y-54994836D01*
X108118724Y-54994837D01*
X108072746Y-55062239D01*
X107991119Y-55181899D01*
X107893602Y-55391981D01*
X107831707Y-55615169D01*
X107807095Y-55845469D01*
X107807392Y-55850622D01*
X107807392Y-55850625D01*
X107820129Y-56071529D01*
X107820427Y-56076697D01*
X107821564Y-56081743D01*
X107821565Y-56081749D01*
X107853741Y-56224523D01*
X107871346Y-56302642D01*
X107873288Y-56307424D01*
X107873289Y-56307428D01*
X107956540Y-56512450D01*
X107958484Y-56517237D01*
X108079501Y-56714719D01*
X108231147Y-56889784D01*
X108367515Y-57002999D01*
X108393621Y-57024672D01*
X108409349Y-57037730D01*
X108413819Y-57040342D01*
X108417511Y-57042500D01*
X108466232Y-57094140D01*
X108479301Y-57163924D01*
X108452566Y-57229694D01*
X108429589Y-57252045D01*
X108375438Y-57292703D01*
X108281655Y-57363117D01*
X108121639Y-57530564D01*
X108118725Y-57534836D01*
X108118724Y-57534837D01*
X108103152Y-57557665D01*
X107991119Y-57721899D01*
X107893602Y-57931981D01*
X107831707Y-58155169D01*
X107807095Y-58385469D01*
X107807392Y-58390622D01*
X107807392Y-58390625D01*
X107813067Y-58489041D01*
X107820427Y-58616697D01*
X107821564Y-58621743D01*
X107821565Y-58621749D01*
X107853741Y-58764523D01*
X107871346Y-58842642D01*
X107873288Y-58847424D01*
X107873289Y-58847428D01*
X107945809Y-59026023D01*
X107958484Y-59057237D01*
X108079501Y-59254719D01*
X108231147Y-59429784D01*
X108409349Y-59577730D01*
X108413819Y-59580342D01*
X108417511Y-59582500D01*
X108466232Y-59634140D01*
X108479301Y-59703924D01*
X108452566Y-59769694D01*
X108429589Y-59792045D01*
X108375438Y-59832703D01*
X108281655Y-59903117D01*
X108121639Y-60070564D01*
X107991119Y-60261899D01*
X107893602Y-60471981D01*
X107831707Y-60695169D01*
X107807095Y-60925469D01*
X107807392Y-60930622D01*
X107807392Y-60930625D01*
X107813067Y-61029041D01*
X107820427Y-61156697D01*
X107821564Y-61161743D01*
X107821565Y-61161749D01*
X107853741Y-61304523D01*
X107871346Y-61382642D01*
X107873288Y-61387424D01*
X107873289Y-61387428D01*
X107956540Y-61592450D01*
X107958484Y-61597237D01*
X108079501Y-61794719D01*
X108231147Y-61969784D01*
X108409349Y-62117730D01*
X108413819Y-62120342D01*
X108417511Y-62122500D01*
X108466232Y-62174140D01*
X108479301Y-62243924D01*
X108452566Y-62309694D01*
X108429589Y-62332045D01*
X108297583Y-62431158D01*
X108281655Y-62443117D01*
X108278083Y-62446855D01*
X108133536Y-62598115D01*
X108121639Y-62610564D01*
X108118725Y-62614836D01*
X108118724Y-62614837D01*
X108103152Y-62637665D01*
X107991119Y-62801899D01*
X107893602Y-63011981D01*
X107831707Y-63235169D01*
X107807095Y-63465469D01*
X107807392Y-63470622D01*
X107807392Y-63470625D01*
X107813067Y-63569041D01*
X107820427Y-63696697D01*
X107821564Y-63701743D01*
X107821565Y-63701749D01*
X107848399Y-63820819D01*
X107871346Y-63922642D01*
X107873288Y-63927424D01*
X107873289Y-63927428D01*
X107956540Y-64132450D01*
X107958484Y-64137237D01*
X108079501Y-64334719D01*
X108231147Y-64509784D01*
X108409349Y-64657730D01*
X108413819Y-64660342D01*
X108417511Y-64662500D01*
X108466232Y-64714140D01*
X108479301Y-64783924D01*
X108452566Y-64849694D01*
X108429589Y-64872045D01*
X108291530Y-64975703D01*
X108281655Y-64983117D01*
X108121639Y-65150564D01*
X108118725Y-65154836D01*
X108118724Y-65154837D01*
X108103152Y-65177665D01*
X107991119Y-65341899D01*
X107893602Y-65551981D01*
X107831707Y-65775169D01*
X107807095Y-66005469D01*
X107807392Y-66010622D01*
X107807392Y-66010625D01*
X107820129Y-66231529D01*
X107820427Y-66236697D01*
X107821564Y-66241743D01*
X107821565Y-66241749D01*
X107853741Y-66384523D01*
X107871346Y-66462642D01*
X107873288Y-66467424D01*
X107873289Y-66467428D01*
X107956447Y-66672220D01*
X107958484Y-66677237D01*
X108079501Y-66874719D01*
X108231147Y-67049784D01*
X108409349Y-67197730D01*
X108413819Y-67200342D01*
X108417511Y-67202500D01*
X108466232Y-67254140D01*
X108479301Y-67323924D01*
X108452566Y-67389694D01*
X108429589Y-67412045D01*
X108281655Y-67523117D01*
X108121639Y-67690564D01*
X108118725Y-67694836D01*
X108118724Y-67694837D01*
X108045965Y-67801498D01*
X107991119Y-67881899D01*
X107893602Y-68091981D01*
X107831707Y-68315169D01*
X107807095Y-68545469D01*
X107807392Y-68550622D01*
X107807392Y-68550625D01*
X107816269Y-68704585D01*
X107820427Y-68776697D01*
X107821564Y-68781743D01*
X107821565Y-68781749D01*
X107853741Y-68924523D01*
X107871346Y-69002642D01*
X107873288Y-69007424D01*
X107873289Y-69007428D01*
X107956540Y-69212450D01*
X107958484Y-69217237D01*
X107987892Y-69265226D01*
X108076799Y-69410309D01*
X108079501Y-69414719D01*
X108231147Y-69589784D01*
X108409349Y-69737730D01*
X108413814Y-69740339D01*
X108417979Y-69742773D01*
X108466700Y-69794414D01*
X108479767Y-69864198D01*
X108453033Y-69929968D01*
X108436323Y-69946221D01*
X108425508Y-69960711D01*
X108432251Y-69973040D01*
X109207189Y-70747979D01*
X109221132Y-70755592D01*
X109222966Y-70755461D01*
X109229580Y-70751210D01*
X110008994Y-69971795D01*
X110016011Y-69958944D01*
X110008237Y-69948275D01*
X110006655Y-69947025D01*
X109965592Y-69889109D01*
X109962359Y-69818186D01*
X109997983Y-69756774D01*
X110011578Y-69745563D01*
X110040757Y-69724750D01*
X110132243Y-69659494D01*
X110296303Y-69496005D01*
X110371777Y-69390973D01*
X110427770Y-69347326D01*
X110474098Y-69338500D01*
X123202230Y-69338500D01*
X123270351Y-69358502D01*
X123309662Y-69398665D01*
X123316798Y-69410309D01*
X123316801Y-69410314D01*
X123319501Y-69414719D01*
X123471147Y-69589784D01*
X123649349Y-69737730D01*
X123653819Y-69740342D01*
X123657511Y-69742500D01*
X123706232Y-69794140D01*
X123719301Y-69863924D01*
X123692566Y-69929694D01*
X123669589Y-69952045D01*
X123596299Y-70007073D01*
X123521655Y-70063117D01*
X123518083Y-70066855D01*
X123409777Y-70180191D01*
X123361639Y-70230564D01*
X123358725Y-70234836D01*
X123358724Y-70234837D01*
X123343152Y-70257665D01*
X123231119Y-70421899D01*
X123133602Y-70631981D01*
X123071707Y-70855169D01*
X123047095Y-71085469D01*
X123047392Y-71090622D01*
X123047392Y-71090625D01*
X123060129Y-71311529D01*
X123060427Y-71316697D01*
X123061564Y-71321743D01*
X123061565Y-71321749D01*
X123089242Y-71444558D01*
X123111346Y-71542642D01*
X123113288Y-71547424D01*
X123113289Y-71547428D01*
X123173639Y-71696051D01*
X123198484Y-71757237D01*
X123319501Y-71954719D01*
X123347035Y-71986505D01*
X123431304Y-72083788D01*
X123460786Y-72148373D01*
X123450671Y-72218646D01*
X123404170Y-72272294D01*
X123380296Y-72284267D01*
X123324515Y-72305179D01*
X123313295Y-72309385D01*
X123196739Y-72396739D01*
X123109385Y-72513295D01*
X123058255Y-72649684D01*
X123051500Y-72711866D01*
X123051500Y-74608134D01*
X123058255Y-74670316D01*
X123109385Y-74806705D01*
X123196739Y-74923261D01*
X123313295Y-75010615D01*
X123449684Y-75061745D01*
X123511866Y-75068500D01*
X125408134Y-75068500D01*
X125470316Y-75061745D01*
X125606705Y-75010615D01*
X125723261Y-74923261D01*
X125810615Y-74806705D01*
X125861745Y-74670316D01*
X125868500Y-74608134D01*
X125868500Y-72711866D01*
X125861745Y-72649684D01*
X125810615Y-72513295D01*
X125723261Y-72396739D01*
X125606705Y-72309385D01*
X125598296Y-72306233D01*
X125598295Y-72306232D01*
X125539804Y-72284305D01*
X125483039Y-72241664D01*
X125458339Y-72175103D01*
X125473546Y-72105754D01*
X125495093Y-72077073D01*
X125532636Y-72039660D01*
X125532640Y-72039655D01*
X125536303Y-72036005D01*
X125671458Y-71847917D01*
X125673879Y-71843020D01*
X125771784Y-71644922D01*
X125771785Y-71644920D01*
X125774078Y-71640280D01*
X125841408Y-71418671D01*
X125871640Y-71189041D01*
X125872441Y-71156253D01*
X125873245Y-71123365D01*
X125873245Y-71123361D01*
X125873327Y-71120000D01*
X125866548Y-71037545D01*
X125854773Y-70894318D01*
X125854772Y-70894312D01*
X125854349Y-70889167D01*
X125820797Y-70755592D01*
X125799184Y-70669544D01*
X125799183Y-70669540D01*
X125797925Y-70664533D01*
X125786017Y-70637146D01*
X125707630Y-70456868D01*
X125707628Y-70456865D01*
X125705570Y-70452131D01*
X125579764Y-70257665D01*
X125423887Y-70086358D01*
X125419836Y-70083159D01*
X125419832Y-70083155D01*
X125247077Y-69946722D01*
X125206014Y-69888805D01*
X125202782Y-69817882D01*
X125238407Y-69756470D01*
X125252001Y-69745261D01*
X125255872Y-69742500D01*
X125372243Y-69659494D01*
X125536303Y-69496005D01*
X125671458Y-69307917D01*
X125692620Y-69265100D01*
X125771784Y-69104922D01*
X125771785Y-69104920D01*
X125774078Y-69100280D01*
X125841408Y-68878671D01*
X125871640Y-68649041D01*
X125871722Y-68645691D01*
X125873245Y-68583365D01*
X125873245Y-68583361D01*
X125873327Y-68580000D01*
X125863246Y-68457382D01*
X125854773Y-68354318D01*
X125854772Y-68354312D01*
X125854349Y-68349167D01*
X125797925Y-68124533D01*
X125794160Y-68115874D01*
X125707630Y-67916868D01*
X125707628Y-67916865D01*
X125705570Y-67912131D01*
X125579764Y-67717665D01*
X125423887Y-67546358D01*
X125419836Y-67543159D01*
X125419832Y-67543155D01*
X125246669Y-67406400D01*
X125205606Y-67348483D01*
X125202374Y-67277560D01*
X125237999Y-67216148D01*
X125243487Y-67211623D01*
X125253497Y-67198874D01*
X125246510Y-67185721D01*
X124472811Y-66412021D01*
X124458868Y-66404408D01*
X124457034Y-66404539D01*
X124450420Y-66408790D01*
X123670180Y-67189031D01*
X123663423Y-67201406D01*
X123682730Y-67227197D01*
X123682040Y-67227713D01*
X123706627Y-67253737D01*
X123719743Y-67323511D01*
X123693055Y-67389300D01*
X123670023Y-67411719D01*
X123609559Y-67457117D01*
X123521655Y-67523117D01*
X123361639Y-67690564D01*
X123343152Y-67717665D01*
X123309835Y-67766505D01*
X123254923Y-67811507D01*
X123205747Y-67821500D01*
X110475493Y-67821500D01*
X110407372Y-67801498D01*
X110369701Y-67763941D01*
X110342571Y-67722004D01*
X110339764Y-67717665D01*
X110183887Y-67546358D01*
X110179836Y-67543159D01*
X110179832Y-67543155D01*
X110007077Y-67406722D01*
X109966014Y-67348805D01*
X109962782Y-67277882D01*
X109998407Y-67216470D01*
X110012001Y-67205261D01*
X110017406Y-67201406D01*
X110132243Y-67119494D01*
X110296303Y-66956005D01*
X110431458Y-66767917D01*
X110433879Y-66763020D01*
X110531784Y-66564922D01*
X110531785Y-66564920D01*
X110534078Y-66560280D01*
X110601408Y-66338671D01*
X110631640Y-66109041D01*
X110631723Y-66105663D01*
X110633245Y-66043365D01*
X110633245Y-66043361D01*
X110633327Y-66040000D01*
X110630913Y-66010638D01*
X123047893Y-66010638D01*
X123060627Y-66231468D01*
X123062061Y-66241670D01*
X123110685Y-66457439D01*
X123113773Y-66467292D01*
X123196986Y-66672220D01*
X123201634Y-66681421D01*
X123290097Y-66825781D01*
X123300553Y-66835242D01*
X123309331Y-66831458D01*
X124087979Y-66052811D01*
X124094356Y-66041132D01*
X124824408Y-66041132D01*
X124824539Y-66042966D01*
X124828790Y-66049580D01*
X125606307Y-66827096D01*
X125618313Y-66833652D01*
X125630052Y-66824684D01*
X125668010Y-66771859D01*
X125673321Y-66763020D01*
X125771318Y-66564737D01*
X125775117Y-66555142D01*
X125839415Y-66343517D01*
X125841594Y-66333436D01*
X125870702Y-66112338D01*
X125871221Y-66105663D01*
X125872744Y-66043364D01*
X125872550Y-66036646D01*
X125854279Y-65814400D01*
X125852596Y-65804238D01*
X125798710Y-65589708D01*
X125795389Y-65579953D01*
X125707193Y-65377118D01*
X125702315Y-65368020D01*
X125629224Y-65255038D01*
X125618538Y-65245835D01*
X125608973Y-65250238D01*
X124832021Y-66027189D01*
X124824408Y-66041132D01*
X124094356Y-66041132D01*
X124095592Y-66038868D01*
X124095461Y-66037034D01*
X124091210Y-66030420D01*
X123313862Y-65253073D01*
X123302330Y-65246776D01*
X123290048Y-65256399D01*
X123234467Y-65337877D01*
X123229379Y-65346833D01*
X123136252Y-65547459D01*
X123132689Y-65557146D01*
X123073581Y-65770280D01*
X123071650Y-65780400D01*
X123048145Y-66000349D01*
X123047893Y-66010638D01*
X110630913Y-66010638D01*
X110626841Y-65961107D01*
X110614773Y-65814318D01*
X110614772Y-65814312D01*
X110614349Y-65809167D01*
X110580797Y-65675592D01*
X110559184Y-65589544D01*
X110559183Y-65589540D01*
X110557925Y-65584533D01*
X110555799Y-65579644D01*
X110467630Y-65376868D01*
X110467628Y-65376865D01*
X110465570Y-65372131D01*
X110339764Y-65177665D01*
X110327285Y-65163950D01*
X110253563Y-65082931D01*
X110183887Y-65006358D01*
X110179836Y-65003159D01*
X110179832Y-65003155D01*
X110007077Y-64866722D01*
X109966014Y-64808805D01*
X109962782Y-64737882D01*
X109998407Y-64676470D01*
X110012001Y-64665261D01*
X110015872Y-64662500D01*
X110132243Y-64579494D01*
X110296303Y-64416005D01*
X110431458Y-64227917D01*
X110438745Y-64213174D01*
X110531784Y-64024922D01*
X110531785Y-64024920D01*
X110534078Y-64020280D01*
X110601408Y-63798671D01*
X110631640Y-63569041D01*
X110631722Y-63565691D01*
X110633245Y-63503365D01*
X110633245Y-63503361D01*
X110633327Y-63500000D01*
X110623669Y-63382522D01*
X110614773Y-63274318D01*
X110614772Y-63274312D01*
X110614349Y-63269167D01*
X110557925Y-63044533D01*
X110555866Y-63039797D01*
X110467630Y-62836868D01*
X110467628Y-62836865D01*
X110465570Y-62832131D01*
X110339764Y-62637665D01*
X110334973Y-62632399D01*
X110243738Y-62532134D01*
X110183887Y-62466358D01*
X110179836Y-62463159D01*
X110179832Y-62463155D01*
X110007077Y-62326722D01*
X109966014Y-62268805D01*
X109962782Y-62197882D01*
X109998407Y-62136470D01*
X110012001Y-62125261D01*
X110015872Y-62122500D01*
X110132243Y-62039494D01*
X110296303Y-61876005D01*
X110431458Y-61687917D01*
X110478641Y-61592450D01*
X110531784Y-61484922D01*
X110531785Y-61484920D01*
X110534078Y-61480280D01*
X110601408Y-61258671D01*
X110631640Y-61029041D01*
X110633327Y-60960000D01*
X110619279Y-60789126D01*
X110614773Y-60734318D01*
X110614772Y-60734312D01*
X110614349Y-60729167D01*
X110581856Y-60599805D01*
X110559184Y-60509544D01*
X110559183Y-60509540D01*
X110557925Y-60504533D01*
X110555866Y-60499797D01*
X110467630Y-60296868D01*
X110467628Y-60296865D01*
X110465570Y-60292131D01*
X110339764Y-60097665D01*
X110318991Y-60074835D01*
X110290134Y-60043122D01*
X110183887Y-59926358D01*
X110179836Y-59923159D01*
X110179832Y-59923155D01*
X110007077Y-59786722D01*
X109966014Y-59728805D01*
X109962782Y-59657882D01*
X109998407Y-59596470D01*
X110012001Y-59585261D01*
X110018160Y-59580868D01*
X110132243Y-59499494D01*
X110296303Y-59336005D01*
X110431458Y-59147917D01*
X110478641Y-59052450D01*
X110531784Y-58944922D01*
X110531785Y-58944920D01*
X110534078Y-58940280D01*
X110601408Y-58718671D01*
X110631640Y-58489041D01*
X110633327Y-58420000D01*
X110621232Y-58272883D01*
X110614773Y-58194318D01*
X110614772Y-58194312D01*
X110614349Y-58189167D01*
X110577130Y-58040990D01*
X110559184Y-57969544D01*
X110559183Y-57969540D01*
X110557925Y-57964533D01*
X110555866Y-57959797D01*
X110467630Y-57756868D01*
X110467628Y-57756865D01*
X110465570Y-57752131D01*
X110339764Y-57557665D01*
X110183887Y-57386358D01*
X110179836Y-57383159D01*
X110179832Y-57383155D01*
X110007077Y-57246722D01*
X109966014Y-57188805D01*
X109962782Y-57117882D01*
X109998407Y-57056470D01*
X110012001Y-57045261D01*
X110017812Y-57041116D01*
X110132243Y-56959494D01*
X110296303Y-56796005D01*
X110431458Y-56607917D01*
X110445856Y-56578786D01*
X110531784Y-56404922D01*
X110531785Y-56404920D01*
X110534078Y-56400280D01*
X110601408Y-56178671D01*
X110631640Y-55949041D01*
X110633327Y-55880000D01*
X110627032Y-55803434D01*
X110614773Y-55654318D01*
X110614772Y-55654312D01*
X110614349Y-55649167D01*
X110577352Y-55501876D01*
X110559184Y-55429544D01*
X110559183Y-55429540D01*
X110557925Y-55424533D01*
X110555866Y-55419797D01*
X110467630Y-55216868D01*
X110467628Y-55216865D01*
X110465570Y-55212131D01*
X110339764Y-55017665D01*
X110183887Y-54846358D01*
X110179836Y-54843159D01*
X110179832Y-54843155D01*
X110007077Y-54706722D01*
X109966014Y-54648805D01*
X109962782Y-54577882D01*
X109998407Y-54516470D01*
X110012001Y-54505261D01*
X110015872Y-54502500D01*
X110132243Y-54419494D01*
X110296303Y-54256005D01*
X110431458Y-54067917D01*
X110478641Y-53972450D01*
X110531784Y-53864922D01*
X110531785Y-53864920D01*
X110534078Y-53860280D01*
X110601408Y-53638671D01*
X110631640Y-53409041D01*
X110633327Y-53340000D01*
X110621232Y-53192883D01*
X110614773Y-53114318D01*
X110614772Y-53114312D01*
X110614349Y-53109167D01*
X110577130Y-52960990D01*
X110559184Y-52889544D01*
X110559183Y-52889540D01*
X110557925Y-52884533D01*
X110547589Y-52860761D01*
X110467630Y-52676868D01*
X110467628Y-52676865D01*
X110465570Y-52672131D01*
X110339764Y-52477665D01*
X110183887Y-52306358D01*
X110179836Y-52303159D01*
X110179832Y-52303155D01*
X110007077Y-52166722D01*
X109966014Y-52108805D01*
X109962782Y-52037882D01*
X109998407Y-51976470D01*
X110012001Y-51965261D01*
X110015872Y-51962500D01*
X110132243Y-51879494D01*
X110296303Y-51716005D01*
X110431458Y-51527917D01*
X110449281Y-51491856D01*
X110531784Y-51324922D01*
X110531785Y-51324920D01*
X110534078Y-51320280D01*
X110601408Y-51098671D01*
X110631640Y-50869041D01*
X110633327Y-50800000D01*
X110621232Y-50652883D01*
X110614773Y-50574318D01*
X110614772Y-50574312D01*
X110614349Y-50569167D01*
X110578902Y-50428046D01*
X110559184Y-50349544D01*
X110559183Y-50349540D01*
X110557925Y-50344533D01*
X110546412Y-50318054D01*
X110467630Y-50136868D01*
X110467628Y-50136865D01*
X110465570Y-50132131D01*
X110339764Y-49937665D01*
X110183887Y-49766358D01*
X110179836Y-49763159D01*
X110179832Y-49763155D01*
X110007077Y-49626722D01*
X109966014Y-49568805D01*
X109962782Y-49497882D01*
X109998407Y-49436470D01*
X110012001Y-49425261D01*
X110015872Y-49422500D01*
X110132243Y-49339494D01*
X110296303Y-49176005D01*
X110431458Y-48987917D01*
X110449281Y-48951856D01*
X110531784Y-48784922D01*
X110531785Y-48784920D01*
X110534078Y-48780280D01*
X110601408Y-48558671D01*
X110631640Y-48329041D01*
X110633327Y-48260000D01*
X110617196Y-48063794D01*
X110614773Y-48034318D01*
X110614772Y-48034312D01*
X110614349Y-48029167D01*
X110579002Y-47888444D01*
X110559184Y-47809544D01*
X110559183Y-47809540D01*
X110557925Y-47804533D01*
X110547589Y-47780761D01*
X110467630Y-47596868D01*
X110467628Y-47596865D01*
X110465570Y-47592131D01*
X110339764Y-47397665D01*
X110332639Y-47389834D01*
X110268652Y-47319514D01*
X110183887Y-47226358D01*
X110179836Y-47223159D01*
X110179832Y-47223155D01*
X110007077Y-47086722D01*
X109966014Y-47028805D01*
X109962782Y-46957882D01*
X109998407Y-46896470D01*
X110012001Y-46885261D01*
X110017812Y-46881116D01*
X110132243Y-46799494D01*
X110296303Y-46636005D01*
X110431458Y-46447917D01*
X110441055Y-46428500D01*
X110531784Y-46244922D01*
X110531785Y-46244920D01*
X110534078Y-46240280D01*
X110601408Y-46018671D01*
X110631640Y-45789041D01*
X110633327Y-45720000D01*
X110618488Y-45539511D01*
X110614773Y-45494318D01*
X110614772Y-45494312D01*
X110614349Y-45489167D01*
X110557925Y-45264533D01*
X110546015Y-45237142D01*
X110467630Y-45056868D01*
X110467628Y-45056865D01*
X110465570Y-45052131D01*
X110339764Y-44857665D01*
X110320708Y-44836722D01*
X110290134Y-44803122D01*
X110183887Y-44686358D01*
X110179836Y-44683159D01*
X110179832Y-44683155D01*
X110007077Y-44546722D01*
X109966014Y-44488805D01*
X109962782Y-44417882D01*
X109998407Y-44356470D01*
X110012001Y-44345261D01*
X110015872Y-44342500D01*
X110132243Y-44259494D01*
X110296303Y-44096005D01*
X110431458Y-43907917D01*
X110458832Y-43852531D01*
X110531784Y-43704922D01*
X110531785Y-43704920D01*
X110534078Y-43700280D01*
X110601408Y-43478671D01*
X110631640Y-43249041D01*
X110633327Y-43180000D01*
X110615166Y-42959102D01*
X110614773Y-42954318D01*
X110614772Y-42954312D01*
X110614349Y-42949167D01*
X110557925Y-42724533D01*
X110555866Y-42719797D01*
X110467630Y-42516868D01*
X110467628Y-42516865D01*
X110465570Y-42512131D01*
X110339764Y-42317665D01*
X110319596Y-42295500D01*
X110290134Y-42263122D01*
X110183887Y-42146358D01*
X110179836Y-42143159D01*
X110179832Y-42143155D01*
X110007077Y-42006722D01*
X109966014Y-41948805D01*
X109962782Y-41877882D01*
X109998407Y-41816470D01*
X110012001Y-41805261D01*
X110018160Y-41800868D01*
X110132243Y-41719494D01*
X110296303Y-41556005D01*
X110431458Y-41367917D01*
X110436125Y-41358475D01*
X110531784Y-41164922D01*
X110531785Y-41164920D01*
X110534078Y-41160280D01*
X110601408Y-40938671D01*
X110631640Y-40709041D01*
X110633327Y-40640000D01*
X110621232Y-40492883D01*
X110614773Y-40414318D01*
X110614772Y-40414312D01*
X110614349Y-40409167D01*
X110577130Y-40260990D01*
X110559184Y-40189544D01*
X110559183Y-40189540D01*
X110557925Y-40184533D01*
X110555866Y-40179797D01*
X110467630Y-39976868D01*
X110467628Y-39976865D01*
X110465570Y-39972131D01*
X110339764Y-39777665D01*
X110319596Y-39755500D01*
X110290134Y-39723122D01*
X110183887Y-39606358D01*
X110179836Y-39603159D01*
X110179832Y-39603155D01*
X110007077Y-39466722D01*
X109966014Y-39408805D01*
X109962782Y-39337882D01*
X109998407Y-39276470D01*
X110012001Y-39265261D01*
X110015872Y-39262500D01*
X110132243Y-39179494D01*
X110296303Y-39016005D01*
X110371777Y-38910973D01*
X110427770Y-38867326D01*
X110474098Y-38858500D01*
X118042930Y-38858500D01*
X118061880Y-38859933D01*
X118076115Y-38862099D01*
X118076119Y-38862099D01*
X118083349Y-38863199D01*
X118090641Y-38862606D01*
X118090644Y-38862606D01*
X118136018Y-38858915D01*
X118146233Y-38858500D01*
X118154293Y-38858500D01*
X118167583Y-38856951D01*
X118182507Y-38855211D01*
X118186882Y-38854778D01*
X118252339Y-38849454D01*
X118252342Y-38849453D01*
X118259637Y-38848860D01*
X118266601Y-38846604D01*
X118272560Y-38845413D01*
X118278415Y-38844029D01*
X118285681Y-38843182D01*
X118354327Y-38818265D01*
X118358455Y-38816848D01*
X118420936Y-38796607D01*
X118420938Y-38796606D01*
X118427899Y-38794351D01*
X118434154Y-38790555D01*
X118439628Y-38788049D01*
X118445058Y-38785330D01*
X118451937Y-38782833D01*
X118512976Y-38742814D01*
X118516680Y-38740477D01*
X118579107Y-38702595D01*
X118587484Y-38695197D01*
X118587508Y-38695224D01*
X118590500Y-38692571D01*
X118593733Y-38689868D01*
X118599852Y-38685856D01*
X118653128Y-38629617D01*
X118655506Y-38627175D01*
X120927276Y-36355405D01*
X120989588Y-36321379D01*
X121016371Y-36318500D01*
X127658903Y-36318500D01*
X127727024Y-36338502D01*
X127760139Y-36370161D01*
X127760324Y-36370476D01*
X127913245Y-36551755D01*
X127917323Y-36555195D01*
X128081692Y-36693851D01*
X128094524Y-36704676D01*
X128122937Y-36721379D01*
X128171525Y-36773144D01*
X128184414Y-36842961D01*
X128157510Y-36908663D01*
X128122938Y-36938620D01*
X128094524Y-36955324D01*
X127913245Y-37108245D01*
X127760324Y-37289524D01*
X127760266Y-37289475D01*
X127706041Y-37332351D01*
X127658903Y-37341500D01*
X125715493Y-37341500D01*
X125647372Y-37321498D01*
X125609701Y-37283941D01*
X125582571Y-37242004D01*
X125579764Y-37237665D01*
X125575205Y-37232654D01*
X125466029Y-37112672D01*
X125423887Y-37066358D01*
X125419836Y-37063159D01*
X125419832Y-37063155D01*
X125246177Y-36926011D01*
X125246172Y-36926008D01*
X125242123Y-36922810D01*
X125237607Y-36920317D01*
X125237604Y-36920315D01*
X125043879Y-36813373D01*
X125043875Y-36813371D01*
X125039355Y-36810876D01*
X125034486Y-36809152D01*
X125034482Y-36809150D01*
X124825903Y-36735288D01*
X124825899Y-36735287D01*
X124821028Y-36733562D01*
X124815935Y-36732655D01*
X124815932Y-36732654D01*
X124598095Y-36693851D01*
X124598089Y-36693850D01*
X124593006Y-36692945D01*
X124520096Y-36692054D01*
X124366581Y-36690179D01*
X124366579Y-36690179D01*
X124361411Y-36690116D01*
X124132464Y-36725150D01*
X123912314Y-36797106D01*
X123907726Y-36799494D01*
X123907722Y-36799496D01*
X123739905Y-36886856D01*
X123706872Y-36904052D01*
X123702739Y-36907155D01*
X123702736Y-36907157D01*
X123525790Y-37040012D01*
X123521655Y-37043117D01*
X123361639Y-37210564D01*
X123358725Y-37214836D01*
X123358724Y-37214837D01*
X123307776Y-37289524D01*
X123231119Y-37401899D01*
X123133602Y-37611981D01*
X123071707Y-37835169D01*
X123047095Y-38065469D01*
X123060427Y-38296697D01*
X123061564Y-38301743D01*
X123061565Y-38301749D01*
X123077338Y-38371736D01*
X123111346Y-38522642D01*
X123113288Y-38527424D01*
X123113289Y-38527428D01*
X123184417Y-38702595D01*
X123198484Y-38737237D01*
X123319501Y-38934719D01*
X123471147Y-39109784D01*
X123589024Y-39207647D01*
X123636884Y-39247381D01*
X123649349Y-39257730D01*
X123653819Y-39260342D01*
X123657511Y-39262500D01*
X123706232Y-39314140D01*
X123719301Y-39383924D01*
X123692566Y-39449694D01*
X123669589Y-39472045D01*
X123653696Y-39483978D01*
X123587627Y-39533584D01*
X123521655Y-39583117D01*
X123361639Y-39750564D01*
X123358725Y-39754836D01*
X123358724Y-39754837D01*
X123307776Y-39829524D01*
X123231119Y-39941899D01*
X123133602Y-40151981D01*
X123071707Y-40375169D01*
X123047095Y-40605469D01*
X123047392Y-40610622D01*
X123047392Y-40610625D01*
X123053067Y-40709041D01*
X123060427Y-40836697D01*
X123061564Y-40841743D01*
X123061565Y-40841749D01*
X123093741Y-40984523D01*
X123111346Y-41062642D01*
X123113288Y-41067424D01*
X123113289Y-41067428D01*
X123185809Y-41246023D01*
X123198484Y-41277237D01*
X123251210Y-41363278D01*
X123316799Y-41470309D01*
X123319501Y-41474719D01*
X123471147Y-41649784D01*
X123649349Y-41797730D01*
X123653819Y-41800342D01*
X123657511Y-41802500D01*
X123706232Y-41854140D01*
X123719301Y-41923924D01*
X123692566Y-41989694D01*
X123669589Y-42012045D01*
X123615438Y-42052703D01*
X123521655Y-42123117D01*
X123361639Y-42290564D01*
X123358725Y-42294836D01*
X123358724Y-42294837D01*
X123343152Y-42317665D01*
X123231119Y-42481899D01*
X123133602Y-42691981D01*
X123071707Y-42915169D01*
X123047095Y-43145469D01*
X123047392Y-43150622D01*
X123047392Y-43150625D01*
X123054597Y-43275581D01*
X123060427Y-43376697D01*
X123061564Y-43381743D01*
X123061565Y-43381749D01*
X123091794Y-43515884D01*
X123111346Y-43602642D01*
X123113288Y-43607424D01*
X123113289Y-43607428D01*
X123196540Y-43812450D01*
X123198484Y-43817237D01*
X123319501Y-44014719D01*
X123471147Y-44189784D01*
X123649349Y-44337730D01*
X123653819Y-44340342D01*
X123657511Y-44342500D01*
X123706232Y-44394140D01*
X123719301Y-44463924D01*
X123692566Y-44529694D01*
X123669589Y-44552045D01*
X123521655Y-44663117D01*
X123361639Y-44830564D01*
X123275727Y-44956506D01*
X123220818Y-45001507D01*
X123171641Y-45011500D01*
X118773927Y-45011500D01*
X118765358Y-45011208D01*
X118715225Y-45007790D01*
X118715221Y-45007790D01*
X118707648Y-45007274D01*
X118644681Y-45018264D01*
X118638169Y-45019224D01*
X118574758Y-45026898D01*
X118567657Y-45029581D01*
X118565048Y-45030222D01*
X118548728Y-45034687D01*
X118546195Y-45035452D01*
X118538717Y-45036757D01*
X118480190Y-45062448D01*
X118474108Y-45064930D01*
X118453753Y-45072622D01*
X118421449Y-45084828D01*
X118421447Y-45084829D01*
X118414344Y-45087513D01*
X118408085Y-45091814D01*
X118405720Y-45093051D01*
X118390948Y-45101273D01*
X118388656Y-45102628D01*
X118381695Y-45105684D01*
X118375668Y-45110309D01*
X118375664Y-45110311D01*
X118330987Y-45144593D01*
X118325662Y-45148462D01*
X118273019Y-45184643D01*
X118267967Y-45190313D01*
X118267966Y-45190314D01*
X118231572Y-45231162D01*
X118226591Y-45236438D01*
X118043466Y-45419563D01*
X117980568Y-45453715D01*
X117927895Y-45464911D01*
X117827712Y-45486206D01*
X117821682Y-45488891D01*
X117821681Y-45488891D01*
X117659278Y-45561197D01*
X117659276Y-45561198D01*
X117653248Y-45563882D01*
X117498747Y-45676134D01*
X117494326Y-45681044D01*
X117494325Y-45681045D01*
X117394098Y-45792359D01*
X117370960Y-45818056D01*
X117275473Y-45983444D01*
X117216458Y-46165072D01*
X117215768Y-46171633D01*
X117215768Y-46171635D01*
X117204895Y-46275085D01*
X117196496Y-46355000D01*
X117197186Y-46361565D01*
X117210545Y-46488665D01*
X117216458Y-46544928D01*
X117275473Y-46726556D01*
X117370960Y-46891944D01*
X117375378Y-46896851D01*
X117375379Y-46896852D01*
X117485341Y-47018977D01*
X117498747Y-47033866D01*
X117653248Y-47146118D01*
X117659276Y-47148802D01*
X117659278Y-47148803D01*
X117774296Y-47200012D01*
X117827712Y-47223794D01*
X117945910Y-47248918D01*
X117961600Y-47252253D01*
X118024073Y-47285982D01*
X118058395Y-47348131D01*
X118053667Y-47418970D01*
X118011391Y-47476008D01*
X117944990Y-47501135D01*
X117935403Y-47501500D01*
X114842587Y-47501500D01*
X114768528Y-47477437D01*
X114762098Y-47472765D01*
X114762091Y-47472761D01*
X114756752Y-47468882D01*
X114750724Y-47466198D01*
X114750722Y-47466197D01*
X114588319Y-47393891D01*
X114588318Y-47393891D01*
X114582288Y-47391206D01*
X114485176Y-47370564D01*
X114401944Y-47352872D01*
X114401939Y-47352872D01*
X114395487Y-47351500D01*
X114204513Y-47351500D01*
X114198061Y-47352872D01*
X114198056Y-47352872D01*
X114114824Y-47370564D01*
X114017712Y-47391206D01*
X114011682Y-47393891D01*
X114011681Y-47393891D01*
X113849278Y-47466197D01*
X113849276Y-47466198D01*
X113843248Y-47468882D01*
X113837907Y-47472762D01*
X113837906Y-47472763D01*
X113812107Y-47491507D01*
X113688747Y-47581134D01*
X113560960Y-47723056D01*
X113465473Y-47888444D01*
X113406458Y-48070072D01*
X113386496Y-48260000D01*
X113406458Y-48449928D01*
X113465473Y-48631556D01*
X113560960Y-48796944D01*
X113565378Y-48801851D01*
X113565379Y-48801852D01*
X113619891Y-48862394D01*
X113688747Y-48938866D01*
X113736641Y-48973663D01*
X113837904Y-49047235D01*
X113843248Y-49051118D01*
X113849276Y-49053802D01*
X113849278Y-49053803D01*
X114008483Y-49124685D01*
X114017712Y-49128794D01*
X114111112Y-49148647D01*
X114198056Y-49167128D01*
X114198061Y-49167128D01*
X114204513Y-49168500D01*
X114395487Y-49168500D01*
X114401939Y-49167128D01*
X114401944Y-49167128D01*
X114488888Y-49148647D01*
X114582288Y-49128794D01*
X114591517Y-49124685D01*
X114750722Y-49053803D01*
X114750724Y-49053802D01*
X114756752Y-49051118D01*
X114762091Y-49047239D01*
X114762098Y-49047235D01*
X114768528Y-49042563D01*
X114842587Y-49018500D01*
X123202230Y-49018500D01*
X123270351Y-49038502D01*
X123309662Y-49078665D01*
X123316798Y-49090309D01*
X123316801Y-49090314D01*
X123319501Y-49094719D01*
X123471147Y-49269784D01*
X123649349Y-49417730D01*
X123653819Y-49420342D01*
X123657511Y-49422500D01*
X123706232Y-49474140D01*
X123719301Y-49543924D01*
X123692566Y-49609694D01*
X123669589Y-49632045D01*
X123530018Y-49736838D01*
X123521655Y-49743117D01*
X123361639Y-49910564D01*
X123343152Y-49937665D01*
X123309835Y-49986505D01*
X123254923Y-50031507D01*
X123205747Y-50041500D01*
X116272070Y-50041500D01*
X116253120Y-50040067D01*
X116238885Y-50037901D01*
X116238881Y-50037901D01*
X116231651Y-50036801D01*
X116224359Y-50037394D01*
X116224356Y-50037394D01*
X116178982Y-50041085D01*
X116168767Y-50041500D01*
X116160707Y-50041500D01*
X116157073Y-50041924D01*
X116157067Y-50041924D01*
X116144042Y-50043443D01*
X116132480Y-50044791D01*
X116128132Y-50045221D01*
X116106059Y-50047016D01*
X116062662Y-50050546D01*
X116062659Y-50050547D01*
X116055364Y-50051140D01*
X116048400Y-50053396D01*
X116042461Y-50054583D01*
X116036590Y-50055970D01*
X116029319Y-50056818D01*
X116022443Y-50059314D01*
X116022434Y-50059316D01*
X115960702Y-50081725D01*
X115956598Y-50083135D01*
X115887101Y-50105648D01*
X115880846Y-50109444D01*
X115875387Y-50111943D01*
X115869939Y-50114671D01*
X115863063Y-50117167D01*
X115802010Y-50157195D01*
X115798337Y-50159513D01*
X115735893Y-50197405D01*
X115727517Y-50204802D01*
X115727493Y-50204775D01*
X115724499Y-50207430D01*
X115721268Y-50210132D01*
X115715148Y-50214144D01*
X115710116Y-50219456D01*
X115661872Y-50270383D01*
X115659494Y-50272825D01*
X115413669Y-50518650D01*
X115350772Y-50552801D01*
X115294176Y-50564831D01*
X115294167Y-50564834D01*
X115287712Y-50566206D01*
X115281682Y-50568891D01*
X115281681Y-50568891D01*
X115119278Y-50641197D01*
X115119276Y-50641198D01*
X115113248Y-50643882D01*
X114958747Y-50756134D01*
X114954326Y-50761044D01*
X114954325Y-50761045D01*
X114854098Y-50872359D01*
X114830960Y-50898056D01*
X114735473Y-51063444D01*
X114676458Y-51245072D01*
X114675768Y-51251633D01*
X114675768Y-51251635D01*
X114667912Y-51326379D01*
X114656496Y-51435000D01*
X114657186Y-51441565D01*
X114669563Y-51559321D01*
X114676458Y-51624928D01*
X114735473Y-51806556D01*
X114830960Y-51971944D01*
X114835378Y-51976851D01*
X114835379Y-51976852D01*
X114868819Y-52013991D01*
X114958747Y-52113866D01*
X115113248Y-52226118D01*
X115119276Y-52228802D01*
X115119278Y-52228803D01*
X115234296Y-52280012D01*
X115287712Y-52303794D01*
X115367521Y-52320758D01*
X115468056Y-52342128D01*
X115468061Y-52342128D01*
X115474513Y-52343500D01*
X115665487Y-52343500D01*
X115671939Y-52342128D01*
X115671944Y-52342128D01*
X115772479Y-52320758D01*
X115852288Y-52303794D01*
X115905704Y-52280012D01*
X116020722Y-52228803D01*
X116020724Y-52228802D01*
X116026752Y-52226118D01*
X116181253Y-52113866D01*
X116271181Y-52013991D01*
X116304621Y-51976852D01*
X116304622Y-51976851D01*
X116309040Y-51971944D01*
X116404527Y-51806556D01*
X116456837Y-51645564D01*
X116496911Y-51586958D01*
X116562307Y-51559321D01*
X116576670Y-51558500D01*
X123202230Y-51558500D01*
X123270351Y-51578502D01*
X123309662Y-51618665D01*
X123316798Y-51630309D01*
X123316801Y-51630314D01*
X123319501Y-51634719D01*
X123471147Y-51809784D01*
X123568299Y-51890441D01*
X123636884Y-51947381D01*
X123649349Y-51957730D01*
X123653819Y-51960342D01*
X123657511Y-51962500D01*
X123706232Y-52014140D01*
X123719301Y-52083924D01*
X123692566Y-52149694D01*
X123669589Y-52172045D01*
X123521655Y-52283117D01*
X123361639Y-52450564D01*
X123343152Y-52477665D01*
X123309835Y-52526505D01*
X123254923Y-52571507D01*
X123205747Y-52581500D01*
X117542070Y-52581500D01*
X117523120Y-52580067D01*
X117508885Y-52577901D01*
X117508881Y-52577901D01*
X117501651Y-52576801D01*
X117494359Y-52577394D01*
X117494356Y-52577394D01*
X117448982Y-52581085D01*
X117438767Y-52581500D01*
X117430707Y-52581500D01*
X117427073Y-52581924D01*
X117427067Y-52581924D01*
X117414042Y-52583443D01*
X117402480Y-52584791D01*
X117398132Y-52585221D01*
X117376059Y-52587016D01*
X117332662Y-52590546D01*
X117332659Y-52590547D01*
X117325364Y-52591140D01*
X117318400Y-52593396D01*
X117312461Y-52594583D01*
X117306590Y-52595970D01*
X117299319Y-52596818D01*
X117292443Y-52599314D01*
X117292434Y-52599316D01*
X117230702Y-52621725D01*
X117226598Y-52623135D01*
X117157101Y-52645648D01*
X117150846Y-52649444D01*
X117145387Y-52651943D01*
X117139939Y-52654671D01*
X117133063Y-52657167D01*
X117072010Y-52697195D01*
X117068337Y-52699513D01*
X117005893Y-52737405D01*
X116997517Y-52744802D01*
X116997493Y-52744775D01*
X116994499Y-52747430D01*
X116991268Y-52750132D01*
X116985148Y-52754144D01*
X116980116Y-52759456D01*
X116931872Y-52810383D01*
X116929494Y-52812825D01*
X116683669Y-53058650D01*
X116620772Y-53092801D01*
X116564176Y-53104831D01*
X116564167Y-53104834D01*
X116557712Y-53106206D01*
X116551682Y-53108891D01*
X116551681Y-53108891D01*
X116389278Y-53181197D01*
X116389276Y-53181198D01*
X116383248Y-53183882D01*
X116228747Y-53296134D01*
X116224326Y-53301044D01*
X116224325Y-53301045D01*
X116124098Y-53412359D01*
X116100960Y-53438056D01*
X116005473Y-53603444D01*
X115946458Y-53785072D01*
X115945768Y-53791633D01*
X115945768Y-53791635D01*
X115933840Y-53905124D01*
X115926496Y-53975000D01*
X115927186Y-53981565D01*
X115939897Y-54102500D01*
X115946458Y-54164928D01*
X116005473Y-54346556D01*
X116100960Y-54511944D01*
X116228747Y-54653866D01*
X116301497Y-54706722D01*
X116369190Y-54755904D01*
X116383248Y-54766118D01*
X116389276Y-54768802D01*
X116389278Y-54768803D01*
X116503099Y-54819479D01*
X116557712Y-54843794D01*
X116642823Y-54861885D01*
X116738056Y-54882128D01*
X116738061Y-54882128D01*
X116744513Y-54883500D01*
X116935487Y-54883500D01*
X116941939Y-54882128D01*
X116941944Y-54882128D01*
X117037177Y-54861885D01*
X117122288Y-54843794D01*
X117176901Y-54819479D01*
X117290722Y-54768803D01*
X117290724Y-54768802D01*
X117296752Y-54766118D01*
X117310811Y-54755904D01*
X117378503Y-54706722D01*
X117451253Y-54653866D01*
X117579040Y-54511944D01*
X117674527Y-54346556D01*
X117726837Y-54185564D01*
X117766911Y-54126958D01*
X117832307Y-54099321D01*
X117846670Y-54098500D01*
X123202230Y-54098500D01*
X123270351Y-54118502D01*
X123309662Y-54158665D01*
X123316798Y-54170309D01*
X123316801Y-54170314D01*
X123319501Y-54174719D01*
X123471147Y-54349784D01*
X123649349Y-54497730D01*
X123653819Y-54500342D01*
X123657511Y-54502500D01*
X123706232Y-54554140D01*
X123719301Y-54623924D01*
X123692566Y-54689694D01*
X123669589Y-54712045D01*
X123521655Y-54823117D01*
X123361639Y-54990564D01*
X123358725Y-54994836D01*
X123358724Y-54994837D01*
X123312746Y-55062239D01*
X123231119Y-55181899D01*
X123133602Y-55391981D01*
X123071707Y-55615169D01*
X123047095Y-55845469D01*
X123047392Y-55850622D01*
X123047392Y-55850625D01*
X123060129Y-56071529D01*
X123060427Y-56076697D01*
X123061564Y-56081743D01*
X123061565Y-56081749D01*
X123093741Y-56224523D01*
X123111346Y-56302642D01*
X123113288Y-56307424D01*
X123113289Y-56307428D01*
X123196540Y-56512450D01*
X123198484Y-56517237D01*
X123319501Y-56714719D01*
X123471147Y-56889784D01*
X123607515Y-57002999D01*
X123633621Y-57024672D01*
X123649349Y-57037730D01*
X123653819Y-57040342D01*
X123657511Y-57042500D01*
X123706232Y-57094140D01*
X123719301Y-57163924D01*
X123692566Y-57229694D01*
X123669589Y-57252045D01*
X123615438Y-57292703D01*
X123521655Y-57363117D01*
X123361639Y-57530564D01*
X123358725Y-57534836D01*
X123358724Y-57534837D01*
X123343152Y-57557665D01*
X123231119Y-57721899D01*
X123133602Y-57931981D01*
X123071707Y-58155169D01*
X123047095Y-58385469D01*
X123047392Y-58390622D01*
X123047392Y-58390625D01*
X123053067Y-58489041D01*
X123060427Y-58616697D01*
X123061564Y-58621743D01*
X123061565Y-58621749D01*
X123093741Y-58764523D01*
X123111346Y-58842642D01*
X123113288Y-58847424D01*
X123113289Y-58847428D01*
X123185809Y-59026023D01*
X123198484Y-59057237D01*
X123319501Y-59254719D01*
X123471147Y-59429784D01*
X123649349Y-59577730D01*
X123653819Y-59580342D01*
X123657511Y-59582500D01*
X123706232Y-59634140D01*
X123719301Y-59703924D01*
X123692566Y-59769694D01*
X123669589Y-59792045D01*
X123615438Y-59832703D01*
X123521655Y-59903117D01*
X123361639Y-60070564D01*
X123231119Y-60261899D01*
X123133602Y-60471981D01*
X123071707Y-60695169D01*
X123047095Y-60925469D01*
X123047392Y-60930622D01*
X123047392Y-60930625D01*
X123053067Y-61029041D01*
X123060427Y-61156697D01*
X123061564Y-61161743D01*
X123061565Y-61161749D01*
X123093741Y-61304523D01*
X123111346Y-61382642D01*
X123113288Y-61387424D01*
X123113289Y-61387428D01*
X123196540Y-61592450D01*
X123198484Y-61597237D01*
X123319501Y-61794719D01*
X123471147Y-61969784D01*
X123649349Y-62117730D01*
X123653819Y-62120342D01*
X123657511Y-62122500D01*
X123706232Y-62174140D01*
X123719301Y-62243924D01*
X123692566Y-62309694D01*
X123669589Y-62332045D01*
X123537583Y-62431158D01*
X123521655Y-62443117D01*
X123518083Y-62446855D01*
X123373536Y-62598115D01*
X123361639Y-62610564D01*
X123358725Y-62614836D01*
X123358724Y-62614837D01*
X123343152Y-62637665D01*
X123231119Y-62801899D01*
X123133602Y-63011981D01*
X123071707Y-63235169D01*
X123047095Y-63465469D01*
X123047392Y-63470622D01*
X123047392Y-63470625D01*
X123053067Y-63569041D01*
X123060427Y-63696697D01*
X123061564Y-63701743D01*
X123061565Y-63701749D01*
X123088399Y-63820819D01*
X123111346Y-63922642D01*
X123113288Y-63927424D01*
X123113289Y-63927428D01*
X123196540Y-64132450D01*
X123198484Y-64137237D01*
X123319501Y-64334719D01*
X123471147Y-64509784D01*
X123649349Y-64657730D01*
X123653814Y-64660339D01*
X123657979Y-64662773D01*
X123706700Y-64714414D01*
X123719767Y-64784198D01*
X123693033Y-64849968D01*
X123676323Y-64866221D01*
X123665508Y-64880711D01*
X123672251Y-64893040D01*
X124447189Y-65667979D01*
X124461132Y-65675592D01*
X124462966Y-65675461D01*
X124469580Y-65671210D01*
X125248994Y-64891795D01*
X125256011Y-64878944D01*
X125248237Y-64868275D01*
X125246655Y-64867025D01*
X125205592Y-64809109D01*
X125202359Y-64738186D01*
X125237983Y-64676774D01*
X125251578Y-64665563D01*
X125267193Y-64654425D01*
X125372243Y-64579494D01*
X125536303Y-64416005D01*
X125671458Y-64227917D01*
X125678745Y-64213174D01*
X125771784Y-64024922D01*
X125771785Y-64024920D01*
X125774078Y-64020280D01*
X125841408Y-63798671D01*
X125871640Y-63569041D01*
X125871722Y-63565691D01*
X125873245Y-63503365D01*
X125873245Y-63503361D01*
X125873327Y-63500000D01*
X125863669Y-63382522D01*
X125854773Y-63274318D01*
X125854772Y-63274312D01*
X125854349Y-63269167D01*
X125797925Y-63044533D01*
X125795866Y-63039797D01*
X125707630Y-62836868D01*
X125707628Y-62836865D01*
X125705570Y-62832131D01*
X125579764Y-62637665D01*
X125574973Y-62632399D01*
X125483738Y-62532134D01*
X125423887Y-62466358D01*
X125419836Y-62463159D01*
X125419832Y-62463155D01*
X125247077Y-62326722D01*
X125206014Y-62268805D01*
X125202782Y-62197882D01*
X125238407Y-62136470D01*
X125252001Y-62125261D01*
X125255872Y-62122500D01*
X125372243Y-62039494D01*
X125536303Y-61876005D01*
X125671458Y-61687917D01*
X125718641Y-61592450D01*
X125771784Y-61484922D01*
X125771785Y-61484920D01*
X125774078Y-61480280D01*
X125841408Y-61258671D01*
X125871640Y-61029041D01*
X125873327Y-60960000D01*
X125859279Y-60789126D01*
X125854773Y-60734318D01*
X125854772Y-60734312D01*
X125854349Y-60729167D01*
X125821856Y-60599805D01*
X125799184Y-60509544D01*
X125799183Y-60509540D01*
X125797925Y-60504533D01*
X125795866Y-60499797D01*
X125707630Y-60296868D01*
X125707628Y-60296865D01*
X125705570Y-60292131D01*
X125579764Y-60097665D01*
X125558991Y-60074835D01*
X125530134Y-60043122D01*
X125423887Y-59926358D01*
X125419836Y-59923159D01*
X125419832Y-59923155D01*
X125247077Y-59786722D01*
X125206014Y-59728805D01*
X125202782Y-59657882D01*
X125238407Y-59596470D01*
X125252001Y-59585261D01*
X125258160Y-59580868D01*
X125372243Y-59499494D01*
X125536303Y-59336005D01*
X125671458Y-59147917D01*
X125718641Y-59052450D01*
X125771784Y-58944922D01*
X125771785Y-58944920D01*
X125774078Y-58940280D01*
X125841408Y-58718671D01*
X125871640Y-58489041D01*
X125873327Y-58420000D01*
X125861232Y-58272883D01*
X125854773Y-58194318D01*
X125854772Y-58194312D01*
X125854349Y-58189167D01*
X125817130Y-58040990D01*
X125799184Y-57969544D01*
X125799183Y-57969540D01*
X125797925Y-57964533D01*
X125795866Y-57959797D01*
X125707630Y-57756868D01*
X125707628Y-57756865D01*
X125705570Y-57752131D01*
X125579764Y-57557665D01*
X125423887Y-57386358D01*
X125419836Y-57383159D01*
X125419832Y-57383155D01*
X125247077Y-57246722D01*
X125206014Y-57188805D01*
X125202782Y-57117882D01*
X125238407Y-57056470D01*
X125252001Y-57045261D01*
X125257812Y-57041116D01*
X125372243Y-56959494D01*
X125375900Y-56955850D01*
X125375906Y-56955845D01*
X125465751Y-56866312D01*
X125528122Y-56832395D01*
X125598929Y-56837583D01*
X125643786Y-56866467D01*
X126856034Y-58078715D01*
X126890060Y-58141027D01*
X126890603Y-58191960D01*
X126875651Y-58268525D01*
X126872500Y-58326704D01*
X126872500Y-58513296D01*
X126875651Y-58571475D01*
X126921107Y-58804242D01*
X127005132Y-59026023D01*
X127020668Y-59052450D01*
X127122618Y-59225874D01*
X127122622Y-59225879D01*
X127125324Y-59230476D01*
X127262201Y-59392736D01*
X127290835Y-59457699D01*
X127279801Y-59527833D01*
X127232601Y-59580868D01*
X127210120Y-59591959D01*
X127134295Y-59620385D01*
X127017739Y-59707739D01*
X126930385Y-59824295D01*
X126879255Y-59960684D01*
X126872500Y-60022866D01*
X126872500Y-61897134D01*
X126879255Y-61959316D01*
X126930385Y-62095705D01*
X127017739Y-62212261D01*
X127134295Y-62299615D01*
X127270684Y-62350745D01*
X127332866Y-62357500D01*
X127385500Y-62357500D01*
X127453621Y-62377502D01*
X127500114Y-62431158D01*
X127511500Y-62483500D01*
X127511500Y-63768629D01*
X127491498Y-63836750D01*
X127474595Y-63857724D01*
X126511089Y-64821230D01*
X126496677Y-64833616D01*
X126485082Y-64842149D01*
X126485077Y-64842154D01*
X126479182Y-64846492D01*
X126474443Y-64852070D01*
X126474440Y-64852073D01*
X126444965Y-64886768D01*
X126438035Y-64894284D01*
X126432340Y-64899979D01*
X126430060Y-64902861D01*
X126414719Y-64922251D01*
X126411928Y-64925655D01*
X126369409Y-64975703D01*
X126364667Y-64981285D01*
X126361339Y-64987801D01*
X126357972Y-64992850D01*
X126354805Y-64997979D01*
X126350266Y-65003716D01*
X126319345Y-65069875D01*
X126317442Y-65073769D01*
X126284231Y-65138808D01*
X126282492Y-65145916D01*
X126280393Y-65151559D01*
X126278476Y-65157322D01*
X126275378Y-65163950D01*
X126273888Y-65171112D01*
X126273888Y-65171113D01*
X126260514Y-65235412D01*
X126259544Y-65239696D01*
X126242192Y-65310610D01*
X126241500Y-65321764D01*
X126241464Y-65321762D01*
X126241225Y-65325755D01*
X126240851Y-65329947D01*
X126239360Y-65337115D01*
X126239558Y-65344432D01*
X126241454Y-65414521D01*
X126241500Y-65417928D01*
X126241500Y-76298001D01*
X126224619Y-76361000D01*
X126165473Y-76463444D01*
X126106458Y-76645072D01*
X126105768Y-76651633D01*
X126105768Y-76651635D01*
X126099187Y-76714255D01*
X126086496Y-76835000D01*
X126087186Y-76841565D01*
X126101495Y-76977703D01*
X126106458Y-77024928D01*
X126165473Y-77206556D01*
X126260960Y-77371944D01*
X126388747Y-77513866D01*
X126543248Y-77626118D01*
X126549276Y-77628802D01*
X126549278Y-77628803D01*
X126711681Y-77701109D01*
X126717712Y-77703794D01*
X126811113Y-77723647D01*
X126898056Y-77742128D01*
X126898061Y-77742128D01*
X126904513Y-77743500D01*
X127095487Y-77743500D01*
X127101939Y-77742128D01*
X127101944Y-77742128D01*
X127188887Y-77723647D01*
X127282288Y-77703794D01*
X127288319Y-77701109D01*
X127450722Y-77628803D01*
X127450724Y-77628802D01*
X127456752Y-77626118D01*
X127611253Y-77513866D01*
X127739040Y-77371944D01*
X127834527Y-77206556D01*
X127893542Y-77024928D01*
X127898506Y-76977703D01*
X127912814Y-76841565D01*
X127913504Y-76835000D01*
X127900813Y-76714255D01*
X127894232Y-76651635D01*
X127894232Y-76651633D01*
X127893542Y-76645072D01*
X127834527Y-76463444D01*
X127775381Y-76361000D01*
X127758500Y-76298001D01*
X127758500Y-65771371D01*
X127778502Y-65703250D01*
X127795405Y-65682276D01*
X128179655Y-65298026D01*
X128241967Y-65264000D01*
X128312782Y-65269065D01*
X128369618Y-65311612D01*
X128394429Y-65378132D01*
X128394750Y-65387121D01*
X128394750Y-66851884D01*
X128401505Y-66914066D01*
X128452635Y-67050455D01*
X128539989Y-67167011D01*
X128656545Y-67254365D01*
X128664953Y-67257517D01*
X128732371Y-67282791D01*
X128789135Y-67325433D01*
X128813835Y-67391994D01*
X128798628Y-67461343D01*
X128784456Y-67482009D01*
X128647574Y-67644274D01*
X128644872Y-67648871D01*
X128644868Y-67648876D01*
X128601879Y-67722004D01*
X128527382Y-67848727D01*
X128443357Y-68070508D01*
X128442336Y-68075737D01*
X128442335Y-68075740D01*
X128431828Y-68129544D01*
X128397901Y-68303275D01*
X128394750Y-68361454D01*
X128394750Y-68548046D01*
X128394841Y-68549718D01*
X128394841Y-68549734D01*
X128396663Y-68583365D01*
X128397901Y-68606225D01*
X128398738Y-68610511D01*
X128431192Y-68776697D01*
X128443357Y-68838992D01*
X128527382Y-69060773D01*
X128550607Y-69100280D01*
X128644868Y-69260624D01*
X128644872Y-69260629D01*
X128647574Y-69265226D01*
X128651017Y-69269307D01*
X128651018Y-69269309D01*
X128753650Y-69390973D01*
X128800495Y-69446505D01*
X128981774Y-69599426D01*
X129010187Y-69616129D01*
X129058775Y-69667894D01*
X129071664Y-69737711D01*
X129044760Y-69803413D01*
X129010188Y-69833370D01*
X128981774Y-69850074D01*
X128977693Y-69853517D01*
X128977691Y-69853518D01*
X128894077Y-69924052D01*
X128800495Y-70002995D01*
X128647574Y-70184274D01*
X128644872Y-70188871D01*
X128644868Y-70188876D01*
X128601876Y-70262009D01*
X128527382Y-70388727D01*
X128443357Y-70610508D01*
X128442336Y-70615737D01*
X128442335Y-70615740D01*
X128431828Y-70669544D01*
X128397901Y-70843275D01*
X128397665Y-70847633D01*
X128396974Y-70860400D01*
X128394750Y-70901454D01*
X128394750Y-71088046D01*
X128394841Y-71089718D01*
X128394841Y-71089734D01*
X128396542Y-71121132D01*
X128397901Y-71146225D01*
X128398738Y-71150511D01*
X128431192Y-71316697D01*
X128443357Y-71378992D01*
X128527382Y-71600773D01*
X128550607Y-71640280D01*
X128644868Y-71800624D01*
X128644872Y-71800629D01*
X128647574Y-71805226D01*
X128651017Y-71809307D01*
X128651018Y-71809309D01*
X128731473Y-71904684D01*
X128800495Y-71986505D01*
X128981774Y-72139426D01*
X129010187Y-72156129D01*
X129058775Y-72207894D01*
X129071664Y-72277711D01*
X129044760Y-72343413D01*
X129010188Y-72373370D01*
X128981774Y-72390074D01*
X128977693Y-72393517D01*
X128977691Y-72393518D01*
X128936242Y-72428483D01*
X128800495Y-72542995D01*
X128797055Y-72547073D01*
X128655159Y-72715283D01*
X128647574Y-72724274D01*
X128644872Y-72728871D01*
X128644868Y-72728876D01*
X128601876Y-72802009D01*
X128527382Y-72928727D01*
X128443357Y-73150508D01*
X128442336Y-73155737D01*
X128442335Y-73155740D01*
X128431828Y-73209544D01*
X128397901Y-73383275D01*
X128394750Y-73441454D01*
X128394750Y-73628046D01*
X128394841Y-73629718D01*
X128394841Y-73629734D01*
X128396663Y-73663365D01*
X128397901Y-73686225D01*
X128398738Y-73690511D01*
X128438603Y-73894646D01*
X128443357Y-73918992D01*
X128527382Y-74140773D01*
X128550607Y-74180280D01*
X128644868Y-74340624D01*
X128644872Y-74340629D01*
X128647574Y-74345226D01*
X128651017Y-74349307D01*
X128651018Y-74349309D01*
X128769341Y-74489574D01*
X128800495Y-74526505D01*
X128804573Y-74529945D01*
X128975911Y-74674480D01*
X128981774Y-74679426D01*
X128986371Y-74682128D01*
X128986376Y-74682132D01*
X129077754Y-74735850D01*
X129186227Y-74799618D01*
X129408008Y-74883643D01*
X129413237Y-74884664D01*
X129413240Y-74884665D01*
X129610880Y-74923261D01*
X129640775Y-74929099D01*
X129648713Y-74929529D01*
X129697266Y-74932159D01*
X129697282Y-74932159D01*
X129698954Y-74932250D01*
X129885546Y-74932250D01*
X129887218Y-74932159D01*
X129887234Y-74932159D01*
X129935787Y-74929529D01*
X129943725Y-74929099D01*
X129973620Y-74923261D01*
X130171260Y-74884665D01*
X130171263Y-74884664D01*
X130176492Y-74883643D01*
X130398273Y-74799618D01*
X130506746Y-74735850D01*
X130598124Y-74682132D01*
X130598129Y-74682128D01*
X130602726Y-74679426D01*
X130608590Y-74674480D01*
X130729757Y-74572267D01*
X130794723Y-74543632D01*
X130864856Y-74554666D01*
X130917891Y-74601866D01*
X130937000Y-74668576D01*
X130937000Y-110547848D01*
X130935560Y-110561089D01*
X130935795Y-110561107D01*
X130935128Y-110570058D01*
X130933197Y-110578827D01*
X130934191Y-110593458D01*
X130933289Y-110619285D01*
X130919251Y-110720625D01*
X130910586Y-110783172D01*
X130906570Y-110801733D01*
X130852471Y-110984008D01*
X130845711Y-111001754D01*
X130764833Y-111173829D01*
X130755483Y-111190357D01*
X130649669Y-111348315D01*
X130637942Y-111363251D01*
X130509580Y-111503525D01*
X130495745Y-111516525D01*
X130347762Y-111635912D01*
X130332129Y-111646687D01*
X130167890Y-111742476D01*
X130150816Y-111750778D01*
X129974037Y-111820801D01*
X129955907Y-111826443D01*
X129770624Y-111869099D01*
X129751852Y-111871953D01*
X129665825Y-111878455D01*
X129593909Y-111883890D01*
X129576883Y-111883216D01*
X129576882Y-111883305D01*
X129567905Y-111883195D01*
X129559034Y-111881814D01*
X129550132Y-111882978D01*
X129550129Y-111882978D01*
X129527513Y-111885936D01*
X129511175Y-111887000D01*
X93922152Y-111887000D01*
X93908911Y-111885560D01*
X93908893Y-111885795D01*
X93899942Y-111885128D01*
X93891173Y-111883197D01*
X93876538Y-111884191D01*
X93850715Y-111883289D01*
X93686825Y-111860585D01*
X93668269Y-111856570D01*
X93485991Y-111802470D01*
X93468246Y-111795711D01*
X93296171Y-111714833D01*
X93279643Y-111705483D01*
X93121685Y-111599669D01*
X93106749Y-111587942D01*
X92966641Y-111459733D01*
X92966475Y-111459580D01*
X92953475Y-111445745D01*
X92834088Y-111297762D01*
X92823312Y-111282127D01*
X92727524Y-111117890D01*
X92719222Y-111100816D01*
X92676569Y-110993135D01*
X92649199Y-110924037D01*
X92643557Y-110905908D01*
X92600899Y-110720619D01*
X92598046Y-110701851D01*
X92596161Y-110676899D01*
X92586381Y-110547494D01*
X92587408Y-110525002D01*
X92586828Y-110524950D01*
X92587262Y-110520110D01*
X92588071Y-110515303D01*
X92588224Y-110502764D01*
X92584273Y-110475176D01*
X92583000Y-110457313D01*
X92583000Y-106680000D01*
X99626406Y-106680000D01*
X99646742Y-106912444D01*
X99707133Y-107137826D01*
X99709455Y-107142806D01*
X99709456Y-107142808D01*
X99803418Y-107344310D01*
X99803421Y-107344315D01*
X99805744Y-107349297D01*
X99939578Y-107540432D01*
X100104568Y-107705422D01*
X100109076Y-107708579D01*
X100109079Y-107708581D01*
X100291194Y-107836099D01*
X100295703Y-107839256D01*
X100300685Y-107841579D01*
X100300690Y-107841582D01*
X100501180Y-107935072D01*
X100507174Y-107937867D01*
X100512482Y-107939289D01*
X100512484Y-107939290D01*
X100727241Y-107996834D01*
X100727243Y-107996834D01*
X100732556Y-107998258D01*
X100965000Y-108018594D01*
X101197444Y-107998258D01*
X101202757Y-107996834D01*
X101202759Y-107996834D01*
X101417516Y-107939290D01*
X101417518Y-107939289D01*
X101422826Y-107937867D01*
X101428820Y-107935072D01*
X101629310Y-107841582D01*
X101629315Y-107841579D01*
X101634297Y-107839256D01*
X101638806Y-107836099D01*
X101713193Y-107784013D01*
X112925542Y-107784013D01*
X112934838Y-107796028D01*
X112991446Y-107835665D01*
X113000941Y-107841148D01*
X113202364Y-107935072D01*
X113212656Y-107938818D01*
X113427328Y-107996339D01*
X113438123Y-107998242D01*
X113659525Y-108017613D01*
X113670475Y-108017613D01*
X113891877Y-107998242D01*
X113902672Y-107996339D01*
X114117344Y-107938818D01*
X114127636Y-107935072D01*
X114329059Y-107841148D01*
X114338554Y-107835665D01*
X114396000Y-107795441D01*
X114404375Y-107784964D01*
X114397307Y-107771517D01*
X113677812Y-107052022D01*
X113663868Y-107044408D01*
X113662035Y-107044539D01*
X113655420Y-107048790D01*
X112931972Y-107772238D01*
X112925542Y-107784013D01*
X101713193Y-107784013D01*
X101820921Y-107708581D01*
X101820924Y-107708579D01*
X101825432Y-107705422D01*
X101990422Y-107540432D01*
X102124256Y-107349297D01*
X102126579Y-107344315D01*
X102126582Y-107344310D01*
X102220544Y-107142808D01*
X102220545Y-107142806D01*
X102222867Y-107137826D01*
X102283258Y-106912444D01*
X102303115Y-106685475D01*
X112327387Y-106685475D01*
X112346758Y-106906877D01*
X112348661Y-106917672D01*
X112406182Y-107132344D01*
X112409928Y-107142636D01*
X112503852Y-107344059D01*
X112509335Y-107353554D01*
X112549559Y-107411000D01*
X112560036Y-107419375D01*
X112573483Y-107412307D01*
X113292978Y-106692812D01*
X113299356Y-106681132D01*
X114029408Y-106681132D01*
X114029539Y-106682965D01*
X114033790Y-106689580D01*
X114757238Y-107413028D01*
X114769013Y-107419458D01*
X114781028Y-107410162D01*
X114820665Y-107353554D01*
X114826148Y-107344059D01*
X114920072Y-107142636D01*
X114923818Y-107132344D01*
X114981339Y-106917672D01*
X114983242Y-106906877D01*
X115002613Y-106685475D01*
X115002613Y-106674525D01*
X114983242Y-106453123D01*
X114981339Y-106442328D01*
X114923818Y-106227656D01*
X114920072Y-106217364D01*
X114826148Y-106015941D01*
X114820665Y-106006446D01*
X114780441Y-105949000D01*
X114769964Y-105940625D01*
X114756517Y-105947693D01*
X114037022Y-106667188D01*
X114029408Y-106681132D01*
X113299356Y-106681132D01*
X113300592Y-106678868D01*
X113300461Y-106677035D01*
X113296210Y-106670420D01*
X112572762Y-105946972D01*
X112560987Y-105940542D01*
X112548972Y-105949838D01*
X112509335Y-106006446D01*
X112503852Y-106015941D01*
X112409928Y-106217364D01*
X112406182Y-106227656D01*
X112348661Y-106442328D01*
X112346758Y-106453123D01*
X112327387Y-106674525D01*
X112327387Y-106685475D01*
X102303115Y-106685475D01*
X102303594Y-106680000D01*
X102283258Y-106447556D01*
X102222867Y-106222174D01*
X102126699Y-106015941D01*
X102126582Y-106015690D01*
X102126579Y-106015685D01*
X102124256Y-106010703D01*
X101990422Y-105819568D01*
X101825432Y-105654578D01*
X101820924Y-105651421D01*
X101820921Y-105651419D01*
X101638801Y-105523898D01*
X101634297Y-105520744D01*
X101630293Y-105518877D01*
X101581531Y-105467736D01*
X101568095Y-105398023D01*
X101594482Y-105332112D01*
X101630188Y-105301172D01*
X101634297Y-105299256D01*
X101715772Y-105242207D01*
X101820921Y-105168581D01*
X101820924Y-105168579D01*
X101825432Y-105165422D01*
X101990422Y-105000432D01*
X102124256Y-104809297D01*
X102126579Y-104804315D01*
X102126582Y-104804310D01*
X102220544Y-104602808D01*
X102220545Y-104602806D01*
X102222867Y-104597826D01*
X102283258Y-104372444D01*
X102303594Y-104140000D01*
X112326406Y-104140000D01*
X112346742Y-104372444D01*
X112407133Y-104597826D01*
X112409455Y-104602806D01*
X112409456Y-104602808D01*
X112503418Y-104804310D01*
X112503421Y-104804315D01*
X112505744Y-104809297D01*
X112639578Y-105000432D01*
X112804568Y-105165422D01*
X112809076Y-105168579D01*
X112809079Y-105168581D01*
X112889179Y-105224667D01*
X112995703Y-105299256D01*
X113000113Y-105301312D01*
X113048970Y-105352551D01*
X113062407Y-105422265D01*
X113036021Y-105488176D01*
X112999981Y-105519406D01*
X112991449Y-105524332D01*
X112934000Y-105564559D01*
X112925625Y-105575036D01*
X112932693Y-105588483D01*
X113652188Y-106307978D01*
X113666132Y-106315592D01*
X113667965Y-106315461D01*
X113674580Y-106311210D01*
X114398028Y-105587762D01*
X114404458Y-105575987D01*
X114395162Y-105563972D01*
X114338551Y-105524332D01*
X114330019Y-105519406D01*
X114281027Y-105468021D01*
X114267594Y-105398307D01*
X114293983Y-105332397D01*
X114329825Y-105301341D01*
X114334297Y-105299256D01*
X114440821Y-105224667D01*
X114520921Y-105168581D01*
X114520924Y-105168579D01*
X114525432Y-105165422D01*
X114690422Y-105000432D01*
X114824256Y-104809297D01*
X114826579Y-104804315D01*
X114826582Y-104804310D01*
X114920544Y-104602808D01*
X114920545Y-104602806D01*
X114922867Y-104597826D01*
X114983258Y-104372444D01*
X115003594Y-104140000D01*
X114983258Y-103907556D01*
X114922867Y-103682174D01*
X114889383Y-103610367D01*
X114826582Y-103475690D01*
X114826579Y-103475685D01*
X114824256Y-103470703D01*
X114821099Y-103466194D01*
X114693581Y-103284079D01*
X114693579Y-103284076D01*
X114690422Y-103279568D01*
X114525432Y-103114578D01*
X114520924Y-103111421D01*
X114520921Y-103111419D01*
X114338801Y-102983898D01*
X114334297Y-102980744D01*
X114330293Y-102978877D01*
X114281531Y-102927736D01*
X114268095Y-102858023D01*
X114294482Y-102792112D01*
X114330188Y-102761172D01*
X114334297Y-102759256D01*
X114449310Y-102678723D01*
X114520921Y-102628581D01*
X114520924Y-102628579D01*
X114525432Y-102625422D01*
X114690422Y-102460432D01*
X114703448Y-102441830D01*
X114821099Y-102273806D01*
X114821100Y-102273804D01*
X114824256Y-102269297D01*
X114826579Y-102264315D01*
X114826582Y-102264310D01*
X114920544Y-102062808D01*
X114920545Y-102062806D01*
X114922867Y-102057826D01*
X114976804Y-101856533D01*
X114981834Y-101837759D01*
X114981834Y-101837757D01*
X114983258Y-101832444D01*
X115003594Y-101600000D01*
X115001750Y-101578918D01*
X119271917Y-101578918D01*
X119287682Y-101852320D01*
X119288507Y-101856525D01*
X119288508Y-101856533D01*
X119299127Y-101910657D01*
X119340405Y-102121053D01*
X119341792Y-102125103D01*
X119341793Y-102125108D01*
X119362605Y-102185895D01*
X119429112Y-102380144D01*
X119552160Y-102624799D01*
X119554586Y-102628328D01*
X119554589Y-102628334D01*
X119681002Y-102812264D01*
X119707274Y-102850490D01*
X119710161Y-102853663D01*
X119710162Y-102853664D01*
X119714128Y-102858023D01*
X119891582Y-103053043D01*
X120101675Y-103228707D01*
X120105316Y-103230991D01*
X120330024Y-103371951D01*
X120330028Y-103371953D01*
X120333664Y-103374234D01*
X120401544Y-103404883D01*
X120579345Y-103485164D01*
X120579349Y-103485166D01*
X120583257Y-103486930D01*
X120587377Y-103488150D01*
X120587376Y-103488150D01*
X120841723Y-103563491D01*
X120841727Y-103563492D01*
X120845836Y-103564709D01*
X120850070Y-103565357D01*
X120850075Y-103565358D01*
X121112298Y-103605483D01*
X121112300Y-103605483D01*
X121116540Y-103606132D01*
X121255912Y-103608322D01*
X121386071Y-103610367D01*
X121386077Y-103610367D01*
X121390362Y-103610434D01*
X121662235Y-103577534D01*
X121927127Y-103508041D01*
X121931087Y-103506401D01*
X121931092Y-103506399D01*
X122053631Y-103455641D01*
X122180136Y-103403241D01*
X122416582Y-103265073D01*
X122632089Y-103096094D01*
X122673809Y-103053043D01*
X122775711Y-102947888D01*
X122822669Y-102899431D01*
X122825202Y-102895983D01*
X122825206Y-102895978D01*
X122982257Y-102682178D01*
X122984795Y-102678723D01*
X123013735Y-102625422D01*
X123113418Y-102441830D01*
X123113419Y-102441828D01*
X123115468Y-102438054D01*
X123212269Y-102181877D01*
X123273407Y-101914933D01*
X123297751Y-101642161D01*
X123298193Y-101600000D01*
X123296465Y-101574648D01*
X123279859Y-101331055D01*
X123279858Y-101331049D01*
X123279567Y-101326778D01*
X123224032Y-101058612D01*
X123132617Y-100800465D01*
X123007013Y-100557112D01*
X122997040Y-100542921D01*
X122887974Y-100387736D01*
X122849545Y-100333057D01*
X122663125Y-100132445D01*
X122659810Y-100129731D01*
X122659806Y-100129728D01*
X122454523Y-99961706D01*
X122451205Y-99958990D01*
X122217704Y-99815901D01*
X122213768Y-99814173D01*
X121970873Y-99707549D01*
X121970869Y-99707548D01*
X121966945Y-99705825D01*
X121703566Y-99630800D01*
X121699324Y-99630196D01*
X121699318Y-99630195D01*
X121498834Y-99601662D01*
X121432443Y-99592213D01*
X121288589Y-99591460D01*
X121162877Y-99590802D01*
X121162871Y-99590802D01*
X121158591Y-99590780D01*
X121154347Y-99591339D01*
X121154343Y-99591339D01*
X121035302Y-99607011D01*
X120887078Y-99626525D01*
X120882938Y-99627658D01*
X120882936Y-99627658D01*
X120810008Y-99647609D01*
X120622928Y-99698788D01*
X120618980Y-99700472D01*
X120374982Y-99804546D01*
X120374978Y-99804548D01*
X120371030Y-99806232D01*
X120351125Y-99818145D01*
X120139725Y-99944664D01*
X120139721Y-99944667D01*
X120136043Y-99946868D01*
X119922318Y-100118094D01*
X119733808Y-100316742D01*
X119574002Y-100539136D01*
X119445857Y-100781161D01*
X119444385Y-100785184D01*
X119444383Y-100785188D01*
X119437314Y-100804506D01*
X119351743Y-101038337D01*
X119293404Y-101305907D01*
X119271917Y-101578918D01*
X115001750Y-101578918D01*
X114983258Y-101367556D01*
X114922867Y-101142174D01*
X114920544Y-101137192D01*
X114826582Y-100935690D01*
X114826579Y-100935685D01*
X114824256Y-100930703D01*
X114735892Y-100804506D01*
X114693581Y-100744079D01*
X114693579Y-100744076D01*
X114690422Y-100739568D01*
X114525432Y-100574578D01*
X114520924Y-100571421D01*
X114520921Y-100571419D01*
X114338801Y-100443898D01*
X114334297Y-100440744D01*
X114330293Y-100438877D01*
X114281531Y-100387736D01*
X114268095Y-100318023D01*
X114294482Y-100252112D01*
X114330188Y-100221172D01*
X114334297Y-100219256D01*
X114415772Y-100162207D01*
X114520921Y-100088581D01*
X114520924Y-100088579D01*
X114525432Y-100085422D01*
X114690422Y-99920432D01*
X114763616Y-99815901D01*
X114821099Y-99733806D01*
X114821100Y-99733804D01*
X114824256Y-99729297D01*
X114826579Y-99724315D01*
X114826582Y-99724310D01*
X114920544Y-99522808D01*
X114920545Y-99522806D01*
X114922867Y-99517826D01*
X114983258Y-99292444D01*
X115003594Y-99060000D01*
X114983258Y-98827556D01*
X114922867Y-98602174D01*
X114889383Y-98530367D01*
X114826582Y-98395690D01*
X114826579Y-98395685D01*
X114824256Y-98390703D01*
X114821099Y-98386194D01*
X114693581Y-98204079D01*
X114693579Y-98204076D01*
X114690422Y-98199568D01*
X114525432Y-98034578D01*
X114520924Y-98031421D01*
X114520921Y-98031419D01*
X114338801Y-97903898D01*
X114334297Y-97900744D01*
X114330293Y-97898877D01*
X114281531Y-97847736D01*
X114268095Y-97778023D01*
X114294482Y-97712112D01*
X114330188Y-97681172D01*
X114334297Y-97679256D01*
X114449310Y-97598723D01*
X114520921Y-97548581D01*
X114520924Y-97548579D01*
X114525432Y-97545422D01*
X114690422Y-97380432D01*
X114703448Y-97361830D01*
X114821099Y-97193806D01*
X114821100Y-97193804D01*
X114824256Y-97189297D01*
X114826579Y-97184315D01*
X114826582Y-97184310D01*
X114920544Y-96982808D01*
X114920545Y-96982806D01*
X114922867Y-96977826D01*
X114976804Y-96776533D01*
X114981834Y-96757759D01*
X114981834Y-96757757D01*
X114983258Y-96752444D01*
X115003594Y-96520000D01*
X115001750Y-96498918D01*
X119271917Y-96498918D01*
X119287682Y-96772320D01*
X119288507Y-96776525D01*
X119288508Y-96776533D01*
X119299127Y-96830657D01*
X119340405Y-97041053D01*
X119341792Y-97045103D01*
X119341793Y-97045108D01*
X119362605Y-97105895D01*
X119429112Y-97300144D01*
X119552160Y-97544799D01*
X119554586Y-97548328D01*
X119554589Y-97548334D01*
X119681002Y-97732264D01*
X119707274Y-97770490D01*
X119710161Y-97773663D01*
X119710162Y-97773664D01*
X119714128Y-97778023D01*
X119891582Y-97973043D01*
X120101675Y-98148707D01*
X120105316Y-98150991D01*
X120330024Y-98291951D01*
X120330028Y-98291953D01*
X120333664Y-98294234D01*
X120401544Y-98324883D01*
X120579345Y-98405164D01*
X120579349Y-98405166D01*
X120583257Y-98406930D01*
X120587377Y-98408150D01*
X120587376Y-98408150D01*
X120841723Y-98483491D01*
X120841727Y-98483492D01*
X120845836Y-98484709D01*
X120850070Y-98485357D01*
X120850075Y-98485358D01*
X121112298Y-98525483D01*
X121112300Y-98525483D01*
X121116540Y-98526132D01*
X121255912Y-98528322D01*
X121386071Y-98530367D01*
X121386077Y-98530367D01*
X121390362Y-98530434D01*
X121662235Y-98497534D01*
X121927127Y-98428041D01*
X121931087Y-98426401D01*
X121931092Y-98426399D01*
X122053631Y-98375641D01*
X122180136Y-98323241D01*
X122416582Y-98185073D01*
X122632089Y-98016094D01*
X122673809Y-97973043D01*
X122775711Y-97867888D01*
X122822669Y-97819431D01*
X122825202Y-97815983D01*
X122825206Y-97815978D01*
X122982257Y-97602178D01*
X122984795Y-97598723D01*
X123013735Y-97545422D01*
X123113418Y-97361830D01*
X123113419Y-97361828D01*
X123115468Y-97358054D01*
X123156942Y-97248296D01*
X126872500Y-97248296D01*
X126875651Y-97306475D01*
X126921107Y-97539242D01*
X127005132Y-97761023D01*
X127041278Y-97822509D01*
X127122618Y-97960874D01*
X127122622Y-97960879D01*
X127125324Y-97965476D01*
X127128767Y-97969557D01*
X127128768Y-97969559D01*
X127247091Y-98109824D01*
X127278245Y-98146755D01*
X127282323Y-98150195D01*
X127453073Y-98294234D01*
X127459524Y-98299676D01*
X127464121Y-98302378D01*
X127464126Y-98302382D01*
X127495928Y-98321077D01*
X127663977Y-98419868D01*
X127668963Y-98421757D01*
X127836836Y-98485358D01*
X127885758Y-98503893D01*
X127890987Y-98504914D01*
X127890990Y-98504915D01*
X128108756Y-98547441D01*
X128118525Y-98549349D01*
X128126463Y-98549779D01*
X128175016Y-98552409D01*
X128175032Y-98552409D01*
X128176704Y-98552500D01*
X128363296Y-98552500D01*
X128364968Y-98552409D01*
X128364984Y-98552409D01*
X128413537Y-98549779D01*
X128421475Y-98549349D01*
X128431244Y-98547441D01*
X128649010Y-98504915D01*
X128649013Y-98504914D01*
X128654242Y-98503893D01*
X128703165Y-98485358D01*
X128871037Y-98421757D01*
X128876023Y-98419868D01*
X129044072Y-98321077D01*
X129075874Y-98302382D01*
X129075879Y-98302378D01*
X129080476Y-98299676D01*
X129086928Y-98294234D01*
X129257677Y-98150195D01*
X129261755Y-98146755D01*
X129292909Y-98109824D01*
X129411232Y-97969559D01*
X129411233Y-97969557D01*
X129414676Y-97965476D01*
X129417378Y-97960879D01*
X129417382Y-97960874D01*
X129498722Y-97822509D01*
X129534868Y-97761023D01*
X129618893Y-97539242D01*
X129664349Y-97306475D01*
X129667500Y-97248296D01*
X129667500Y-97061704D01*
X129664349Y-97003525D01*
X129632243Y-96839117D01*
X129619915Y-96775990D01*
X129619914Y-96775987D01*
X129618893Y-96770758D01*
X129534868Y-96548977D01*
X129477738Y-96451795D01*
X129417382Y-96349126D01*
X129417378Y-96349121D01*
X129414676Y-96344524D01*
X129371243Y-96293036D01*
X129265195Y-96167323D01*
X129261755Y-96163245D01*
X129141941Y-96062174D01*
X129084559Y-96013768D01*
X129084557Y-96013767D01*
X129080476Y-96010324D01*
X129052063Y-95993621D01*
X129003475Y-95941856D01*
X128990586Y-95872039D01*
X129017490Y-95806337D01*
X129052063Y-95776379D01*
X129080476Y-95759676D01*
X129126959Y-95720465D01*
X129257677Y-95610195D01*
X129261755Y-95606755D01*
X129292909Y-95569824D01*
X129411232Y-95429559D01*
X129411233Y-95429557D01*
X129414676Y-95425476D01*
X129417378Y-95420879D01*
X129417382Y-95420874D01*
X129483892Y-95307736D01*
X129534868Y-95221023D01*
X129618893Y-94999242D01*
X129642377Y-94878990D01*
X129663512Y-94770761D01*
X129664349Y-94766475D01*
X129664779Y-94758537D01*
X129667409Y-94709984D01*
X129667409Y-94709968D01*
X129667500Y-94708296D01*
X129667500Y-94521704D01*
X129666909Y-94510780D01*
X129664585Y-94467883D01*
X129664349Y-94463525D01*
X129618893Y-94230758D01*
X129534868Y-94008977D01*
X129477738Y-93911795D01*
X129417382Y-93809126D01*
X129417378Y-93809121D01*
X129414676Y-93804524D01*
X129371243Y-93753036D01*
X129265195Y-93627323D01*
X129261755Y-93623245D01*
X129141941Y-93522174D01*
X129084559Y-93473768D01*
X129084557Y-93473767D01*
X129080476Y-93470324D01*
X129052063Y-93453621D01*
X129003475Y-93401856D01*
X128990586Y-93332039D01*
X129017490Y-93266337D01*
X129052063Y-93236379D01*
X129080476Y-93219676D01*
X129086928Y-93214234D01*
X129257677Y-93070195D01*
X129261755Y-93066755D01*
X129292909Y-93029824D01*
X129411232Y-92889559D01*
X129411233Y-92889557D01*
X129414676Y-92885476D01*
X129417378Y-92880879D01*
X129417382Y-92880874D01*
X129498722Y-92742509D01*
X129534868Y-92681023D01*
X129618893Y-92459242D01*
X129664349Y-92226475D01*
X129664912Y-92216088D01*
X129667409Y-92169984D01*
X129667409Y-92169968D01*
X129667500Y-92168296D01*
X129667500Y-91981704D01*
X129664349Y-91923525D01*
X129632243Y-91759117D01*
X129619915Y-91695990D01*
X129619914Y-91695987D01*
X129618893Y-91690758D01*
X129534868Y-91468977D01*
X129477738Y-91371795D01*
X129417382Y-91269126D01*
X129417378Y-91269121D01*
X129414676Y-91264524D01*
X129277799Y-91102264D01*
X129249165Y-91037301D01*
X129260199Y-90967167D01*
X129307399Y-90914132D01*
X129329879Y-90903041D01*
X129397297Y-90877767D01*
X129405705Y-90874615D01*
X129522261Y-90787261D01*
X129609615Y-90670705D01*
X129660745Y-90534316D01*
X129667500Y-90472134D01*
X129667500Y-88597866D01*
X129660745Y-88535684D01*
X129609615Y-88399295D01*
X129522261Y-88282739D01*
X129405705Y-88195385D01*
X129269316Y-88144255D01*
X129207134Y-88137500D01*
X127332866Y-88137500D01*
X127270684Y-88144255D01*
X127134295Y-88195385D01*
X127017739Y-88282739D01*
X126930385Y-88399295D01*
X126879255Y-88535684D01*
X126872500Y-88597866D01*
X126872500Y-90472134D01*
X126879255Y-90534316D01*
X126930385Y-90670705D01*
X127017739Y-90787261D01*
X127134295Y-90874615D01*
X127142703Y-90877767D01*
X127210121Y-90903041D01*
X127266885Y-90945683D01*
X127291585Y-91012244D01*
X127276378Y-91081593D01*
X127262206Y-91102259D01*
X127125324Y-91264524D01*
X127122622Y-91269121D01*
X127122618Y-91269126D01*
X127062262Y-91371795D01*
X127005132Y-91468977D01*
X126921107Y-91690758D01*
X126920086Y-91695987D01*
X126920085Y-91695990D01*
X126907757Y-91759117D01*
X126875651Y-91923525D01*
X126872500Y-91981704D01*
X126872500Y-92168296D01*
X126872591Y-92169968D01*
X126872591Y-92169984D01*
X126875088Y-92216088D01*
X126875651Y-92226475D01*
X126921107Y-92459242D01*
X127005132Y-92681023D01*
X127041278Y-92742509D01*
X127122618Y-92880874D01*
X127122622Y-92880879D01*
X127125324Y-92885476D01*
X127128767Y-92889557D01*
X127128768Y-92889559D01*
X127247091Y-93029824D01*
X127278245Y-93066755D01*
X127282323Y-93070195D01*
X127453073Y-93214234D01*
X127459524Y-93219676D01*
X127487937Y-93236379D01*
X127536525Y-93288144D01*
X127549414Y-93357961D01*
X127522510Y-93423663D01*
X127487938Y-93453620D01*
X127459524Y-93470324D01*
X127455443Y-93473767D01*
X127455441Y-93473768D01*
X127398059Y-93522174D01*
X127278245Y-93623245D01*
X127274805Y-93627323D01*
X127168758Y-93753036D01*
X127125324Y-93804524D01*
X127122622Y-93809121D01*
X127122618Y-93809126D01*
X127062262Y-93911795D01*
X127005132Y-94008977D01*
X126921107Y-94230758D01*
X126875651Y-94463525D01*
X126875415Y-94467883D01*
X126873092Y-94510780D01*
X126872500Y-94521704D01*
X126872500Y-94708296D01*
X126872591Y-94709968D01*
X126872591Y-94709984D01*
X126875221Y-94758537D01*
X126875651Y-94766475D01*
X126876488Y-94770761D01*
X126897624Y-94878990D01*
X126921107Y-94999242D01*
X127005132Y-95221023D01*
X127056108Y-95307736D01*
X127122618Y-95420874D01*
X127122622Y-95420879D01*
X127125324Y-95425476D01*
X127128767Y-95429557D01*
X127128768Y-95429559D01*
X127247091Y-95569824D01*
X127278245Y-95606755D01*
X127282323Y-95610195D01*
X127413042Y-95720465D01*
X127459524Y-95759676D01*
X127487937Y-95776379D01*
X127536525Y-95828144D01*
X127549414Y-95897961D01*
X127522510Y-95963663D01*
X127487938Y-95993620D01*
X127459524Y-96010324D01*
X127455443Y-96013767D01*
X127455441Y-96013768D01*
X127398059Y-96062174D01*
X127278245Y-96163245D01*
X127274805Y-96167323D01*
X127168758Y-96293036D01*
X127125324Y-96344524D01*
X127122622Y-96349121D01*
X127122618Y-96349126D01*
X127062262Y-96451795D01*
X127005132Y-96548977D01*
X126921107Y-96770758D01*
X126920086Y-96775987D01*
X126920085Y-96775990D01*
X126907757Y-96839117D01*
X126875651Y-97003525D01*
X126872500Y-97061704D01*
X126872500Y-97248296D01*
X123156942Y-97248296D01*
X123212269Y-97101877D01*
X123273407Y-96834933D01*
X123278668Y-96775990D01*
X123297531Y-96564627D01*
X123297531Y-96564625D01*
X123297751Y-96562161D01*
X123298193Y-96520000D01*
X123296465Y-96494648D01*
X123279859Y-96251055D01*
X123279858Y-96251049D01*
X123279567Y-96246778D01*
X123224032Y-95978612D01*
X123132617Y-95720465D01*
X123007013Y-95477112D01*
X122997040Y-95462921D01*
X122887974Y-95307736D01*
X122849545Y-95253057D01*
X122663125Y-95052445D01*
X122659810Y-95049731D01*
X122659806Y-95049728D01*
X122454523Y-94881706D01*
X122451205Y-94878990D01*
X122217704Y-94735901D01*
X122213768Y-94734173D01*
X121970873Y-94627549D01*
X121970869Y-94627548D01*
X121966945Y-94625825D01*
X121703566Y-94550800D01*
X121699324Y-94550196D01*
X121699318Y-94550195D01*
X121487269Y-94520016D01*
X121432443Y-94512213D01*
X121288589Y-94511460D01*
X121162877Y-94510802D01*
X121162871Y-94510802D01*
X121158591Y-94510780D01*
X121154347Y-94511339D01*
X121154343Y-94511339D01*
X121062716Y-94523402D01*
X120887078Y-94546525D01*
X120882938Y-94547658D01*
X120882936Y-94547658D01*
X120810008Y-94567609D01*
X120622928Y-94618788D01*
X120618980Y-94620472D01*
X120374982Y-94724546D01*
X120374978Y-94724548D01*
X120371030Y-94726232D01*
X120296627Y-94770761D01*
X120139725Y-94864664D01*
X120139721Y-94864667D01*
X120136043Y-94866868D01*
X119922318Y-95038094D01*
X119733808Y-95236742D01*
X119574002Y-95459136D01*
X119445857Y-95701161D01*
X119444385Y-95705184D01*
X119444383Y-95705188D01*
X119399387Y-95828144D01*
X119351743Y-95958337D01*
X119293404Y-96225907D01*
X119271917Y-96498918D01*
X115001750Y-96498918D01*
X114983258Y-96287556D01*
X114922867Y-96062174D01*
X114898689Y-96010324D01*
X114826582Y-95855690D01*
X114826579Y-95855685D01*
X114824256Y-95850703D01*
X114772214Y-95776379D01*
X114693581Y-95664079D01*
X114693579Y-95664076D01*
X114690422Y-95659568D01*
X114525432Y-95494578D01*
X114520924Y-95491421D01*
X114520921Y-95491419D01*
X114338801Y-95363898D01*
X114334297Y-95360744D01*
X114330293Y-95358877D01*
X114281531Y-95307736D01*
X114268095Y-95238023D01*
X114294482Y-95172112D01*
X114330188Y-95141172D01*
X114334297Y-95139256D01*
X114415772Y-95082207D01*
X114520921Y-95008581D01*
X114520924Y-95008579D01*
X114525432Y-95005422D01*
X114690422Y-94840432D01*
X114763616Y-94735901D01*
X114821099Y-94653806D01*
X114821100Y-94653804D01*
X114824256Y-94649297D01*
X114826579Y-94644315D01*
X114826582Y-94644310D01*
X114920544Y-94442808D01*
X114920545Y-94442806D01*
X114922867Y-94437826D01*
X114983258Y-94212444D01*
X115003594Y-93980000D01*
X114983258Y-93747556D01*
X114922867Y-93522174D01*
X114898689Y-93470324D01*
X114826582Y-93315690D01*
X114826579Y-93315685D01*
X114824256Y-93310703D01*
X114793191Y-93266337D01*
X114693581Y-93124079D01*
X114693579Y-93124076D01*
X114690422Y-93119568D01*
X114525432Y-92954578D01*
X114520924Y-92951421D01*
X114520921Y-92951419D01*
X114420172Y-92880874D01*
X114334297Y-92820744D01*
X114329887Y-92818688D01*
X114281030Y-92767449D01*
X114267593Y-92697735D01*
X114293979Y-92631824D01*
X114330019Y-92600594D01*
X114338551Y-92595668D01*
X114396000Y-92555441D01*
X114404375Y-92544964D01*
X114397307Y-92531517D01*
X113677812Y-91812022D01*
X113663868Y-91804408D01*
X113662035Y-91804539D01*
X113655420Y-91808790D01*
X112931972Y-92532238D01*
X112925542Y-92544013D01*
X112934838Y-92556028D01*
X112991449Y-92595668D01*
X112999981Y-92600594D01*
X113048973Y-92651979D01*
X113062406Y-92721693D01*
X113036017Y-92787603D01*
X113000175Y-92818659D01*
X112995703Y-92820744D01*
X112909828Y-92880874D01*
X112809079Y-92951419D01*
X112809076Y-92951421D01*
X112804568Y-92954578D01*
X112639578Y-93119568D01*
X112636421Y-93124076D01*
X112636419Y-93124079D01*
X112536809Y-93266337D01*
X112505744Y-93310703D01*
X112503421Y-93315685D01*
X112503418Y-93315690D01*
X112431311Y-93470324D01*
X112407133Y-93522174D01*
X112346742Y-93747556D01*
X112326406Y-93980000D01*
X112346742Y-94212444D01*
X112407133Y-94437826D01*
X112409455Y-94442806D01*
X112409456Y-94442808D01*
X112503418Y-94644310D01*
X112503421Y-94644315D01*
X112505744Y-94649297D01*
X112508900Y-94653804D01*
X112508901Y-94653806D01*
X112566385Y-94735901D01*
X112639578Y-94840432D01*
X112804568Y-95005422D01*
X112809076Y-95008579D01*
X112809079Y-95008581D01*
X112914228Y-95082207D01*
X112995703Y-95139256D01*
X112999707Y-95141123D01*
X113048469Y-95192264D01*
X113061905Y-95261977D01*
X113035518Y-95327888D01*
X112999812Y-95358828D01*
X112995703Y-95360744D01*
X112991199Y-95363898D01*
X112809079Y-95491419D01*
X112809076Y-95491421D01*
X112804568Y-95494578D01*
X112639578Y-95659568D01*
X112636421Y-95664076D01*
X112636419Y-95664079D01*
X112557786Y-95776379D01*
X112505744Y-95850703D01*
X112503421Y-95855685D01*
X112503418Y-95855690D01*
X112431311Y-96010324D01*
X112407133Y-96062174D01*
X112346742Y-96287556D01*
X112326406Y-96520000D01*
X112346742Y-96752444D01*
X112348166Y-96757757D01*
X112348166Y-96757759D01*
X112353197Y-96776533D01*
X112407133Y-96977826D01*
X112409455Y-96982806D01*
X112409456Y-96982808D01*
X112503418Y-97184310D01*
X112503421Y-97184315D01*
X112505744Y-97189297D01*
X112508900Y-97193804D01*
X112508901Y-97193806D01*
X112626553Y-97361830D01*
X112639578Y-97380432D01*
X112804568Y-97545422D01*
X112809076Y-97548579D01*
X112809079Y-97548581D01*
X112880690Y-97598723D01*
X112995703Y-97679256D01*
X112999707Y-97681123D01*
X113048469Y-97732264D01*
X113061905Y-97801977D01*
X113035518Y-97867888D01*
X112999812Y-97898828D01*
X112995703Y-97900744D01*
X112991199Y-97903898D01*
X112809079Y-98031419D01*
X112809076Y-98031421D01*
X112804568Y-98034578D01*
X112639578Y-98199568D01*
X112636421Y-98204076D01*
X112636419Y-98204079D01*
X112508901Y-98386194D01*
X112505744Y-98390703D01*
X112503421Y-98395685D01*
X112503418Y-98395690D01*
X112440617Y-98530367D01*
X112407133Y-98602174D01*
X112346742Y-98827556D01*
X112326406Y-99060000D01*
X112346742Y-99292444D01*
X112407133Y-99517826D01*
X112409455Y-99522806D01*
X112409456Y-99522808D01*
X112503418Y-99724310D01*
X112503421Y-99724315D01*
X112505744Y-99729297D01*
X112508900Y-99733804D01*
X112508901Y-99733806D01*
X112566385Y-99815901D01*
X112639578Y-99920432D01*
X112804568Y-100085422D01*
X112809076Y-100088579D01*
X112809079Y-100088581D01*
X112914228Y-100162207D01*
X112995703Y-100219256D01*
X112999707Y-100221123D01*
X113048469Y-100272264D01*
X113061905Y-100341977D01*
X113035518Y-100407888D01*
X112999812Y-100438828D01*
X112995703Y-100440744D01*
X112991199Y-100443898D01*
X112809079Y-100571419D01*
X112809076Y-100571421D01*
X112804568Y-100574578D01*
X112639578Y-100739568D01*
X112636421Y-100744076D01*
X112636419Y-100744079D01*
X112594108Y-100804506D01*
X112505744Y-100930703D01*
X112503421Y-100935685D01*
X112503418Y-100935690D01*
X112409456Y-101137192D01*
X112407133Y-101142174D01*
X112346742Y-101367556D01*
X112326406Y-101600000D01*
X112346742Y-101832444D01*
X112348166Y-101837757D01*
X112348166Y-101837759D01*
X112353197Y-101856533D01*
X112407133Y-102057826D01*
X112409455Y-102062806D01*
X112409456Y-102062808D01*
X112503418Y-102264310D01*
X112503421Y-102264315D01*
X112505744Y-102269297D01*
X112508900Y-102273804D01*
X112508901Y-102273806D01*
X112626553Y-102441830D01*
X112639578Y-102460432D01*
X112804568Y-102625422D01*
X112809076Y-102628579D01*
X112809079Y-102628581D01*
X112880690Y-102678723D01*
X112995703Y-102759256D01*
X112999707Y-102761123D01*
X113048469Y-102812264D01*
X113061905Y-102881977D01*
X113035518Y-102947888D01*
X112999812Y-102978828D01*
X112995703Y-102980744D01*
X112991199Y-102983898D01*
X112809079Y-103111419D01*
X112809076Y-103111421D01*
X112804568Y-103114578D01*
X112639578Y-103279568D01*
X112636421Y-103284076D01*
X112636419Y-103284079D01*
X112508901Y-103466194D01*
X112505744Y-103470703D01*
X112503421Y-103475685D01*
X112503418Y-103475690D01*
X112440617Y-103610367D01*
X112407133Y-103682174D01*
X112346742Y-103907556D01*
X112326406Y-104140000D01*
X102303594Y-104140000D01*
X102283258Y-103907556D01*
X102222867Y-103682174D01*
X102189383Y-103610367D01*
X102126582Y-103475690D01*
X102126579Y-103475685D01*
X102124256Y-103470703D01*
X102121099Y-103466194D01*
X101993581Y-103284079D01*
X101993579Y-103284076D01*
X101990422Y-103279568D01*
X101825432Y-103114578D01*
X101820924Y-103111421D01*
X101820921Y-103111419D01*
X101638801Y-102983898D01*
X101634297Y-102980744D01*
X101630293Y-102978877D01*
X101581531Y-102927736D01*
X101568095Y-102858023D01*
X101594482Y-102792112D01*
X101630188Y-102761172D01*
X101634297Y-102759256D01*
X101749310Y-102678723D01*
X101820921Y-102628581D01*
X101820924Y-102628579D01*
X101825432Y-102625422D01*
X101990422Y-102460432D01*
X102003448Y-102441830D01*
X102121099Y-102273806D01*
X102121100Y-102273804D01*
X102124256Y-102269297D01*
X102126579Y-102264315D01*
X102126582Y-102264310D01*
X102220544Y-102062808D01*
X102220545Y-102062806D01*
X102222867Y-102057826D01*
X102276804Y-101856533D01*
X102281834Y-101837759D01*
X102281834Y-101837757D01*
X102283258Y-101832444D01*
X102303594Y-101600000D01*
X102283258Y-101367556D01*
X102222867Y-101142174D01*
X102220544Y-101137192D01*
X102126582Y-100935690D01*
X102126579Y-100935685D01*
X102124256Y-100930703D01*
X102035892Y-100804506D01*
X101993581Y-100744079D01*
X101993579Y-100744076D01*
X101990422Y-100739568D01*
X101825432Y-100574578D01*
X101820924Y-100571421D01*
X101820921Y-100571419D01*
X101638801Y-100443898D01*
X101634297Y-100440744D01*
X101630293Y-100438877D01*
X101581531Y-100387736D01*
X101568095Y-100318023D01*
X101594482Y-100252112D01*
X101630188Y-100221172D01*
X101634297Y-100219256D01*
X101715772Y-100162207D01*
X101820921Y-100088581D01*
X101820924Y-100088579D01*
X101825432Y-100085422D01*
X101990422Y-99920432D01*
X102063616Y-99815901D01*
X102121099Y-99733806D01*
X102121100Y-99733804D01*
X102124256Y-99729297D01*
X102126579Y-99724315D01*
X102126582Y-99724310D01*
X102220544Y-99522808D01*
X102220545Y-99522806D01*
X102222867Y-99517826D01*
X102283258Y-99292444D01*
X102303594Y-99060000D01*
X102283258Y-98827556D01*
X102222867Y-98602174D01*
X102189383Y-98530367D01*
X102126582Y-98395690D01*
X102126579Y-98395685D01*
X102124256Y-98390703D01*
X102121099Y-98386194D01*
X101993581Y-98204079D01*
X101993579Y-98204076D01*
X101990422Y-98199568D01*
X101825432Y-98034578D01*
X101820924Y-98031421D01*
X101820921Y-98031419D01*
X101638801Y-97903898D01*
X101634297Y-97900744D01*
X101630293Y-97898877D01*
X101581531Y-97847736D01*
X101568095Y-97778023D01*
X101594482Y-97712112D01*
X101630188Y-97681172D01*
X101634297Y-97679256D01*
X101749310Y-97598723D01*
X101820921Y-97548581D01*
X101820924Y-97548579D01*
X101825432Y-97545422D01*
X101990422Y-97380432D01*
X102003448Y-97361830D01*
X102121099Y-97193806D01*
X102121100Y-97193804D01*
X102124256Y-97189297D01*
X102126579Y-97184315D01*
X102126582Y-97184310D01*
X102220544Y-96982808D01*
X102220545Y-96982806D01*
X102222867Y-96977826D01*
X102276804Y-96776533D01*
X102281834Y-96757759D01*
X102281834Y-96757757D01*
X102283258Y-96752444D01*
X102303594Y-96520000D01*
X102283258Y-96287556D01*
X102222867Y-96062174D01*
X102198689Y-96010324D01*
X102126582Y-95855690D01*
X102126579Y-95855685D01*
X102124256Y-95850703D01*
X102072214Y-95776379D01*
X101993581Y-95664079D01*
X101993579Y-95664076D01*
X101990422Y-95659568D01*
X101825432Y-95494578D01*
X101820924Y-95491421D01*
X101820921Y-95491419D01*
X101638801Y-95363898D01*
X101634297Y-95360744D01*
X101630293Y-95358877D01*
X101581531Y-95307736D01*
X101568095Y-95238023D01*
X101594482Y-95172112D01*
X101630188Y-95141172D01*
X101634297Y-95139256D01*
X101715772Y-95082207D01*
X101820921Y-95008581D01*
X101820924Y-95008579D01*
X101825432Y-95005422D01*
X101990422Y-94840432D01*
X102063616Y-94735901D01*
X102121099Y-94653806D01*
X102121100Y-94653804D01*
X102124256Y-94649297D01*
X102126579Y-94644315D01*
X102126582Y-94644310D01*
X102220544Y-94442808D01*
X102220545Y-94442806D01*
X102222867Y-94437826D01*
X102283258Y-94212444D01*
X102303594Y-93980000D01*
X102283258Y-93747556D01*
X102222867Y-93522174D01*
X102198689Y-93470324D01*
X102126582Y-93315690D01*
X102126579Y-93315685D01*
X102124256Y-93310703D01*
X102093191Y-93266337D01*
X101993581Y-93124079D01*
X101993579Y-93124076D01*
X101990422Y-93119568D01*
X101825432Y-92954578D01*
X101820924Y-92951421D01*
X101820921Y-92951419D01*
X101715772Y-92877793D01*
X101634297Y-92820744D01*
X101630293Y-92818877D01*
X101581531Y-92767736D01*
X101568095Y-92698023D01*
X101594482Y-92632112D01*
X101630188Y-92601172D01*
X101634297Y-92599256D01*
X101730009Y-92532238D01*
X101820921Y-92468581D01*
X101820924Y-92468579D01*
X101825432Y-92465422D01*
X101990422Y-92300432D01*
X102003448Y-92281830D01*
X102121099Y-92113806D01*
X102121100Y-92113804D01*
X102124256Y-92109297D01*
X102126579Y-92104315D01*
X102126582Y-92104310D01*
X102220544Y-91902808D01*
X102220545Y-91902806D01*
X102222867Y-91897826D01*
X102276804Y-91696533D01*
X102281834Y-91677759D01*
X102281834Y-91677757D01*
X102283258Y-91672444D01*
X102303115Y-91445475D01*
X112327387Y-91445475D01*
X112346758Y-91666877D01*
X112348661Y-91677672D01*
X112406182Y-91892344D01*
X112409928Y-91902636D01*
X112503852Y-92104059D01*
X112509335Y-92113554D01*
X112549559Y-92171000D01*
X112560036Y-92179375D01*
X112573483Y-92172307D01*
X113292978Y-91452812D01*
X113299356Y-91441132D01*
X114029408Y-91441132D01*
X114029539Y-91442965D01*
X114033790Y-91449580D01*
X114757238Y-92173028D01*
X114769013Y-92179458D01*
X114781028Y-92170162D01*
X114820665Y-92113554D01*
X114826148Y-92104059D01*
X114920072Y-91902636D01*
X114923818Y-91892344D01*
X114981339Y-91677672D01*
X114983242Y-91666877D01*
X115002613Y-91445475D01*
X115002613Y-91434525D01*
X115001248Y-91418918D01*
X119271917Y-91418918D01*
X119287682Y-91692320D01*
X119288507Y-91696525D01*
X119288508Y-91696533D01*
X119309698Y-91804539D01*
X119340405Y-91961053D01*
X119341792Y-91965103D01*
X119341793Y-91965108D01*
X119415182Y-92179458D01*
X119429112Y-92220144D01*
X119552160Y-92464799D01*
X119554586Y-92468328D01*
X119554589Y-92468334D01*
X119673539Y-92641406D01*
X119707274Y-92690490D01*
X119710161Y-92693663D01*
X119710162Y-92693664D01*
X119795899Y-92787888D01*
X119891582Y-92893043D01*
X120101675Y-93068707D01*
X120105316Y-93070991D01*
X120330024Y-93211951D01*
X120330028Y-93211953D01*
X120333664Y-93214234D01*
X120401544Y-93244883D01*
X120579345Y-93325164D01*
X120579349Y-93325166D01*
X120583257Y-93326930D01*
X120587377Y-93328150D01*
X120587376Y-93328150D01*
X120841723Y-93403491D01*
X120841727Y-93403492D01*
X120845836Y-93404709D01*
X120850070Y-93405357D01*
X120850075Y-93405358D01*
X121112298Y-93445483D01*
X121112300Y-93445483D01*
X121116540Y-93446132D01*
X121255912Y-93448322D01*
X121386071Y-93450367D01*
X121386077Y-93450367D01*
X121390362Y-93450434D01*
X121662235Y-93417534D01*
X121927127Y-93348041D01*
X121931087Y-93346401D01*
X121931092Y-93346399D01*
X122124377Y-93266337D01*
X122180136Y-93243241D01*
X122416582Y-93105073D01*
X122632089Y-92936094D01*
X122673809Y-92893043D01*
X122775987Y-92787603D01*
X122822669Y-92739431D01*
X122825202Y-92735983D01*
X122825206Y-92735978D01*
X122982257Y-92522178D01*
X122984795Y-92518723D01*
X123013735Y-92465422D01*
X123113418Y-92281830D01*
X123113419Y-92281828D01*
X123115468Y-92278054D01*
X123212269Y-92021877D01*
X123273407Y-91754933D01*
X123278668Y-91695990D01*
X123297531Y-91484627D01*
X123297531Y-91484625D01*
X123297751Y-91482161D01*
X123298193Y-91440000D01*
X123296465Y-91414648D01*
X123279859Y-91171055D01*
X123279858Y-91171049D01*
X123279567Y-91166778D01*
X123224032Y-90898612D01*
X123132617Y-90640465D01*
X123007013Y-90397112D01*
X122997040Y-90382921D01*
X122885991Y-90224915D01*
X122849545Y-90173057D01*
X122663125Y-89972445D01*
X122659810Y-89969731D01*
X122659806Y-89969728D01*
X122504626Y-89842715D01*
X122451205Y-89798990D01*
X122217704Y-89655901D01*
X122204881Y-89650272D01*
X121970873Y-89547549D01*
X121970869Y-89547548D01*
X121966945Y-89545825D01*
X121703566Y-89470800D01*
X121699324Y-89470196D01*
X121699318Y-89470195D01*
X121498834Y-89441662D01*
X121432443Y-89432213D01*
X121288589Y-89431460D01*
X121162877Y-89430802D01*
X121162871Y-89430802D01*
X121158591Y-89430780D01*
X121154347Y-89431339D01*
X121154343Y-89431339D01*
X121035302Y-89447011D01*
X120887078Y-89466525D01*
X120882938Y-89467658D01*
X120882936Y-89467658D01*
X120810008Y-89487609D01*
X120622928Y-89538788D01*
X120618980Y-89540472D01*
X120374982Y-89644546D01*
X120374978Y-89644548D01*
X120371030Y-89646232D01*
X120321313Y-89675987D01*
X120139725Y-89784664D01*
X120139721Y-89784667D01*
X120136043Y-89786868D01*
X119922318Y-89958094D01*
X119733808Y-90156742D01*
X119574002Y-90379136D01*
X119445857Y-90621161D01*
X119444385Y-90625184D01*
X119444383Y-90625188D01*
X119391132Y-90770703D01*
X119351743Y-90878337D01*
X119293404Y-91145907D01*
X119271917Y-91418918D01*
X115001248Y-91418918D01*
X114983242Y-91213123D01*
X114981339Y-91202328D01*
X114923818Y-90987656D01*
X114920072Y-90977364D01*
X114826148Y-90775941D01*
X114820665Y-90766446D01*
X114780441Y-90709000D01*
X114769964Y-90700625D01*
X114756517Y-90707693D01*
X114037022Y-91427188D01*
X114029408Y-91441132D01*
X113299356Y-91441132D01*
X113300592Y-91438868D01*
X113300461Y-91437035D01*
X113296210Y-91430420D01*
X112572762Y-90706972D01*
X112560987Y-90700542D01*
X112548972Y-90709838D01*
X112509335Y-90766446D01*
X112503852Y-90775941D01*
X112409928Y-90977364D01*
X112406182Y-90987656D01*
X112348661Y-91202328D01*
X112346758Y-91213123D01*
X112327387Y-91434525D01*
X112327387Y-91445475D01*
X102303115Y-91445475D01*
X102303594Y-91440000D01*
X102283258Y-91207556D01*
X102222867Y-90982174D01*
X102196554Y-90925745D01*
X102126582Y-90775690D01*
X102126579Y-90775685D01*
X102124256Y-90770703D01*
X102075129Y-90700542D01*
X101993581Y-90584079D01*
X101993579Y-90584076D01*
X101990422Y-90579568D01*
X101846746Y-90435892D01*
X101812720Y-90373580D01*
X101817785Y-90302765D01*
X101860332Y-90245929D01*
X101900462Y-90227133D01*
X101900316Y-90226745D01*
X101907709Y-90223973D01*
X101907711Y-90223973D01*
X102028297Y-90178767D01*
X102036705Y-90175615D01*
X102153261Y-90088261D01*
X102240615Y-89971705D01*
X102291745Y-89835316D01*
X102298500Y-89773134D01*
X102298500Y-88026866D01*
X102291745Y-87964684D01*
X102240615Y-87828295D01*
X102153261Y-87711739D01*
X102036705Y-87624385D01*
X101900316Y-87573255D01*
X101838134Y-87566500D01*
X100091866Y-87566500D01*
X100029684Y-87573255D01*
X99893295Y-87624385D01*
X99776739Y-87711739D01*
X99689385Y-87828295D01*
X99638255Y-87964684D01*
X99631500Y-88026866D01*
X99631500Y-89773134D01*
X99638255Y-89835316D01*
X99689385Y-89971705D01*
X99776739Y-90088261D01*
X99893295Y-90175615D01*
X99901703Y-90178767D01*
X100022289Y-90223973D01*
X100022291Y-90223973D01*
X100029684Y-90226745D01*
X100029340Y-90227661D01*
X100084954Y-90259434D01*
X100117772Y-90322390D01*
X100111345Y-90393095D01*
X100083254Y-90435892D01*
X99939578Y-90579568D01*
X99936421Y-90584076D01*
X99936419Y-90584079D01*
X99854871Y-90700542D01*
X99805744Y-90770703D01*
X99803421Y-90775685D01*
X99803418Y-90775690D01*
X99733446Y-90925745D01*
X99707133Y-90982174D01*
X99646742Y-91207556D01*
X99626406Y-91440000D01*
X99646742Y-91672444D01*
X99648166Y-91677757D01*
X99648166Y-91677759D01*
X99653197Y-91696533D01*
X99707133Y-91897826D01*
X99709455Y-91902806D01*
X99709456Y-91902808D01*
X99803418Y-92104310D01*
X99803421Y-92104315D01*
X99805744Y-92109297D01*
X99808900Y-92113804D01*
X99808901Y-92113806D01*
X99926553Y-92281830D01*
X99939578Y-92300432D01*
X100104568Y-92465422D01*
X100109076Y-92468579D01*
X100109079Y-92468581D01*
X100199991Y-92532238D01*
X100295703Y-92599256D01*
X100299707Y-92601123D01*
X100348469Y-92652264D01*
X100361905Y-92721977D01*
X100335518Y-92787888D01*
X100299812Y-92818828D01*
X100295703Y-92820744D01*
X100214228Y-92877793D01*
X100109079Y-92951419D01*
X100109076Y-92951421D01*
X100104568Y-92954578D01*
X99939578Y-93119568D01*
X99936421Y-93124076D01*
X99936419Y-93124079D01*
X99836809Y-93266337D01*
X99805744Y-93310703D01*
X99803421Y-93315685D01*
X99803418Y-93315690D01*
X99731311Y-93470324D01*
X99707133Y-93522174D01*
X99646742Y-93747556D01*
X99626406Y-93980000D01*
X99646742Y-94212444D01*
X99707133Y-94437826D01*
X99709455Y-94442806D01*
X99709456Y-94442808D01*
X99803418Y-94644310D01*
X99803421Y-94644315D01*
X99805744Y-94649297D01*
X99808900Y-94653804D01*
X99808901Y-94653806D01*
X99866385Y-94735901D01*
X99939578Y-94840432D01*
X100104568Y-95005422D01*
X100109076Y-95008579D01*
X100109079Y-95008581D01*
X100214228Y-95082207D01*
X100295703Y-95139256D01*
X100299707Y-95141123D01*
X100348469Y-95192264D01*
X100361905Y-95261977D01*
X100335518Y-95327888D01*
X100299812Y-95358828D01*
X100295703Y-95360744D01*
X100291199Y-95363898D01*
X100109079Y-95491419D01*
X100109076Y-95491421D01*
X100104568Y-95494578D01*
X99939578Y-95659568D01*
X99936421Y-95664076D01*
X99936419Y-95664079D01*
X99857786Y-95776379D01*
X99805744Y-95850703D01*
X99803421Y-95855685D01*
X99803418Y-95855690D01*
X99731311Y-96010324D01*
X99707133Y-96062174D01*
X99646742Y-96287556D01*
X99626406Y-96520000D01*
X99646742Y-96752444D01*
X99648166Y-96757757D01*
X99648166Y-96757759D01*
X99653197Y-96776533D01*
X99707133Y-96977826D01*
X99709455Y-96982806D01*
X99709456Y-96982808D01*
X99803418Y-97184310D01*
X99803421Y-97184315D01*
X99805744Y-97189297D01*
X99808900Y-97193804D01*
X99808901Y-97193806D01*
X99926553Y-97361830D01*
X99939578Y-97380432D01*
X100104568Y-97545422D01*
X100109076Y-97548579D01*
X100109079Y-97548581D01*
X100180690Y-97598723D01*
X100295703Y-97679256D01*
X100299707Y-97681123D01*
X100348469Y-97732264D01*
X100361905Y-97801977D01*
X100335518Y-97867888D01*
X100299812Y-97898828D01*
X100295703Y-97900744D01*
X100291199Y-97903898D01*
X100109079Y-98031419D01*
X100109076Y-98031421D01*
X100104568Y-98034578D01*
X99939578Y-98199568D01*
X99936421Y-98204076D01*
X99936419Y-98204079D01*
X99808901Y-98386194D01*
X99805744Y-98390703D01*
X99803421Y-98395685D01*
X99803418Y-98395690D01*
X99740617Y-98530367D01*
X99707133Y-98602174D01*
X99646742Y-98827556D01*
X99626406Y-99060000D01*
X99646742Y-99292444D01*
X99707133Y-99517826D01*
X99709455Y-99522806D01*
X99709456Y-99522808D01*
X99803418Y-99724310D01*
X99803421Y-99724315D01*
X99805744Y-99729297D01*
X99808900Y-99733804D01*
X99808901Y-99733806D01*
X99866385Y-99815901D01*
X99939578Y-99920432D01*
X100104568Y-100085422D01*
X100109076Y-100088579D01*
X100109079Y-100088581D01*
X100214228Y-100162207D01*
X100295703Y-100219256D01*
X100299707Y-100221123D01*
X100348469Y-100272264D01*
X100361905Y-100341977D01*
X100335518Y-100407888D01*
X100299812Y-100438828D01*
X100295703Y-100440744D01*
X100291199Y-100443898D01*
X100109079Y-100571419D01*
X100109076Y-100571421D01*
X100104568Y-100574578D01*
X99939578Y-100739568D01*
X99936421Y-100744076D01*
X99936419Y-100744079D01*
X99894108Y-100804506D01*
X99805744Y-100930703D01*
X99803421Y-100935685D01*
X99803418Y-100935690D01*
X99709456Y-101137192D01*
X99707133Y-101142174D01*
X99646742Y-101367556D01*
X99626406Y-101600000D01*
X99646742Y-101832444D01*
X99648166Y-101837757D01*
X99648166Y-101837759D01*
X99653197Y-101856533D01*
X99707133Y-102057826D01*
X99709455Y-102062806D01*
X99709456Y-102062808D01*
X99803418Y-102264310D01*
X99803421Y-102264315D01*
X99805744Y-102269297D01*
X99808900Y-102273804D01*
X99808901Y-102273806D01*
X99926553Y-102441830D01*
X99939578Y-102460432D01*
X100104568Y-102625422D01*
X100109076Y-102628579D01*
X100109079Y-102628581D01*
X100180690Y-102678723D01*
X100295703Y-102759256D01*
X100299707Y-102761123D01*
X100348469Y-102812264D01*
X100361905Y-102881977D01*
X100335518Y-102947888D01*
X100299812Y-102978828D01*
X100295703Y-102980744D01*
X100291199Y-102983898D01*
X100109079Y-103111419D01*
X100109076Y-103111421D01*
X100104568Y-103114578D01*
X99939578Y-103279568D01*
X99936421Y-103284076D01*
X99936419Y-103284079D01*
X99808901Y-103466194D01*
X99805744Y-103470703D01*
X99803421Y-103475685D01*
X99803418Y-103475690D01*
X99740617Y-103610367D01*
X99707133Y-103682174D01*
X99646742Y-103907556D01*
X99626406Y-104140000D01*
X99646742Y-104372444D01*
X99707133Y-104597826D01*
X99709455Y-104602806D01*
X99709456Y-104602808D01*
X99803418Y-104804310D01*
X99803421Y-104804315D01*
X99805744Y-104809297D01*
X99939578Y-105000432D01*
X100104568Y-105165422D01*
X100109076Y-105168579D01*
X100109079Y-105168581D01*
X100214228Y-105242207D01*
X100295703Y-105299256D01*
X100299707Y-105301123D01*
X100348469Y-105352264D01*
X100361905Y-105421977D01*
X100335518Y-105487888D01*
X100299812Y-105518828D01*
X100295703Y-105520744D01*
X100291199Y-105523898D01*
X100109079Y-105651419D01*
X100109076Y-105651421D01*
X100104568Y-105654578D01*
X99939578Y-105819568D01*
X99805744Y-106010703D01*
X99803421Y-106015685D01*
X99803418Y-106015690D01*
X99803301Y-106015941D01*
X99707133Y-106222174D01*
X99646742Y-106447556D01*
X99626406Y-106680000D01*
X92583000Y-106680000D01*
X92583000Y-83170150D01*
X96111482Y-83170150D01*
X96111998Y-83176294D01*
X96127873Y-83365342D01*
X96128852Y-83377004D01*
X96186069Y-83576545D01*
X96188887Y-83582027D01*
X96188888Y-83582031D01*
X96234450Y-83670684D01*
X96280955Y-83761173D01*
X96409894Y-83923854D01*
X96414581Y-83927843D01*
X96414584Y-83927846D01*
X96486028Y-83988649D01*
X96567976Y-84058392D01*
X96749180Y-84159664D01*
X96946603Y-84223810D01*
X97152725Y-84248389D01*
X97158860Y-84247917D01*
X97158862Y-84247917D01*
X97353555Y-84232936D01*
X97353560Y-84232935D01*
X97359696Y-84232463D01*
X97365626Y-84230807D01*
X97365628Y-84230807D01*
X97459664Y-84204551D01*
X97559632Y-84176640D01*
X97633349Y-84139403D01*
X97739416Y-84085825D01*
X97739418Y-84085824D01*
X97744917Y-84083046D01*
X97865740Y-83988649D01*
X97903634Y-83959043D01*
X97903635Y-83959042D01*
X97908495Y-83955245D01*
X98044133Y-83798106D01*
X98054607Y-83779669D01*
X98617001Y-83779669D01*
X98617371Y-83786490D01*
X98622895Y-83837352D01*
X98626521Y-83852604D01*
X98671676Y-83973054D01*
X98680214Y-83988649D01*
X98756715Y-84090724D01*
X98769276Y-84103285D01*
X98871351Y-84179786D01*
X98886946Y-84188324D01*
X99007394Y-84233478D01*
X99022649Y-84237105D01*
X99073514Y-84242631D01*
X99080328Y-84243000D01*
X99402885Y-84243000D01*
X99418124Y-84238525D01*
X99419329Y-84237135D01*
X99421000Y-84229452D01*
X99421000Y-84224884D01*
X99929000Y-84224884D01*
X99933475Y-84240123D01*
X99934865Y-84241328D01*
X99942548Y-84242999D01*
X100269669Y-84242999D01*
X100276490Y-84242629D01*
X100327352Y-84237105D01*
X100342604Y-84233479D01*
X100463054Y-84188324D01*
X100478649Y-84179786D01*
X100580724Y-84103285D01*
X100593285Y-84090724D01*
X100669786Y-83988649D01*
X100678324Y-83973054D01*
X100723478Y-83852606D01*
X100727105Y-83837351D01*
X100732631Y-83786486D01*
X100733000Y-83779672D01*
X100733000Y-83457115D01*
X100728525Y-83441876D01*
X100727135Y-83440671D01*
X100719452Y-83439000D01*
X99947115Y-83439000D01*
X99931876Y-83443475D01*
X99930671Y-83444865D01*
X99929000Y-83452548D01*
X99929000Y-84224884D01*
X99421000Y-84224884D01*
X99421000Y-83457115D01*
X99416525Y-83441876D01*
X99415135Y-83440671D01*
X99407452Y-83439000D01*
X98635116Y-83439000D01*
X98619877Y-83443475D01*
X98618672Y-83444865D01*
X98617001Y-83452548D01*
X98617001Y-83779669D01*
X98054607Y-83779669D01*
X98068227Y-83755694D01*
X98143620Y-83622977D01*
X98146667Y-83617614D01*
X98212190Y-83420644D01*
X98238207Y-83214698D01*
X98238622Y-83185000D01*
X98222570Y-83021295D01*
X98218966Y-82984534D01*
X98218965Y-82984531D01*
X98218365Y-82978408D01*
X98198583Y-82912885D01*
X98617000Y-82912885D01*
X98621475Y-82928124D01*
X98622865Y-82929329D01*
X98630548Y-82931000D01*
X99402885Y-82931000D01*
X99418124Y-82926525D01*
X99419329Y-82925135D01*
X99421000Y-82917452D01*
X99421000Y-82912885D01*
X99929000Y-82912885D01*
X99933475Y-82928124D01*
X99934865Y-82929329D01*
X99942548Y-82931000D01*
X100714884Y-82931000D01*
X100730123Y-82926525D01*
X100731328Y-82925135D01*
X100732999Y-82917452D01*
X100732999Y-82590331D01*
X100732629Y-82583510D01*
X100727105Y-82532648D01*
X100723479Y-82517396D01*
X100678324Y-82396946D01*
X100669786Y-82381351D01*
X100593285Y-82279276D01*
X100580724Y-82266715D01*
X100478649Y-82190214D01*
X100463054Y-82181676D01*
X100342606Y-82136522D01*
X100327351Y-82132895D01*
X100276486Y-82127369D01*
X100269672Y-82127000D01*
X99947115Y-82127000D01*
X99931876Y-82131475D01*
X99930671Y-82132865D01*
X99929000Y-82140548D01*
X99929000Y-82912885D01*
X99421000Y-82912885D01*
X99421000Y-82145116D01*
X99416525Y-82129877D01*
X99415135Y-82128672D01*
X99407452Y-82127001D01*
X99080331Y-82127001D01*
X99073510Y-82127371D01*
X99022648Y-82132895D01*
X99007396Y-82136521D01*
X98886946Y-82181676D01*
X98871351Y-82190214D01*
X98769276Y-82266715D01*
X98756715Y-82279276D01*
X98680214Y-82381351D01*
X98671676Y-82396946D01*
X98626522Y-82517394D01*
X98622895Y-82532649D01*
X98617369Y-82583514D01*
X98617000Y-82590328D01*
X98617000Y-82912885D01*
X98198583Y-82912885D01*
X98158368Y-82779685D01*
X98060913Y-82596401D01*
X97996477Y-82517394D01*
X97933610Y-82440311D01*
X97933607Y-82440308D01*
X97929715Y-82435536D01*
X97922770Y-82429790D01*
X97774518Y-82307145D01*
X97774519Y-82307145D01*
X97769770Y-82303217D01*
X97764353Y-82300288D01*
X97764350Y-82300286D01*
X97592590Y-82207416D01*
X97592585Y-82207414D01*
X97587170Y-82204486D01*
X97388871Y-82143102D01*
X97382746Y-82142458D01*
X97382745Y-82142458D01*
X97188554Y-82122048D01*
X97188552Y-82122048D01*
X97182425Y-82121404D01*
X97116882Y-82127369D01*
X96981836Y-82139659D01*
X96981833Y-82139660D01*
X96975697Y-82140218D01*
X96969791Y-82141956D01*
X96969787Y-82141957D01*
X96834834Y-82181676D01*
X96776560Y-82198827D01*
X96592600Y-82294999D01*
X96430823Y-82425071D01*
X96426865Y-82429788D01*
X96426863Y-82429790D01*
X96422042Y-82435536D01*
X96297391Y-82584089D01*
X96294427Y-82589481D01*
X96294424Y-82589485D01*
X96226624Y-82712813D01*
X96197387Y-82765995D01*
X96134621Y-82963861D01*
X96133935Y-82969978D01*
X96133934Y-82969982D01*
X96112169Y-83164025D01*
X96111482Y-83170150D01*
X92583000Y-83170150D01*
X92583000Y-53441329D01*
X92603002Y-53373208D01*
X92641541Y-53339813D01*
X92640512Y-53339274D01*
X92776556Y-53339274D01*
X92791512Y-53346105D01*
X92829896Y-53405831D01*
X92834816Y-53434515D01*
X92837901Y-53491475D01*
X92883357Y-53724242D01*
X92967382Y-53946023D01*
X92981400Y-53969868D01*
X93084868Y-54145874D01*
X93084872Y-54145879D01*
X93087574Y-54150476D01*
X93091017Y-54154557D01*
X93091018Y-54154559D01*
X93174607Y-54253649D01*
X93240495Y-54331755D01*
X93244573Y-54335195D01*
X93344505Y-54419494D01*
X93421774Y-54484676D01*
X93426371Y-54487378D01*
X93426376Y-54487382D01*
X93468158Y-54511944D01*
X93626227Y-54604868D01*
X93848008Y-54688893D01*
X93853237Y-54689914D01*
X93853240Y-54689915D01*
X94071006Y-54732441D01*
X94080775Y-54734349D01*
X94088713Y-54734779D01*
X94137266Y-54737409D01*
X94137282Y-54737409D01*
X94138954Y-54737500D01*
X94325546Y-54737500D01*
X94327218Y-54737409D01*
X94327234Y-54737409D01*
X94375787Y-54734779D01*
X94383725Y-54734349D01*
X94393494Y-54732441D01*
X94611260Y-54689915D01*
X94611263Y-54689914D01*
X94616492Y-54688893D01*
X94678250Y-54665495D01*
X94749039Y-54660065D01*
X94811526Y-54693768D01*
X94845872Y-54755904D01*
X94841172Y-54826745D01*
X94817837Y-54865304D01*
X94818180Y-54865586D01*
X94790847Y-54898860D01*
X94790185Y-54899658D01*
X94730335Y-54970985D01*
X94727767Y-54975655D01*
X94724386Y-54979772D01*
X94706120Y-55013838D01*
X94680512Y-55061597D01*
X94679883Y-55062756D01*
X94638027Y-55138892D01*
X94638024Y-55138900D01*
X94635056Y-55144298D01*
X94633444Y-55149380D01*
X94630927Y-55154074D01*
X94603727Y-55243042D01*
X94603407Y-55244070D01*
X94575254Y-55332817D01*
X94574660Y-55338113D01*
X94573102Y-55343209D01*
X94567643Y-55396954D01*
X94563707Y-55435698D01*
X94563578Y-55436904D01*
X94557989Y-55486738D01*
X94557989Y-55490265D01*
X94557934Y-55491250D01*
X94557487Y-55496930D01*
X94553115Y-55539973D01*
X94553695Y-55546104D01*
X94557430Y-55585620D01*
X94557989Y-55597478D01*
X94557989Y-73894646D01*
X94557252Y-73908253D01*
X94556086Y-73918992D01*
X94553165Y-73945877D01*
X94553702Y-73952012D01*
X94557539Y-73995877D01*
X94557868Y-74000703D01*
X94557989Y-74003175D01*
X94557989Y-74006258D01*
X94558290Y-74009326D01*
X94562179Y-74048995D01*
X94562301Y-74050308D01*
X94570402Y-74142902D01*
X94571889Y-74148021D01*
X94572409Y-74153322D01*
X94599280Y-74242323D01*
X94599615Y-74243456D01*
X94616867Y-74302835D01*
X94625580Y-74332825D01*
X94628033Y-74337557D01*
X94629573Y-74342658D01*
X94632467Y-74348101D01*
X94673220Y-74424749D01*
X94673832Y-74425915D01*
X94711521Y-74498622D01*
X94716597Y-74508415D01*
X94719920Y-74512578D01*
X94722423Y-74517285D01*
X94781244Y-74589407D01*
X94781935Y-74590263D01*
X94813227Y-74629462D01*
X94815731Y-74631966D01*
X94816373Y-74632684D01*
X94820074Y-74637017D01*
X94847424Y-74670551D01*
X94852171Y-74674478D01*
X94852173Y-74674480D01*
X94882751Y-74699776D01*
X94891531Y-74707766D01*
X103840498Y-83656732D01*
X103863466Y-83688228D01*
X103900955Y-83761173D01*
X104029894Y-83923854D01*
X104034581Y-83927843D01*
X104034584Y-83927846D01*
X104106028Y-83988649D01*
X104187976Y-84058392D01*
X104193353Y-84061397D01*
X104295544Y-84118510D01*
X104323168Y-84139403D01*
X109753149Y-89569384D01*
X109762251Y-89579527D01*
X109785968Y-89609025D01*
X109824450Y-89641315D01*
X109828062Y-89644467D01*
X109829888Y-89646123D01*
X109832075Y-89648310D01*
X109834458Y-89650267D01*
X109834463Y-89650272D01*
X109865268Y-89675576D01*
X109866252Y-89676393D01*
X109937474Y-89736154D01*
X109942147Y-89738723D01*
X109946262Y-89742103D01*
X109951691Y-89745014D01*
X109951694Y-89745016D01*
X110028180Y-89786028D01*
X110029338Y-89786657D01*
X110056713Y-89801706D01*
X110110787Y-89831433D01*
X110115865Y-89833044D01*
X110120563Y-89835563D01*
X110209498Y-89862753D01*
X110210702Y-89863128D01*
X110299306Y-89891235D01*
X110304597Y-89891828D01*
X110309698Y-89893388D01*
X110402311Y-89902795D01*
X110403431Y-89902915D01*
X110453227Y-89908500D01*
X110456756Y-89908500D01*
X110457739Y-89908555D01*
X110463426Y-89909003D01*
X110483683Y-89911060D01*
X110500336Y-89912752D01*
X110500339Y-89912752D01*
X110506463Y-89913374D01*
X110552112Y-89909059D01*
X110563969Y-89908500D01*
X112740673Y-89908500D01*
X112812944Y-89931287D01*
X112995703Y-90059256D01*
X113000113Y-90061312D01*
X113048970Y-90112551D01*
X113062407Y-90182265D01*
X113036021Y-90248176D01*
X112999981Y-90279406D01*
X112991449Y-90284332D01*
X112934000Y-90324559D01*
X112925625Y-90335036D01*
X112932693Y-90348483D01*
X113652188Y-91067978D01*
X113666132Y-91075592D01*
X113667965Y-91075461D01*
X113674580Y-91071210D01*
X114398028Y-90347762D01*
X114404458Y-90335987D01*
X114395162Y-90323972D01*
X114338551Y-90284332D01*
X114330019Y-90279406D01*
X114281027Y-90228021D01*
X114267594Y-90158307D01*
X114293983Y-90092397D01*
X114329825Y-90061341D01*
X114334297Y-90059256D01*
X114449070Y-89978891D01*
X114520921Y-89928581D01*
X114520924Y-89928579D01*
X114525432Y-89925422D01*
X114690422Y-89760432D01*
X114701217Y-89745016D01*
X114821099Y-89573806D01*
X114821100Y-89573804D01*
X114824256Y-89569297D01*
X114826579Y-89564315D01*
X114826582Y-89564310D01*
X114920544Y-89362808D01*
X114920545Y-89362806D01*
X114922867Y-89357826D01*
X114983258Y-89132444D01*
X115003594Y-88900000D01*
X114983258Y-88667556D01*
X114964585Y-88597866D01*
X114924290Y-88447484D01*
X114924289Y-88447482D01*
X114922867Y-88442174D01*
X114889383Y-88370367D01*
X114826582Y-88235690D01*
X114826579Y-88235685D01*
X114824256Y-88230703D01*
X114821099Y-88226194D01*
X114693581Y-88044079D01*
X114693579Y-88044076D01*
X114690422Y-88039568D01*
X114525432Y-87874578D01*
X114520924Y-87871421D01*
X114520921Y-87871419D01*
X114338806Y-87743901D01*
X114338804Y-87743900D01*
X114334297Y-87740744D01*
X114329315Y-87738421D01*
X114329310Y-87738418D01*
X114127808Y-87644456D01*
X114127806Y-87644455D01*
X114122826Y-87642133D01*
X114117518Y-87640711D01*
X114117516Y-87640710D01*
X113902759Y-87583166D01*
X113902757Y-87583166D01*
X113897444Y-87581742D01*
X113665000Y-87561406D01*
X113432556Y-87581742D01*
X113427243Y-87583166D01*
X113427241Y-87583166D01*
X113212484Y-87640710D01*
X113212482Y-87640711D01*
X113207174Y-87642133D01*
X113202194Y-87644455D01*
X113202192Y-87644456D01*
X113000690Y-87738418D01*
X113000685Y-87738421D01*
X112995703Y-87740744D01*
X112991196Y-87743900D01*
X112991194Y-87743901D01*
X112812944Y-87868713D01*
X112740673Y-87891500D01*
X110979924Y-87891500D01*
X110911803Y-87871498D01*
X110890829Y-87854595D01*
X109375152Y-86338918D01*
X119271917Y-86338918D01*
X119287682Y-86612320D01*
X119288507Y-86616525D01*
X119288508Y-86616533D01*
X119299127Y-86670657D01*
X119340405Y-86881053D01*
X119341792Y-86885103D01*
X119341793Y-86885108D01*
X119362605Y-86945895D01*
X119429112Y-87140144D01*
X119552160Y-87384799D01*
X119554586Y-87388328D01*
X119554589Y-87388334D01*
X119677040Y-87566500D01*
X119707274Y-87610490D01*
X119710161Y-87613663D01*
X119710162Y-87613664D01*
X119748665Y-87655978D01*
X119891582Y-87813043D01*
X120101675Y-87988707D01*
X120105316Y-87990991D01*
X120330024Y-88131951D01*
X120330028Y-88131953D01*
X120333664Y-88134234D01*
X120401544Y-88164883D01*
X120579345Y-88245164D01*
X120579349Y-88245166D01*
X120583257Y-88246930D01*
X120587377Y-88248150D01*
X120587376Y-88248150D01*
X120841723Y-88323491D01*
X120841727Y-88323492D01*
X120845836Y-88324709D01*
X120850070Y-88325357D01*
X120850075Y-88325358D01*
X121112298Y-88365483D01*
X121112300Y-88365483D01*
X121116540Y-88366132D01*
X121255912Y-88368322D01*
X121386071Y-88370367D01*
X121386077Y-88370367D01*
X121390362Y-88370434D01*
X121662235Y-88337534D01*
X121927127Y-88268041D01*
X121931087Y-88266401D01*
X121931092Y-88266399D01*
X122089531Y-88200771D01*
X122180136Y-88163241D01*
X122416582Y-88025073D01*
X122632089Y-87856094D01*
X122650881Y-87836703D01*
X122771979Y-87711739D01*
X122822669Y-87659431D01*
X122825202Y-87655983D01*
X122825206Y-87655978D01*
X122982257Y-87442178D01*
X122984795Y-87438723D01*
X123012154Y-87388334D01*
X123113418Y-87201830D01*
X123113419Y-87201828D01*
X123115468Y-87198054D01*
X123212269Y-86941877D01*
X123273407Y-86674933D01*
X123297751Y-86402161D01*
X123298193Y-86360000D01*
X123279567Y-86086778D01*
X123224032Y-85818612D01*
X123132617Y-85560465D01*
X123007013Y-85317112D01*
X122997040Y-85302921D01*
X122852008Y-85096562D01*
X122849545Y-85093057D01*
X122663125Y-84892445D01*
X122659810Y-84889731D01*
X122659806Y-84889728D01*
X122454523Y-84721706D01*
X122451205Y-84718990D01*
X122217704Y-84575901D01*
X122213768Y-84574173D01*
X121970873Y-84467549D01*
X121970869Y-84467548D01*
X121966945Y-84465825D01*
X121703566Y-84390800D01*
X121699324Y-84390196D01*
X121699318Y-84390195D01*
X121498834Y-84361662D01*
X121432443Y-84352213D01*
X121288589Y-84351460D01*
X121162877Y-84350802D01*
X121162871Y-84350802D01*
X121158591Y-84350780D01*
X121154347Y-84351339D01*
X121154343Y-84351339D01*
X121035302Y-84367011D01*
X120887078Y-84386525D01*
X120882938Y-84387658D01*
X120882936Y-84387658D01*
X120853236Y-84395783D01*
X120622928Y-84458788D01*
X120618980Y-84460472D01*
X120374982Y-84564546D01*
X120374978Y-84564548D01*
X120371030Y-84566232D01*
X120351125Y-84578145D01*
X120139725Y-84704664D01*
X120139721Y-84704667D01*
X120136043Y-84706868D01*
X119922318Y-84878094D01*
X119733808Y-85076742D01*
X119574002Y-85299136D01*
X119445857Y-85541161D01*
X119444385Y-85545184D01*
X119444383Y-85545188D01*
X119437314Y-85564506D01*
X119351743Y-85798337D01*
X119293404Y-86065907D01*
X119271917Y-86338918D01*
X109375152Y-86338918D01*
X107494329Y-84458095D01*
X107460303Y-84395783D01*
X107465368Y-84324968D01*
X107507915Y-84268132D01*
X107574435Y-84243321D01*
X107583424Y-84243000D01*
X107889668Y-84242999D01*
X107896490Y-84242629D01*
X107947352Y-84237105D01*
X107962604Y-84233479D01*
X108083054Y-84188324D01*
X108098649Y-84179786D01*
X108200724Y-84103285D01*
X108213285Y-84090724D01*
X108289786Y-83988649D01*
X108298324Y-83973054D01*
X108343478Y-83852606D01*
X108347105Y-83837351D01*
X108352631Y-83786486D01*
X108353000Y-83779672D01*
X108353000Y-83457115D01*
X108348525Y-83441876D01*
X108347135Y-83440671D01*
X108339452Y-83439000D01*
X107167000Y-83439000D01*
X107098879Y-83418998D01*
X107052386Y-83365342D01*
X107041000Y-83313000D01*
X107041000Y-82912885D01*
X107549000Y-82912885D01*
X107553475Y-82928124D01*
X107554865Y-82929329D01*
X107562548Y-82931000D01*
X108334884Y-82931000D01*
X108350123Y-82926525D01*
X108351328Y-82925135D01*
X108352999Y-82917452D01*
X108352999Y-82590331D01*
X108352629Y-82583510D01*
X108347105Y-82532648D01*
X108343479Y-82517396D01*
X108298324Y-82396946D01*
X108289786Y-82381351D01*
X108213285Y-82279276D01*
X108200724Y-82266715D01*
X108098649Y-82190214D01*
X108083054Y-82181676D01*
X107962606Y-82136522D01*
X107947351Y-82132895D01*
X107896486Y-82127369D01*
X107889672Y-82127000D01*
X107567115Y-82127000D01*
X107551876Y-82131475D01*
X107550671Y-82132865D01*
X107549000Y-82140548D01*
X107549000Y-82912885D01*
X107041000Y-82912885D01*
X107041000Y-82145116D01*
X107036525Y-82129877D01*
X107035135Y-82128672D01*
X107027452Y-82127001D01*
X106700331Y-82127001D01*
X106693510Y-82127371D01*
X106642648Y-82132895D01*
X106627396Y-82136521D01*
X106506946Y-82181676D01*
X106491351Y-82190214D01*
X106389276Y-82266715D01*
X106376715Y-82279276D01*
X106300214Y-82381351D01*
X106291676Y-82396946D01*
X106246522Y-82517394D01*
X106242895Y-82532649D01*
X106237369Y-82583514D01*
X106237000Y-82590327D01*
X106237001Y-82896577D01*
X106216999Y-82964697D01*
X106163344Y-83011190D01*
X106093070Y-83021295D01*
X106028489Y-82991802D01*
X106021906Y-82985672D01*
X105749047Y-82712813D01*
X105726891Y-82682872D01*
X105683809Y-82601847D01*
X105683808Y-82601845D01*
X105680913Y-82596401D01*
X105616477Y-82517394D01*
X105553610Y-82440311D01*
X105553607Y-82440308D01*
X105549715Y-82435536D01*
X105542770Y-82429790D01*
X105394519Y-82307146D01*
X105394518Y-82307145D01*
X105389770Y-82303217D01*
X105384353Y-82300288D01*
X105384347Y-82300284D01*
X105296382Y-82252722D01*
X105267215Y-82230981D01*
X102078368Y-79042134D01*
X104647500Y-79042134D01*
X104654255Y-79104316D01*
X104705385Y-79240705D01*
X104792739Y-79357261D01*
X104909295Y-79444615D01*
X105045684Y-79495745D01*
X105107866Y-79502500D01*
X106982134Y-79502500D01*
X107044316Y-79495745D01*
X107180705Y-79444615D01*
X107297261Y-79357261D01*
X107384615Y-79240705D01*
X107435745Y-79104316D01*
X107442500Y-79042134D01*
X107442500Y-77167866D01*
X107435745Y-77105684D01*
X107384615Y-76969295D01*
X107297261Y-76852739D01*
X107180705Y-76765385D01*
X107104879Y-76736959D01*
X107048115Y-76694317D01*
X107023415Y-76627756D01*
X107038622Y-76558407D01*
X107052794Y-76537741D01*
X107189676Y-76375476D01*
X107192378Y-76370879D01*
X107192382Y-76370874D01*
X107252738Y-76268205D01*
X107309868Y-76171023D01*
X107393893Y-75949242D01*
X107439349Y-75716475D01*
X107442500Y-75658296D01*
X107442500Y-75471704D01*
X107439349Y-75413525D01*
X107393893Y-75180758D01*
X107309868Y-74958977D01*
X107252738Y-74861795D01*
X107192382Y-74759126D01*
X107192378Y-74759121D01*
X107189676Y-74754524D01*
X107150233Y-74707766D01*
X107040195Y-74577323D01*
X107036755Y-74573245D01*
X106855476Y-74420324D01*
X106850879Y-74417622D01*
X106850874Y-74417618D01*
X106723362Y-74342658D01*
X106651023Y-74300132D01*
X106429242Y-74216107D01*
X106424013Y-74215086D01*
X106424010Y-74215085D01*
X106200761Y-74171488D01*
X106196475Y-74170651D01*
X106188537Y-74170221D01*
X106139984Y-74167591D01*
X106139969Y-74167591D01*
X106138296Y-74167500D01*
X105951704Y-74167500D01*
X105950031Y-74167591D01*
X105950016Y-74167591D01*
X105901463Y-74170221D01*
X105893525Y-74170651D01*
X105889239Y-74171488D01*
X105665990Y-74215085D01*
X105665987Y-74215086D01*
X105660758Y-74216107D01*
X105438977Y-74300132D01*
X105366638Y-74342658D01*
X105239126Y-74417618D01*
X105239121Y-74417622D01*
X105234524Y-74420324D01*
X105053245Y-74573245D01*
X105049805Y-74577323D01*
X104939768Y-74707766D01*
X104900324Y-74754524D01*
X104897622Y-74759121D01*
X104897618Y-74759126D01*
X104837262Y-74861795D01*
X104780132Y-74958977D01*
X104696107Y-75180758D01*
X104650651Y-75413525D01*
X104647500Y-75471704D01*
X104647500Y-75658296D01*
X104650651Y-75716475D01*
X104696107Y-75949242D01*
X104780132Y-76171023D01*
X104837262Y-76268205D01*
X104897618Y-76370874D01*
X104897622Y-76370879D01*
X104900324Y-76375476D01*
X105037201Y-76537736D01*
X105065835Y-76602699D01*
X105054801Y-76672833D01*
X105007601Y-76725868D01*
X104985120Y-76736959D01*
X104909295Y-76765385D01*
X104792739Y-76852739D01*
X104705385Y-76969295D01*
X104654255Y-77105684D01*
X104647500Y-77167866D01*
X104647500Y-79042134D01*
X102078368Y-79042134D01*
X96661703Y-73625469D01*
X107807095Y-73625469D01*
X107807392Y-73630622D01*
X107807392Y-73630625D01*
X107813067Y-73729041D01*
X107820427Y-73856697D01*
X107821564Y-73861743D01*
X107821565Y-73861749D01*
X107851793Y-73995877D01*
X107871346Y-74082642D01*
X107873288Y-74087424D01*
X107873289Y-74087428D01*
X107936133Y-74242193D01*
X107958484Y-74297237D01*
X108079501Y-74494719D01*
X108231147Y-74669784D01*
X108409349Y-74817730D01*
X108609322Y-74934584D01*
X108614147Y-74936426D01*
X108614148Y-74936427D01*
X108686257Y-74963963D01*
X108825694Y-75017209D01*
X108830760Y-75018240D01*
X108830761Y-75018240D01*
X108883846Y-75029040D01*
X109052656Y-75063385D01*
X109182089Y-75068131D01*
X109278949Y-75071683D01*
X109278953Y-75071683D01*
X109284113Y-75071872D01*
X109289233Y-75071216D01*
X109289235Y-75071216D01*
X109363166Y-75061745D01*
X109513847Y-75042442D01*
X109518795Y-75040957D01*
X109518802Y-75040956D01*
X109730747Y-74977369D01*
X109735690Y-74975886D01*
X109770206Y-74958977D01*
X109939049Y-74876262D01*
X109939052Y-74876260D01*
X109943684Y-74873991D01*
X110132243Y-74739494D01*
X110296303Y-74576005D01*
X110431458Y-74387917D01*
X110452620Y-74345100D01*
X110531784Y-74184922D01*
X110531785Y-74184920D01*
X110534078Y-74180280D01*
X110601408Y-73958671D01*
X110631640Y-73729041D01*
X110631722Y-73725691D01*
X110633245Y-73663365D01*
X110633245Y-73663361D01*
X110633327Y-73660000D01*
X110615499Y-73443152D01*
X110614773Y-73434318D01*
X110614772Y-73434312D01*
X110614349Y-73429167D01*
X110557925Y-73204533D01*
X110555866Y-73199797D01*
X110467630Y-72996868D01*
X110467628Y-72996865D01*
X110465570Y-72992131D01*
X110339764Y-72797665D01*
X110183887Y-72626358D01*
X110179836Y-72623159D01*
X110179832Y-72623155D01*
X110006669Y-72486400D01*
X109965606Y-72428483D01*
X109962374Y-72357560D01*
X109997999Y-72296148D01*
X110003487Y-72291623D01*
X110013497Y-72278874D01*
X110006510Y-72265721D01*
X109232811Y-71492021D01*
X109218868Y-71484408D01*
X109217034Y-71484539D01*
X109210420Y-71488790D01*
X108430180Y-72269031D01*
X108423423Y-72281406D01*
X108442730Y-72307197D01*
X108442040Y-72307713D01*
X108466627Y-72333737D01*
X108479743Y-72403511D01*
X108453055Y-72469300D01*
X108430023Y-72491719D01*
X108356299Y-72547073D01*
X108281655Y-72603117D01*
X108278083Y-72606855D01*
X108169777Y-72720191D01*
X108121639Y-72770564D01*
X108118725Y-72774836D01*
X108118724Y-72774837D01*
X108103152Y-72797665D01*
X107991119Y-72961899D01*
X107893602Y-73171981D01*
X107831707Y-73395169D01*
X107807095Y-73625469D01*
X96661703Y-73625469D01*
X96611894Y-73575660D01*
X96577868Y-73513348D01*
X96574989Y-73486565D01*
X96574989Y-72633943D01*
X96594991Y-72565822D01*
X96648647Y-72519329D01*
X96718919Y-72509225D01*
X96754815Y-72514385D01*
X96773000Y-72517000D01*
X101715334Y-72517000D01*
X101797833Y-72509122D01*
X101808494Y-72508104D01*
X101808495Y-72508104D01*
X101811478Y-72507819D01*
X101858307Y-72498793D01*
X101950967Y-72471585D01*
X102076187Y-72399289D01*
X102131994Y-72355402D01*
X102231772Y-72250759D01*
X102253871Y-72207894D01*
X102295969Y-72126237D01*
X102295970Y-72126236D01*
X102298029Y-72122241D01*
X102321250Y-72055150D01*
X102340608Y-71954719D01*
X102346911Y-71922015D01*
X102348616Y-71913169D01*
X102334872Y-71769232D01*
X102318134Y-71700236D01*
X102264394Y-71566000D01*
X102254732Y-71549264D01*
X102244018Y-71525201D01*
X102226187Y-71470322D01*
X102220710Y-71444558D01*
X102214678Y-71387172D01*
X102214678Y-71360829D01*
X102220710Y-71303442D01*
X102226187Y-71277677D01*
X102244018Y-71222799D01*
X102254731Y-71198736D01*
X102260328Y-71189041D01*
X102277060Y-71160061D01*
X102305816Y-71090638D01*
X107807893Y-71090638D01*
X107820627Y-71311468D01*
X107822061Y-71321670D01*
X107870685Y-71537439D01*
X107873773Y-71547292D01*
X107956986Y-71752220D01*
X107961634Y-71761421D01*
X108050097Y-71905781D01*
X108060553Y-71915242D01*
X108069331Y-71911458D01*
X108847979Y-71132811D01*
X108854356Y-71121132D01*
X109584408Y-71121132D01*
X109584539Y-71122966D01*
X109588790Y-71129580D01*
X110366307Y-71907096D01*
X110378313Y-71913652D01*
X110390052Y-71904684D01*
X110428010Y-71851859D01*
X110433321Y-71843020D01*
X110531318Y-71644737D01*
X110535117Y-71635142D01*
X110599415Y-71423517D01*
X110601594Y-71413436D01*
X110630702Y-71192338D01*
X110631221Y-71185663D01*
X110632744Y-71123364D01*
X110632550Y-71116646D01*
X110614279Y-70894400D01*
X110612596Y-70884238D01*
X110558710Y-70669708D01*
X110555389Y-70659953D01*
X110467193Y-70457118D01*
X110462315Y-70448020D01*
X110389224Y-70335038D01*
X110378538Y-70325835D01*
X110368973Y-70330238D01*
X109592021Y-71107189D01*
X109584408Y-71121132D01*
X108854356Y-71121132D01*
X108855592Y-71118868D01*
X108855461Y-71117034D01*
X108851210Y-71110420D01*
X108073862Y-70333073D01*
X108062330Y-70326776D01*
X108050048Y-70336399D01*
X107994467Y-70417877D01*
X107989379Y-70426833D01*
X107896252Y-70627459D01*
X107892689Y-70637146D01*
X107833581Y-70850280D01*
X107831650Y-70860400D01*
X107808145Y-71080349D01*
X107807893Y-71090638D01*
X102305816Y-71090638D01*
X102327808Y-71037545D01*
X102344689Y-70974546D01*
X102345226Y-70970464D01*
X102345228Y-70970456D01*
X102361462Y-70847149D01*
X102362000Y-70843063D01*
X102362000Y-67403296D01*
X103377500Y-67403296D01*
X103377591Y-67404968D01*
X103377591Y-67404984D01*
X103380221Y-67453537D01*
X103380651Y-67461475D01*
X103381488Y-67465761D01*
X103424659Y-67686825D01*
X103426107Y-67694242D01*
X103510132Y-67916023D01*
X103567262Y-68013205D01*
X103627618Y-68115874D01*
X103627622Y-68115879D01*
X103630324Y-68120476D01*
X103783245Y-68301755D01*
X103964524Y-68454676D01*
X103969121Y-68457378D01*
X103969126Y-68457382D01*
X104071795Y-68517738D01*
X104168977Y-68574868D01*
X104390758Y-68658893D01*
X104395987Y-68659914D01*
X104395990Y-68659915D01*
X104613756Y-68702441D01*
X104623525Y-68704349D01*
X104631463Y-68704779D01*
X104680016Y-68707409D01*
X104680032Y-68707409D01*
X104681704Y-68707500D01*
X104868296Y-68707500D01*
X104869968Y-68707409D01*
X104869984Y-68707409D01*
X104918537Y-68704779D01*
X104926475Y-68704349D01*
X104936244Y-68702441D01*
X105154010Y-68659915D01*
X105154013Y-68659914D01*
X105159242Y-68658893D01*
X105381023Y-68574868D01*
X105478205Y-68517738D01*
X105580874Y-68457382D01*
X105580879Y-68457378D01*
X105585476Y-68454676D01*
X105766755Y-68301755D01*
X105919676Y-68120476D01*
X105922378Y-68115879D01*
X105922382Y-68115874D01*
X105982738Y-68013205D01*
X106039868Y-67916023D01*
X106123893Y-67694242D01*
X106125342Y-67686825D01*
X106168512Y-67465761D01*
X106169349Y-67461475D01*
X106169779Y-67453537D01*
X106172409Y-67404984D01*
X106172409Y-67404968D01*
X106172500Y-67403296D01*
X106172500Y-67216704D01*
X106171881Y-67205261D01*
X106169585Y-67162883D01*
X106169349Y-67158525D01*
X106148245Y-67050455D01*
X106124915Y-66930990D01*
X106124914Y-66930987D01*
X106123893Y-66925758D01*
X106039868Y-66703977D01*
X105952482Y-66555329D01*
X105922382Y-66504126D01*
X105922378Y-66504121D01*
X105919676Y-66499524D01*
X105884311Y-66457600D01*
X105782458Y-66336860D01*
X105753823Y-66271895D01*
X105764857Y-66201761D01*
X105812057Y-66148726D01*
X105834538Y-66137635D01*
X105902052Y-66112325D01*
X105917649Y-66103786D01*
X106019724Y-66027285D01*
X106032285Y-66014724D01*
X106108786Y-65912649D01*
X106117324Y-65897054D01*
X106162478Y-65776606D01*
X106166105Y-65761351D01*
X106171631Y-65710486D01*
X106172000Y-65703672D01*
X106172000Y-65042115D01*
X106167525Y-65026876D01*
X106166135Y-65025671D01*
X106158452Y-65024000D01*
X103396116Y-65024000D01*
X103380877Y-65028475D01*
X103379672Y-65029865D01*
X103378001Y-65037548D01*
X103378001Y-65703669D01*
X103378371Y-65710490D01*
X103383895Y-65761352D01*
X103387521Y-65776604D01*
X103432676Y-65897054D01*
X103441214Y-65912649D01*
X103517715Y-66014724D01*
X103530276Y-66027285D01*
X103632351Y-66103786D01*
X103647948Y-66112325D01*
X103715462Y-66137635D01*
X103772227Y-66180276D01*
X103796927Y-66246838D01*
X103781720Y-66316187D01*
X103767542Y-66336860D01*
X103665690Y-66457600D01*
X103630324Y-66499524D01*
X103627622Y-66504121D01*
X103627618Y-66504126D01*
X103597518Y-66555329D01*
X103510132Y-66703977D01*
X103426107Y-66925758D01*
X103425086Y-66930987D01*
X103425085Y-66930990D01*
X103401755Y-67050455D01*
X103380651Y-67158525D01*
X103380415Y-67162883D01*
X103378120Y-67205261D01*
X103377500Y-67216704D01*
X103377500Y-67403296D01*
X102362000Y-67403296D01*
X102362000Y-66160003D01*
X102352875Y-66064151D01*
X102350696Y-66052811D01*
X102344467Y-66020388D01*
X102344465Y-66020379D01*
X102343903Y-66017455D01*
X102332330Y-65977914D01*
X102318958Y-65932227D01*
X102318956Y-65932223D01*
X102316853Y-65925037D01*
X102244699Y-65799735D01*
X102200875Y-65743878D01*
X102197625Y-65740772D01*
X102102856Y-65650204D01*
X102102855Y-65650203D01*
X102096344Y-65643981D01*
X102088344Y-65639845D01*
X101971896Y-65579644D01*
X101971892Y-65579642D01*
X101967901Y-65577579D01*
X101900836Y-65554282D01*
X101758890Y-65526756D01*
X99853121Y-65433792D01*
X96803890Y-65285049D01*
X96800140Y-65285314D01*
X96800137Y-65285314D01*
X96709869Y-65291692D01*
X96640508Y-65276540D01*
X96590349Y-65226295D01*
X96574989Y-65166005D01*
X96574989Y-64497885D01*
X103378000Y-64497885D01*
X103382475Y-64513124D01*
X103383865Y-64514329D01*
X103391548Y-64516000D01*
X104502885Y-64516000D01*
X104518124Y-64511525D01*
X104519329Y-64510135D01*
X104521000Y-64502452D01*
X104521000Y-64497885D01*
X105029000Y-64497885D01*
X105033475Y-64513124D01*
X105034865Y-64514329D01*
X105042548Y-64516000D01*
X106153884Y-64516000D01*
X106169123Y-64511525D01*
X106170328Y-64510135D01*
X106171999Y-64502452D01*
X106171999Y-63836331D01*
X106171629Y-63829510D01*
X106166105Y-63778648D01*
X106162479Y-63763396D01*
X106117324Y-63642946D01*
X106108786Y-63627351D01*
X106032285Y-63525276D01*
X106019724Y-63512715D01*
X105917649Y-63436214D01*
X105902054Y-63427676D01*
X105781606Y-63382522D01*
X105766351Y-63378895D01*
X105715486Y-63373369D01*
X105708672Y-63373000D01*
X105047115Y-63373000D01*
X105031876Y-63377475D01*
X105030671Y-63378865D01*
X105029000Y-63386548D01*
X105029000Y-64497885D01*
X104521000Y-64497885D01*
X104521000Y-63391116D01*
X104516525Y-63375877D01*
X104515135Y-63374672D01*
X104507452Y-63373001D01*
X103841331Y-63373001D01*
X103834510Y-63373371D01*
X103783648Y-63378895D01*
X103768396Y-63382521D01*
X103647946Y-63427676D01*
X103632351Y-63436214D01*
X103530276Y-63512715D01*
X103517715Y-63525276D01*
X103441214Y-63627351D01*
X103432676Y-63642946D01*
X103387522Y-63763394D01*
X103383895Y-63778649D01*
X103378369Y-63829514D01*
X103378000Y-63836328D01*
X103378000Y-64497885D01*
X96574989Y-64497885D01*
X96574989Y-63118000D01*
X96594991Y-63049879D01*
X96648647Y-63003386D01*
X96700989Y-62992000D01*
X96882885Y-62992000D01*
X96898124Y-62987525D01*
X96899329Y-62986135D01*
X96901000Y-62978452D01*
X96901000Y-62973884D01*
X97409000Y-62973884D01*
X97413475Y-62989123D01*
X97414865Y-62990328D01*
X97422548Y-62991999D01*
X98088669Y-62991999D01*
X98095490Y-62991629D01*
X98146352Y-62986105D01*
X98161604Y-62982479D01*
X98282054Y-62937324D01*
X98297649Y-62928786D01*
X98399724Y-62852285D01*
X98412285Y-62839724D01*
X98488786Y-62737649D01*
X98497325Y-62722052D01*
X98522635Y-62654538D01*
X98565276Y-62597773D01*
X98631838Y-62573073D01*
X98701187Y-62588280D01*
X98721860Y-62602458D01*
X98863632Y-62722052D01*
X98884524Y-62739676D01*
X98889121Y-62742378D01*
X98889126Y-62742382D01*
X98983095Y-62797623D01*
X99088977Y-62859868D01*
X99310758Y-62943893D01*
X99315987Y-62944914D01*
X99315990Y-62944915D01*
X99508346Y-62982479D01*
X99543525Y-62989349D01*
X99551463Y-62989779D01*
X99600016Y-62992409D01*
X99600032Y-62992409D01*
X99601704Y-62992500D01*
X99788296Y-62992500D01*
X99789968Y-62992409D01*
X99789984Y-62992409D01*
X99838537Y-62989779D01*
X99846475Y-62989349D01*
X99881654Y-62982479D01*
X100074010Y-62944915D01*
X100074013Y-62944914D01*
X100079242Y-62943893D01*
X100301023Y-62859868D01*
X100406905Y-62797623D01*
X100500874Y-62742382D01*
X100500879Y-62742378D01*
X100505476Y-62739676D01*
X100667736Y-62602799D01*
X100732699Y-62574165D01*
X100802833Y-62585199D01*
X100855868Y-62632399D01*
X100866959Y-62654879D01*
X100895385Y-62730705D01*
X100982739Y-62847261D01*
X101099295Y-62934615D01*
X101235684Y-62985745D01*
X101297866Y-62992500D01*
X103172134Y-62992500D01*
X103234316Y-62985745D01*
X103370705Y-62934615D01*
X103487261Y-62847261D01*
X103574615Y-62730705D01*
X103603041Y-62654879D01*
X103645683Y-62598115D01*
X103712244Y-62573415D01*
X103781593Y-62588622D01*
X103802259Y-62602794D01*
X103964524Y-62739676D01*
X103969121Y-62742378D01*
X103969126Y-62742382D01*
X104063095Y-62797623D01*
X104168977Y-62859868D01*
X104390758Y-62943893D01*
X104395987Y-62944914D01*
X104395990Y-62944915D01*
X104588346Y-62982479D01*
X104623525Y-62989349D01*
X104631463Y-62989779D01*
X104680016Y-62992409D01*
X104680032Y-62992409D01*
X104681704Y-62992500D01*
X104868296Y-62992500D01*
X104869968Y-62992409D01*
X104869984Y-62992409D01*
X104918537Y-62989779D01*
X104926475Y-62989349D01*
X104961654Y-62982479D01*
X105154010Y-62944915D01*
X105154013Y-62944914D01*
X105159242Y-62943893D01*
X105381023Y-62859868D01*
X105486905Y-62797623D01*
X105580874Y-62742382D01*
X105580879Y-62742378D01*
X105585476Y-62739676D01*
X105606369Y-62722052D01*
X105762677Y-62590195D01*
X105766755Y-62586755D01*
X105797909Y-62549824D01*
X105916232Y-62409559D01*
X105916233Y-62409557D01*
X105919676Y-62405476D01*
X105922378Y-62400879D01*
X105922382Y-62400874D01*
X106000021Y-62268805D01*
X106039868Y-62201023D01*
X106123893Y-61979242D01*
X106126340Y-61966715D01*
X106168512Y-61750761D01*
X106169349Y-61746475D01*
X106169779Y-61738537D01*
X106172409Y-61689984D01*
X106172409Y-61689968D01*
X106172500Y-61688296D01*
X106172500Y-61501704D01*
X106169349Y-61443525D01*
X106158394Y-61387428D01*
X106124915Y-61215990D01*
X106124914Y-61215987D01*
X106123893Y-61210758D01*
X106039868Y-60988977D01*
X105982738Y-60891795D01*
X105922382Y-60789126D01*
X105922378Y-60789121D01*
X105919676Y-60784524D01*
X105812832Y-60657866D01*
X105777664Y-60616177D01*
X105766755Y-60603245D01*
X105649738Y-60504533D01*
X105589559Y-60453768D01*
X105589557Y-60453767D01*
X105585476Y-60450324D01*
X105580879Y-60447622D01*
X105580874Y-60447618D01*
X105478205Y-60387262D01*
X105381023Y-60330132D01*
X105159242Y-60246107D01*
X105154013Y-60245086D01*
X105154010Y-60245085D01*
X104930761Y-60201488D01*
X104926475Y-60200651D01*
X104918537Y-60200221D01*
X104869984Y-60197591D01*
X104869969Y-60197591D01*
X104868296Y-60197500D01*
X104681704Y-60197500D01*
X104680031Y-60197591D01*
X104680016Y-60197591D01*
X104631463Y-60200221D01*
X104623525Y-60200651D01*
X104619239Y-60201488D01*
X104395990Y-60245085D01*
X104395987Y-60245086D01*
X104390758Y-60246107D01*
X104168977Y-60330132D01*
X104071795Y-60387262D01*
X103969126Y-60447618D01*
X103969121Y-60447622D01*
X103964524Y-60450324D01*
X103802264Y-60587201D01*
X103737301Y-60615835D01*
X103667167Y-60604801D01*
X103614132Y-60557601D01*
X103603041Y-60535121D01*
X103577767Y-60467703D01*
X103574615Y-60459295D01*
X103487261Y-60342739D01*
X103370705Y-60255385D01*
X103234316Y-60204255D01*
X103172134Y-60197500D01*
X101297866Y-60197500D01*
X101235684Y-60204255D01*
X101099295Y-60255385D01*
X100982739Y-60342739D01*
X100895385Y-60459295D01*
X100892233Y-60467703D01*
X100866959Y-60535121D01*
X100824317Y-60591885D01*
X100757756Y-60616585D01*
X100688407Y-60601378D01*
X100667741Y-60587206D01*
X100505476Y-60450324D01*
X100500879Y-60447622D01*
X100500874Y-60447618D01*
X100398205Y-60387262D01*
X100301023Y-60330132D01*
X100079242Y-60246107D01*
X100074013Y-60245086D01*
X100074010Y-60245085D01*
X99850761Y-60201488D01*
X99846475Y-60200651D01*
X99838537Y-60200221D01*
X99789984Y-60197591D01*
X99789969Y-60197591D01*
X99788296Y-60197500D01*
X99601704Y-60197500D01*
X99600031Y-60197591D01*
X99600016Y-60197591D01*
X99551463Y-60200221D01*
X99543525Y-60200651D01*
X99539239Y-60201488D01*
X99315990Y-60245085D01*
X99315987Y-60245086D01*
X99310758Y-60246107D01*
X99088977Y-60330132D01*
X98991795Y-60387262D01*
X98889126Y-60447618D01*
X98889121Y-60447622D01*
X98884524Y-60450324D01*
X98880443Y-60453767D01*
X98880441Y-60453768D01*
X98721860Y-60587542D01*
X98656895Y-60616177D01*
X98586761Y-60605143D01*
X98533726Y-60557943D01*
X98522635Y-60535462D01*
X98497325Y-60467948D01*
X98488786Y-60452351D01*
X98412285Y-60350276D01*
X98399724Y-60337715D01*
X98297649Y-60261214D01*
X98282054Y-60252676D01*
X98161606Y-60207522D01*
X98146351Y-60203895D01*
X98095486Y-60198369D01*
X98088672Y-60198000D01*
X97427115Y-60198000D01*
X97411876Y-60202475D01*
X97410671Y-60203865D01*
X97409000Y-60211548D01*
X97409000Y-62973884D01*
X96901000Y-62973884D01*
X96901000Y-60216116D01*
X96896525Y-60200877D01*
X96895135Y-60199672D01*
X96887452Y-60198001D01*
X96700989Y-60198001D01*
X96632868Y-60177999D01*
X96586375Y-60124343D01*
X96574989Y-60072001D01*
X96574989Y-59943000D01*
X96594991Y-59874879D01*
X96648647Y-59828386D01*
X96700989Y-59817000D01*
X96882885Y-59817000D01*
X96898124Y-59812525D01*
X96899329Y-59811135D01*
X96901000Y-59803452D01*
X96901000Y-59798884D01*
X97409000Y-59798884D01*
X97413475Y-59814123D01*
X97414865Y-59815328D01*
X97422548Y-59816999D01*
X98088669Y-59816999D01*
X98095490Y-59816629D01*
X98146352Y-59811105D01*
X98161604Y-59807479D01*
X98282054Y-59762324D01*
X98297649Y-59753786D01*
X98399724Y-59677285D01*
X98412285Y-59664724D01*
X98488786Y-59562649D01*
X98497325Y-59547052D01*
X98522635Y-59479538D01*
X98565276Y-59422773D01*
X98631838Y-59398073D01*
X98701187Y-59413280D01*
X98721860Y-59427458D01*
X98866317Y-59549317D01*
X98884524Y-59564676D01*
X98889121Y-59567378D01*
X98889126Y-59567382D01*
X98938607Y-59596470D01*
X99088977Y-59684868D01*
X99310758Y-59768893D01*
X99315987Y-59769914D01*
X99315990Y-59769915D01*
X99508346Y-59807479D01*
X99543525Y-59814349D01*
X99551463Y-59814779D01*
X99600016Y-59817409D01*
X99600032Y-59817409D01*
X99601704Y-59817500D01*
X99788296Y-59817500D01*
X99789968Y-59817409D01*
X99789984Y-59817409D01*
X99838537Y-59814779D01*
X99846475Y-59814349D01*
X99881654Y-59807479D01*
X100074010Y-59769915D01*
X100074013Y-59769914D01*
X100079242Y-59768893D01*
X100301023Y-59684868D01*
X100451393Y-59596470D01*
X100500874Y-59567382D01*
X100500879Y-59567378D01*
X100505476Y-59564676D01*
X100523684Y-59549317D01*
X100682677Y-59415195D01*
X100686755Y-59411755D01*
X100729966Y-59360531D01*
X100732832Y-59357134D01*
X101472500Y-59357134D01*
X101479255Y-59419316D01*
X101530385Y-59555705D01*
X101617739Y-59672261D01*
X101734295Y-59759615D01*
X101870684Y-59810745D01*
X101924848Y-59816629D01*
X101929267Y-59817109D01*
X101932866Y-59817500D01*
X103807134Y-59817500D01*
X103810734Y-59817109D01*
X103815152Y-59816629D01*
X103869316Y-59810745D01*
X104005705Y-59759615D01*
X104122261Y-59672261D01*
X104209615Y-59555705D01*
X104238041Y-59479879D01*
X104280683Y-59423115D01*
X104347244Y-59398415D01*
X104416593Y-59413622D01*
X104437259Y-59427794D01*
X104599524Y-59564676D01*
X104604121Y-59567378D01*
X104604126Y-59567382D01*
X104653607Y-59596470D01*
X104803977Y-59684868D01*
X105025758Y-59768893D01*
X105030987Y-59769914D01*
X105030990Y-59769915D01*
X105223346Y-59807479D01*
X105258525Y-59814349D01*
X105266463Y-59814779D01*
X105315016Y-59817409D01*
X105315032Y-59817409D01*
X105316704Y-59817500D01*
X105503296Y-59817500D01*
X105504968Y-59817409D01*
X105504984Y-59817409D01*
X105553537Y-59814779D01*
X105561475Y-59814349D01*
X105596654Y-59807479D01*
X105789010Y-59769915D01*
X105789013Y-59769914D01*
X105794242Y-59768893D01*
X106016023Y-59684868D01*
X106166393Y-59596470D01*
X106215874Y-59567382D01*
X106215879Y-59567378D01*
X106220476Y-59564676D01*
X106238684Y-59549317D01*
X106397677Y-59415195D01*
X106401755Y-59411755D01*
X106444966Y-59360531D01*
X106551232Y-59234559D01*
X106551233Y-59234557D01*
X106554676Y-59230476D01*
X106557378Y-59225879D01*
X106557382Y-59225874D01*
X106659332Y-59052450D01*
X106674868Y-59026023D01*
X106758893Y-58804242D01*
X106804349Y-58571475D01*
X106807500Y-58513296D01*
X106807500Y-58326704D01*
X106804349Y-58268525D01*
X106802441Y-58258756D01*
X106759915Y-58040990D01*
X106759914Y-58040987D01*
X106758893Y-58035758D01*
X106674868Y-57813977D01*
X106617738Y-57716795D01*
X106557382Y-57614126D01*
X106557378Y-57614121D01*
X106554676Y-57609524D01*
X106510930Y-57557665D01*
X106412664Y-57441177D01*
X106401755Y-57428245D01*
X106320869Y-57360012D01*
X106224559Y-57278768D01*
X106224557Y-57278767D01*
X106220476Y-57275324D01*
X106215879Y-57272622D01*
X106215874Y-57272618D01*
X106113205Y-57212262D01*
X106016023Y-57155132D01*
X105794242Y-57071107D01*
X105789013Y-57070086D01*
X105789010Y-57070085D01*
X105565761Y-57026488D01*
X105561475Y-57025651D01*
X105553537Y-57025221D01*
X105504984Y-57022591D01*
X105504969Y-57022591D01*
X105503296Y-57022500D01*
X105316704Y-57022500D01*
X105315031Y-57022591D01*
X105315016Y-57022591D01*
X105266463Y-57025221D01*
X105258525Y-57025651D01*
X105254239Y-57026488D01*
X105030990Y-57070085D01*
X105030987Y-57070086D01*
X105025758Y-57071107D01*
X104803977Y-57155132D01*
X104706795Y-57212262D01*
X104604126Y-57272618D01*
X104604121Y-57272622D01*
X104599524Y-57275324D01*
X104437264Y-57412201D01*
X104372301Y-57440835D01*
X104302167Y-57429801D01*
X104249132Y-57382601D01*
X104238041Y-57360121D01*
X104212767Y-57292703D01*
X104209615Y-57284295D01*
X104122261Y-57167739D01*
X104005705Y-57080385D01*
X103869316Y-57029255D01*
X103807134Y-57022500D01*
X101932866Y-57022500D01*
X101870684Y-57029255D01*
X101734295Y-57080385D01*
X101617739Y-57167739D01*
X101530385Y-57284295D01*
X101479255Y-57420684D01*
X101472500Y-57482866D01*
X101472500Y-59357134D01*
X100732832Y-59357134D01*
X100836232Y-59234559D01*
X100836233Y-59234557D01*
X100839676Y-59230476D01*
X100842378Y-59225879D01*
X100842382Y-59225874D01*
X100944332Y-59052450D01*
X100959868Y-59026023D01*
X101043893Y-58804242D01*
X101089349Y-58571475D01*
X101092500Y-58513296D01*
X101092500Y-58326704D01*
X101089349Y-58268525D01*
X101087441Y-58258756D01*
X101044915Y-58040990D01*
X101044914Y-58040987D01*
X101043893Y-58035758D01*
X100959868Y-57813977D01*
X100902738Y-57716795D01*
X100842382Y-57614126D01*
X100842378Y-57614121D01*
X100839676Y-57609524D01*
X100795930Y-57557665D01*
X100697664Y-57441177D01*
X100686755Y-57428245D01*
X100605869Y-57360012D01*
X100509559Y-57278768D01*
X100509557Y-57278767D01*
X100505476Y-57275324D01*
X100500879Y-57272622D01*
X100500874Y-57272618D01*
X100398205Y-57212262D01*
X100301023Y-57155132D01*
X100079242Y-57071107D01*
X100074013Y-57070086D01*
X100074010Y-57070085D01*
X99850761Y-57026488D01*
X99846475Y-57025651D01*
X99838537Y-57025221D01*
X99789984Y-57022591D01*
X99789969Y-57022591D01*
X99788296Y-57022500D01*
X99601704Y-57022500D01*
X99600031Y-57022591D01*
X99600016Y-57022591D01*
X99551463Y-57025221D01*
X99543525Y-57025651D01*
X99539239Y-57026488D01*
X99315990Y-57070085D01*
X99315987Y-57070086D01*
X99310758Y-57071107D01*
X99088977Y-57155132D01*
X98991795Y-57212262D01*
X98889126Y-57272618D01*
X98889121Y-57272622D01*
X98884524Y-57275324D01*
X98880443Y-57278767D01*
X98880441Y-57278768D01*
X98721860Y-57412542D01*
X98656895Y-57441177D01*
X98586761Y-57430143D01*
X98533726Y-57382943D01*
X98522635Y-57360462D01*
X98497325Y-57292948D01*
X98488786Y-57277351D01*
X98412285Y-57175276D01*
X98399724Y-57162715D01*
X98297649Y-57086214D01*
X98282054Y-57077676D01*
X98161606Y-57032522D01*
X98146351Y-57028895D01*
X98095486Y-57023369D01*
X98088672Y-57023000D01*
X97427115Y-57023000D01*
X97411876Y-57027475D01*
X97410671Y-57028865D01*
X97409000Y-57036548D01*
X97409000Y-59798884D01*
X96901000Y-59798884D01*
X96901000Y-57041116D01*
X96896525Y-57025877D01*
X96895135Y-57024672D01*
X96887452Y-57023001D01*
X96700989Y-57023001D01*
X96632868Y-57002999D01*
X96586375Y-56949343D01*
X96574989Y-56897001D01*
X96574989Y-56178669D01*
X103760751Y-56178669D01*
X103761121Y-56185490D01*
X103766645Y-56236352D01*
X103770271Y-56251604D01*
X103815426Y-56372054D01*
X103823964Y-56387649D01*
X103900465Y-56489724D01*
X103913026Y-56502285D01*
X104015101Y-56578786D01*
X104030696Y-56587324D01*
X104151144Y-56632478D01*
X104166399Y-56636105D01*
X104217264Y-56641631D01*
X104224078Y-56642000D01*
X104885635Y-56642000D01*
X104900874Y-56637525D01*
X104902079Y-56636135D01*
X104903750Y-56628452D01*
X104903750Y-56623884D01*
X105411750Y-56623884D01*
X105416225Y-56639123D01*
X105417615Y-56640328D01*
X105425298Y-56641999D01*
X106091419Y-56641999D01*
X106098240Y-56641629D01*
X106149102Y-56636105D01*
X106164354Y-56632479D01*
X106284804Y-56587324D01*
X106300399Y-56578786D01*
X106402474Y-56502285D01*
X106415035Y-56489724D01*
X106491536Y-56387649D01*
X106500074Y-56372054D01*
X106545228Y-56251606D01*
X106548855Y-56236351D01*
X106554381Y-56185486D01*
X106554750Y-56178671D01*
X106554750Y-55517115D01*
X106550275Y-55501876D01*
X106548885Y-55500671D01*
X106541202Y-55499000D01*
X105429865Y-55499000D01*
X105414626Y-55503475D01*
X105413421Y-55504865D01*
X105411750Y-55512548D01*
X105411750Y-56623884D01*
X104903750Y-56623884D01*
X104903750Y-55517115D01*
X104899275Y-55501876D01*
X104897885Y-55500671D01*
X104890202Y-55499000D01*
X103778866Y-55499000D01*
X103763627Y-55503475D01*
X103762422Y-55504865D01*
X103760751Y-55512548D01*
X103760751Y-56178669D01*
X96574989Y-56178669D01*
X96574989Y-56013436D01*
X96594991Y-55945315D01*
X96611894Y-55924341D01*
X99737938Y-52798296D01*
X103760250Y-52798296D01*
X103760341Y-52799968D01*
X103760341Y-52799984D01*
X103760970Y-52811598D01*
X103763401Y-52856475D01*
X103764238Y-52860761D01*
X103806109Y-53075169D01*
X103808857Y-53089242D01*
X103892882Y-53311023D01*
X103903623Y-53329294D01*
X104010368Y-53510874D01*
X104010372Y-53510879D01*
X104013074Y-53515476D01*
X104016517Y-53519557D01*
X104016518Y-53519559D01*
X104150292Y-53678140D01*
X104178927Y-53743105D01*
X104167893Y-53813239D01*
X104120693Y-53866274D01*
X104098212Y-53877365D01*
X104030698Y-53902675D01*
X104015101Y-53911214D01*
X103913026Y-53987715D01*
X103900465Y-54000276D01*
X103823964Y-54102351D01*
X103815426Y-54117946D01*
X103770272Y-54238394D01*
X103766645Y-54253649D01*
X103761119Y-54304514D01*
X103760750Y-54311328D01*
X103760750Y-54972885D01*
X103765225Y-54988124D01*
X103766615Y-54989329D01*
X103774298Y-54991000D01*
X106536634Y-54991000D01*
X106551873Y-54986525D01*
X106553078Y-54985135D01*
X106554749Y-54977452D01*
X106554749Y-54311331D01*
X106554379Y-54304510D01*
X106548855Y-54253648D01*
X106545229Y-54238396D01*
X106500074Y-54117946D01*
X106491536Y-54102351D01*
X106415035Y-54000276D01*
X106402474Y-53987715D01*
X106300399Y-53911214D01*
X106284802Y-53902675D01*
X106217288Y-53877365D01*
X106160523Y-53834724D01*
X106135823Y-53768162D01*
X106151030Y-53698813D01*
X106165208Y-53678140D01*
X106298982Y-53519559D01*
X106298983Y-53519557D01*
X106302426Y-53515476D01*
X106305128Y-53510879D01*
X106305132Y-53510874D01*
X106411877Y-53329294D01*
X106422618Y-53311023D01*
X106506643Y-53089242D01*
X106509392Y-53075169D01*
X106551262Y-52860761D01*
X106552099Y-52856475D01*
X106554530Y-52811598D01*
X106555159Y-52799984D01*
X106555159Y-52799968D01*
X106555250Y-52798296D01*
X106555250Y-52611704D01*
X106554137Y-52591140D01*
X106552335Y-52557883D01*
X106552099Y-52553525D01*
X106532827Y-52454837D01*
X106507665Y-52325990D01*
X106507664Y-52325987D01*
X106506643Y-52320758D01*
X106422618Y-52098977D01*
X106341728Y-51961379D01*
X106305132Y-51899126D01*
X106305128Y-51899121D01*
X106302426Y-51894524D01*
X106215734Y-51791755D01*
X106152945Y-51717323D01*
X106149505Y-51713245D01*
X106037030Y-51618365D01*
X105972309Y-51563768D01*
X105972307Y-51563767D01*
X105968226Y-51560324D01*
X105939813Y-51543621D01*
X105891225Y-51491856D01*
X105878336Y-51422039D01*
X105905240Y-51356337D01*
X105939813Y-51326379D01*
X105968226Y-51309676D01*
X106149505Y-51156755D01*
X106180659Y-51119824D01*
X106298982Y-50979559D01*
X106298983Y-50979557D01*
X106302426Y-50975476D01*
X106305128Y-50970879D01*
X106305132Y-50970874D01*
X106411877Y-50789294D01*
X106422618Y-50771023D01*
X106506643Y-50549242D01*
X106509392Y-50535169D01*
X106551262Y-50320761D01*
X106552099Y-50316475D01*
X106554530Y-50271598D01*
X106555159Y-50259984D01*
X106555159Y-50259968D01*
X106555250Y-50258296D01*
X106555250Y-50071704D01*
X106554137Y-50051140D01*
X106552335Y-50017883D01*
X106552099Y-50013525D01*
X106532827Y-49914837D01*
X106507665Y-49785990D01*
X106507664Y-49785987D01*
X106506643Y-49780758D01*
X106422618Y-49558977D01*
X106342387Y-49422500D01*
X106305132Y-49359126D01*
X106305128Y-49359121D01*
X106302426Y-49354524D01*
X106281346Y-49329534D01*
X106152945Y-49177323D01*
X106149505Y-49173245D01*
X106037386Y-49078665D01*
X105972309Y-49023768D01*
X105972307Y-49023767D01*
X105968226Y-49020324D01*
X105939813Y-49003621D01*
X105891225Y-48951856D01*
X105878336Y-48882039D01*
X105905240Y-48816337D01*
X105939813Y-48786379D01*
X105941630Y-48785311D01*
X105968226Y-48769676D01*
X106001099Y-48741946D01*
X106145427Y-48620195D01*
X106149505Y-48616755D01*
X106183901Y-48575981D01*
X106298982Y-48439559D01*
X106298983Y-48439557D01*
X106302426Y-48435476D01*
X106305128Y-48430879D01*
X106305132Y-48430874D01*
X106405583Y-48260000D01*
X106422618Y-48231023D01*
X106506643Y-48009242D01*
X106508422Y-48000135D01*
X106551262Y-47780761D01*
X106552099Y-47776475D01*
X106554683Y-47728774D01*
X106555159Y-47719984D01*
X106555159Y-47719968D01*
X106555250Y-47718296D01*
X106555250Y-47531704D01*
X106553595Y-47501135D01*
X106552335Y-47477883D01*
X106552099Y-47473525D01*
X106532827Y-47374837D01*
X106507665Y-47245990D01*
X106507664Y-47245987D01*
X106506643Y-47240758D01*
X106422618Y-47018977D01*
X106341574Y-46881116D01*
X106305132Y-46819126D01*
X106305128Y-46819121D01*
X106302426Y-46814524D01*
X106257418Y-46761169D01*
X106173266Y-46661412D01*
X106149505Y-46633245D01*
X106070421Y-46566532D01*
X105972309Y-46483768D01*
X105972307Y-46483767D01*
X105968226Y-46480324D01*
X105963629Y-46477622D01*
X105963624Y-46477618D01*
X105856065Y-46414388D01*
X105763773Y-46360132D01*
X105541992Y-46276107D01*
X105536763Y-46275086D01*
X105536760Y-46275085D01*
X105313511Y-46231488D01*
X105309225Y-46230651D01*
X105301287Y-46230221D01*
X105252734Y-46227591D01*
X105252719Y-46227591D01*
X105251046Y-46227500D01*
X105064454Y-46227500D01*
X105062781Y-46227591D01*
X105062766Y-46227591D01*
X105014213Y-46230221D01*
X105006275Y-46230651D01*
X105001989Y-46231488D01*
X104778740Y-46275085D01*
X104778737Y-46275086D01*
X104773508Y-46276107D01*
X104551727Y-46360132D01*
X104459435Y-46414388D01*
X104351876Y-46477618D01*
X104351871Y-46477622D01*
X104347274Y-46480324D01*
X104343193Y-46483767D01*
X104343191Y-46483768D01*
X104245079Y-46566532D01*
X104165995Y-46633245D01*
X104142234Y-46661412D01*
X104058083Y-46761169D01*
X104013074Y-46814524D01*
X104010372Y-46819121D01*
X104010368Y-46819126D01*
X103973926Y-46881116D01*
X103892882Y-47018977D01*
X103808857Y-47240758D01*
X103807836Y-47245987D01*
X103807835Y-47245990D01*
X103782673Y-47374837D01*
X103763401Y-47473525D01*
X103763165Y-47477883D01*
X103761906Y-47501135D01*
X103760250Y-47531704D01*
X103760250Y-47718296D01*
X103760341Y-47719968D01*
X103760341Y-47719984D01*
X103760817Y-47728774D01*
X103763401Y-47776475D01*
X103764238Y-47780761D01*
X103807079Y-48000135D01*
X103808857Y-48009242D01*
X103892882Y-48231023D01*
X103909917Y-48260000D01*
X104010368Y-48430874D01*
X104010372Y-48430879D01*
X104013074Y-48435476D01*
X104016517Y-48439557D01*
X104016518Y-48439559D01*
X104131599Y-48575981D01*
X104165995Y-48616755D01*
X104170073Y-48620195D01*
X104314402Y-48741946D01*
X104347274Y-48769676D01*
X104373870Y-48785311D01*
X104375687Y-48786379D01*
X104424275Y-48838144D01*
X104437164Y-48907961D01*
X104410260Y-48973663D01*
X104375688Y-49003620D01*
X104347274Y-49020324D01*
X104343193Y-49023767D01*
X104343191Y-49023768D01*
X104278114Y-49078665D01*
X104165995Y-49173245D01*
X104162555Y-49177323D01*
X104034155Y-49329534D01*
X104013074Y-49354524D01*
X104010372Y-49359121D01*
X104010368Y-49359126D01*
X103973113Y-49422500D01*
X103892882Y-49558977D01*
X103808857Y-49780758D01*
X103807836Y-49785987D01*
X103807835Y-49785990D01*
X103782673Y-49914837D01*
X103763401Y-50013525D01*
X103763165Y-50017883D01*
X103761364Y-50051140D01*
X103760250Y-50071704D01*
X103760250Y-50258296D01*
X103760341Y-50259968D01*
X103760341Y-50259984D01*
X103760970Y-50271598D01*
X103763401Y-50316475D01*
X103764238Y-50320761D01*
X103806109Y-50535169D01*
X103808857Y-50549242D01*
X103892882Y-50771023D01*
X103903623Y-50789294D01*
X104010368Y-50970874D01*
X104010372Y-50970879D01*
X104013074Y-50975476D01*
X104016517Y-50979557D01*
X104016518Y-50979559D01*
X104134841Y-51119824D01*
X104165995Y-51156755D01*
X104347274Y-51309676D01*
X104375687Y-51326379D01*
X104424275Y-51378144D01*
X104437164Y-51447961D01*
X104410260Y-51513663D01*
X104375688Y-51543620D01*
X104347274Y-51560324D01*
X104343193Y-51563767D01*
X104343191Y-51563768D01*
X104278470Y-51618365D01*
X104165995Y-51713245D01*
X104162555Y-51717323D01*
X104099767Y-51791755D01*
X104013074Y-51894524D01*
X104010372Y-51899121D01*
X104010368Y-51899126D01*
X103973772Y-51961379D01*
X103892882Y-52098977D01*
X103808857Y-52320758D01*
X103807836Y-52325987D01*
X103807835Y-52325990D01*
X103782673Y-52454837D01*
X103763401Y-52553525D01*
X103763165Y-52557883D01*
X103761364Y-52591140D01*
X103760250Y-52611704D01*
X103760250Y-52798296D01*
X99737938Y-52798296D01*
X102051321Y-50484913D01*
X102083606Y-50461542D01*
X102144416Y-50430825D01*
X102144418Y-50430824D01*
X102149917Y-50428046D01*
X102287236Y-50320761D01*
X102308634Y-50304043D01*
X102308635Y-50304042D01*
X102313495Y-50300245D01*
X102434966Y-50159519D01*
X102445109Y-50147768D01*
X102445109Y-50147767D01*
X102449133Y-50143106D01*
X102461591Y-50121177D01*
X102496732Y-50059316D01*
X102551667Y-49962614D01*
X102617190Y-49765644D01*
X102643207Y-49559698D01*
X102643622Y-49530000D01*
X102625939Y-49349658D01*
X102623966Y-49329534D01*
X102623965Y-49329531D01*
X102623365Y-49323408D01*
X102563368Y-49124685D01*
X102545090Y-49090309D01*
X102468809Y-48946847D01*
X102468808Y-48946845D01*
X102465913Y-48941401D01*
X102352100Y-48801852D01*
X102338610Y-48785311D01*
X102338607Y-48785308D01*
X102334715Y-48780536D01*
X102324858Y-48772381D01*
X102254742Y-48714376D01*
X102174770Y-48648217D01*
X102169353Y-48645288D01*
X102169347Y-48645284D01*
X102081382Y-48597722D01*
X102052215Y-48575981D01*
X99470405Y-45994171D01*
X99436379Y-45931859D01*
X99433500Y-45905076D01*
X99433500Y-45834500D01*
X99453502Y-45766379D01*
X99507158Y-45719886D01*
X99559500Y-45708500D01*
X99588199Y-45708500D01*
X99590648Y-45708307D01*
X99590655Y-45708307D01*
X99677584Y-45701465D01*
X99777403Y-45693609D01*
X99782210Y-45692455D01*
X99782216Y-45692454D01*
X99938968Y-45654821D01*
X100023591Y-45634505D01*
X100184721Y-45567763D01*
X100252928Y-45539511D01*
X100252932Y-45539509D01*
X100257502Y-45537616D01*
X100473376Y-45405328D01*
X100665898Y-45240898D01*
X100830328Y-45048376D01*
X100962616Y-44832502D01*
X101024478Y-44683155D01*
X101057611Y-44603164D01*
X101057612Y-44603162D01*
X101059505Y-44598591D01*
X101085862Y-44488805D01*
X101117454Y-44357216D01*
X101117455Y-44357210D01*
X101118609Y-44352403D01*
X101138474Y-44100000D01*
X101118609Y-43847597D01*
X101111321Y-43817237D01*
X101060660Y-43606221D01*
X101059505Y-43601409D01*
X101047568Y-43572590D01*
X100964511Y-43372072D01*
X100964509Y-43372068D01*
X100962616Y-43367498D01*
X100830328Y-43151624D01*
X100665898Y-42959102D01*
X100473376Y-42794672D01*
X100257502Y-42662384D01*
X100252932Y-42660491D01*
X100252928Y-42660489D01*
X100028164Y-42567389D01*
X100028162Y-42567388D01*
X100023591Y-42565495D01*
X99938968Y-42545179D01*
X99782216Y-42507546D01*
X99782210Y-42507545D01*
X99777403Y-42506391D01*
X99677584Y-42498535D01*
X99590655Y-42491693D01*
X99590648Y-42491693D01*
X99588199Y-42491500D01*
X97261801Y-42491500D01*
X97259352Y-42491693D01*
X97259345Y-42491693D01*
X97172416Y-42498535D01*
X97072597Y-42506391D01*
X97067790Y-42507545D01*
X97067784Y-42507546D01*
X96911032Y-42545179D01*
X96826409Y-42565495D01*
X96821838Y-42567388D01*
X96821836Y-42567389D01*
X96597072Y-42660489D01*
X96597068Y-42660491D01*
X96592498Y-42662384D01*
X96376624Y-42794672D01*
X96184102Y-42959102D01*
X96019672Y-43151624D01*
X95887384Y-43367498D01*
X95885491Y-43372068D01*
X95885489Y-43372072D01*
X95802432Y-43572590D01*
X95790495Y-43601409D01*
X95789340Y-43606221D01*
X95738680Y-43817237D01*
X95731391Y-43847597D01*
X95711526Y-44100000D01*
X95731391Y-44352403D01*
X95732545Y-44357210D01*
X95732546Y-44357216D01*
X95764138Y-44488805D01*
X95790495Y-44598591D01*
X95792388Y-44603162D01*
X95792389Y-44603164D01*
X95825523Y-44683155D01*
X95887384Y-44832502D01*
X96019672Y-45048376D01*
X96184102Y-45240898D01*
X96376624Y-45405328D01*
X96592498Y-45537616D01*
X96597068Y-45539509D01*
X96597072Y-45539511D01*
X96665279Y-45567763D01*
X96826409Y-45634505D01*
X96911032Y-45654821D01*
X97067784Y-45692454D01*
X97067790Y-45692455D01*
X97072597Y-45693609D01*
X97172416Y-45701465D01*
X97259345Y-45708307D01*
X97259352Y-45708307D01*
X97261801Y-45708500D01*
X97290500Y-45708500D01*
X97358621Y-45728502D01*
X97405114Y-45782158D01*
X97416500Y-45834500D01*
X97416500Y-46313157D01*
X97415763Y-46326764D01*
X97412344Y-46358243D01*
X97411676Y-46364388D01*
X97412213Y-46370523D01*
X97416050Y-46414388D01*
X97416379Y-46419214D01*
X97416500Y-46421686D01*
X97416500Y-46424769D01*
X97416801Y-46427837D01*
X97420690Y-46467506D01*
X97420812Y-46468819D01*
X97424685Y-46513084D01*
X97428913Y-46561413D01*
X97430400Y-46566532D01*
X97430920Y-46571833D01*
X97457791Y-46660834D01*
X97458126Y-46661967D01*
X97478789Y-46733086D01*
X97484091Y-46751336D01*
X97486544Y-46756068D01*
X97488084Y-46761169D01*
X97490978Y-46766612D01*
X97531731Y-46843260D01*
X97532343Y-46844426D01*
X97554011Y-46886226D01*
X97575108Y-46926926D01*
X97578431Y-46931089D01*
X97580934Y-46935796D01*
X97639755Y-47007918D01*
X97640446Y-47008774D01*
X97671738Y-47047973D01*
X97674242Y-47050477D01*
X97674884Y-47051195D01*
X97678585Y-47055528D01*
X97705935Y-47089062D01*
X97710682Y-47092989D01*
X97710684Y-47092991D01*
X97741262Y-47118287D01*
X97750042Y-47126277D01*
X98880672Y-48256906D01*
X98914696Y-48319217D01*
X98909632Y-48390032D01*
X98867085Y-48446868D01*
X98800565Y-48471679D01*
X98791576Y-48472000D01*
X98485332Y-48472001D01*
X98478510Y-48472371D01*
X98427648Y-48477895D01*
X98412396Y-48481521D01*
X98291946Y-48526676D01*
X98276351Y-48535214D01*
X98174276Y-48611715D01*
X98161715Y-48624276D01*
X98085214Y-48726351D01*
X98076676Y-48741946D01*
X98031522Y-48862394D01*
X98027895Y-48877649D01*
X98022369Y-48928514D01*
X98022000Y-48935328D01*
X98022000Y-49257885D01*
X98026475Y-49273124D01*
X98027865Y-49274329D01*
X98035548Y-49276000D01*
X99208000Y-49276000D01*
X99276121Y-49296002D01*
X99322614Y-49349658D01*
X99334000Y-49402000D01*
X99334000Y-49658000D01*
X99313998Y-49726121D01*
X99260342Y-49772614D01*
X99208000Y-49784000D01*
X98040116Y-49784000D01*
X98024877Y-49788475D01*
X98023672Y-49789865D01*
X98022001Y-49797548D01*
X98022001Y-50124669D01*
X98022371Y-50131490D01*
X98027895Y-50182352D01*
X98031521Y-50197604D01*
X98076676Y-50318054D01*
X98085214Y-50333649D01*
X98161715Y-50435724D01*
X98174276Y-50448285D01*
X98276351Y-50524786D01*
X98291946Y-50533324D01*
X98412394Y-50578478D01*
X98427649Y-50582105D01*
X98478514Y-50587631D01*
X98485327Y-50588000D01*
X98791577Y-50587999D01*
X98859697Y-50608001D01*
X98906190Y-50661656D01*
X98916295Y-50731930D01*
X98886802Y-50796511D01*
X98880672Y-50803094D01*
X95765056Y-53918710D01*
X95702744Y-53952736D01*
X95631929Y-53947671D01*
X95575093Y-53905124D01*
X95550282Y-53838604D01*
X95558134Y-53784975D01*
X95579253Y-53729232D01*
X95579255Y-53729226D01*
X95581143Y-53724242D01*
X95626599Y-53491475D01*
X95629315Y-53441329D01*
X95629659Y-53434984D01*
X95629659Y-53434968D01*
X95629750Y-53433296D01*
X95629750Y-53246704D01*
X95626599Y-53188525D01*
X95624691Y-53178756D01*
X95582165Y-52960990D01*
X95582164Y-52960987D01*
X95581143Y-52955758D01*
X95497118Y-52733977D01*
X95431128Y-52621725D01*
X95379632Y-52534126D01*
X95379628Y-52534121D01*
X95376926Y-52529524D01*
X95333180Y-52477665D01*
X95227445Y-52352323D01*
X95224005Y-52348245D01*
X95143119Y-52280012D01*
X95046809Y-52198768D01*
X95046807Y-52198767D01*
X95042726Y-52195324D01*
X95014313Y-52178621D01*
X94965725Y-52126856D01*
X94952836Y-52057039D01*
X94979740Y-51991337D01*
X95014313Y-51961379D01*
X95026142Y-51954425D01*
X95042726Y-51944676D01*
X95107019Y-51890441D01*
X95219927Y-51795195D01*
X95224005Y-51791755D01*
X95287905Y-51716005D01*
X95373482Y-51614559D01*
X95373483Y-51614557D01*
X95376926Y-51610476D01*
X95379628Y-51605879D01*
X95379632Y-51605874D01*
X95483100Y-51429868D01*
X95497118Y-51406023D01*
X95581143Y-51184242D01*
X95626599Y-50951475D01*
X95629315Y-50901329D01*
X95629659Y-50894984D01*
X95629659Y-50894968D01*
X95629750Y-50893296D01*
X95629750Y-50706704D01*
X95626599Y-50648525D01*
X95612920Y-50578478D01*
X95582165Y-50420990D01*
X95582164Y-50420987D01*
X95581143Y-50415758D01*
X95497118Y-50193977D01*
X95431128Y-50081725D01*
X95379632Y-49994126D01*
X95379628Y-49994121D01*
X95376926Y-49989524D01*
X95333180Y-49937665D01*
X95239708Y-49826860D01*
X95211073Y-49761895D01*
X95222107Y-49691761D01*
X95269307Y-49638726D01*
X95291788Y-49627635D01*
X95359302Y-49602325D01*
X95374899Y-49593786D01*
X95476974Y-49517285D01*
X95489535Y-49504724D01*
X95566036Y-49402649D01*
X95574574Y-49387054D01*
X95619728Y-49266606D01*
X95623355Y-49251351D01*
X95628881Y-49200486D01*
X95629250Y-49193672D01*
X95629250Y-48532115D01*
X95624775Y-48516876D01*
X95623385Y-48515671D01*
X95615702Y-48514000D01*
X92853366Y-48514000D01*
X92838127Y-48518475D01*
X92836922Y-48519865D01*
X92835251Y-48527548D01*
X92835251Y-49193669D01*
X92835621Y-49200490D01*
X92841145Y-49251352D01*
X92844771Y-49266604D01*
X92889926Y-49387054D01*
X92898464Y-49402649D01*
X92974965Y-49504724D01*
X92987526Y-49517285D01*
X93089601Y-49593786D01*
X93105198Y-49602325D01*
X93172712Y-49627635D01*
X93229477Y-49670276D01*
X93254177Y-49736838D01*
X93238970Y-49806187D01*
X93224792Y-49826860D01*
X93131321Y-49937665D01*
X93087574Y-49989524D01*
X93084872Y-49994121D01*
X93084868Y-49994126D01*
X93033372Y-50081725D01*
X92967382Y-50193977D01*
X92883357Y-50415758D01*
X92882336Y-50420987D01*
X92882335Y-50420990D01*
X92851580Y-50578478D01*
X92837901Y-50648525D01*
X92837665Y-50652883D01*
X92834816Y-50705485D01*
X92811159Y-50772425D01*
X92776556Y-50799274D01*
X92791512Y-50806105D01*
X92829896Y-50865831D01*
X92834816Y-50894515D01*
X92837901Y-50951475D01*
X92883357Y-51184242D01*
X92967382Y-51406023D01*
X92981400Y-51429868D01*
X93084868Y-51605874D01*
X93084872Y-51605879D01*
X93087574Y-51610476D01*
X93091017Y-51614557D01*
X93091018Y-51614559D01*
X93176595Y-51716005D01*
X93240495Y-51791755D01*
X93244573Y-51795195D01*
X93357482Y-51890441D01*
X93421774Y-51944676D01*
X93438358Y-51954425D01*
X93450187Y-51961379D01*
X93498775Y-52013144D01*
X93511664Y-52082961D01*
X93484760Y-52148663D01*
X93450188Y-52178620D01*
X93421774Y-52195324D01*
X93417693Y-52198767D01*
X93417691Y-52198768D01*
X93321381Y-52280012D01*
X93240495Y-52348245D01*
X93237055Y-52352323D01*
X93131321Y-52477665D01*
X93087574Y-52529524D01*
X93084872Y-52534121D01*
X93084868Y-52534126D01*
X93033372Y-52621725D01*
X92967382Y-52733977D01*
X92883357Y-52955758D01*
X92882336Y-52960987D01*
X92882335Y-52960990D01*
X92839809Y-53178756D01*
X92837901Y-53188525D01*
X92837665Y-53192883D01*
X92834816Y-53245485D01*
X92811159Y-53312425D01*
X92776556Y-53339274D01*
X92640512Y-53339274D01*
X92621458Y-53329294D01*
X92586361Y-53267579D01*
X92583000Y-53238671D01*
X92583000Y-50901329D01*
X92603002Y-50833208D01*
X92641541Y-50799813D01*
X92621458Y-50789294D01*
X92586361Y-50727579D01*
X92583000Y-50698671D01*
X92583000Y-47987885D01*
X92835250Y-47987885D01*
X92839725Y-48003124D01*
X92841115Y-48004329D01*
X92848798Y-48006000D01*
X93960135Y-48006000D01*
X93975374Y-48001525D01*
X93976579Y-48000135D01*
X93978250Y-47992452D01*
X93978250Y-47987885D01*
X94486250Y-47987885D01*
X94490725Y-48003124D01*
X94492115Y-48004329D01*
X94499798Y-48006000D01*
X95611134Y-48006000D01*
X95626373Y-48001525D01*
X95627578Y-48000135D01*
X95629249Y-47992452D01*
X95629249Y-47326331D01*
X95628879Y-47319510D01*
X95623355Y-47268648D01*
X95619729Y-47253396D01*
X95574574Y-47132946D01*
X95566036Y-47117351D01*
X95489535Y-47015276D01*
X95476974Y-47002715D01*
X95374899Y-46926214D01*
X95359304Y-46917676D01*
X95238856Y-46872522D01*
X95223601Y-46868895D01*
X95172736Y-46863369D01*
X95165922Y-46863000D01*
X94504365Y-46863000D01*
X94489126Y-46867475D01*
X94487921Y-46868865D01*
X94486250Y-46876548D01*
X94486250Y-47987885D01*
X93978250Y-47987885D01*
X93978250Y-46881116D01*
X93973775Y-46865877D01*
X93972385Y-46864672D01*
X93964702Y-46863001D01*
X93298581Y-46863001D01*
X93291760Y-46863371D01*
X93240898Y-46868895D01*
X93225646Y-46872521D01*
X93105196Y-46917676D01*
X93089601Y-46926214D01*
X92987526Y-47002715D01*
X92974965Y-47015276D01*
X92898464Y-47117351D01*
X92889926Y-47132946D01*
X92844772Y-47253394D01*
X92841145Y-47268649D01*
X92835619Y-47319514D01*
X92835250Y-47326328D01*
X92835250Y-47987885D01*
X92583000Y-47987885D01*
X92583000Y-43380061D01*
X92603002Y-43311940D01*
X92656658Y-43265447D01*
X92726932Y-43255343D01*
X92788976Y-43282697D01*
X92857654Y-43339110D01*
X92865936Y-43344866D01*
X93066919Y-43461841D01*
X93076024Y-43466203D01*
X93293115Y-43549537D01*
X93302804Y-43552388D01*
X93453264Y-43583821D01*
X93467325Y-43582698D01*
X93471000Y-43572590D01*
X93471000Y-43570590D01*
X93979000Y-43570590D01*
X93983136Y-43584676D01*
X93996114Y-43586725D01*
X94013830Y-43584675D01*
X94023727Y-43582715D01*
X94247494Y-43519396D01*
X94256938Y-43515884D01*
X94467705Y-43417601D01*
X94476471Y-43412622D01*
X94668802Y-43281913D01*
X94676677Y-43275581D01*
X94845626Y-43115814D01*
X94852387Y-43108305D01*
X94993625Y-42923574D01*
X94999089Y-42915095D01*
X95108978Y-42710153D01*
X95113020Y-42700901D01*
X95188727Y-42481029D01*
X95191236Y-42471257D01*
X95231004Y-42241029D01*
X95231859Y-42233157D01*
X95232936Y-42209449D01*
X95233000Y-42206616D01*
X95233000Y-41372115D01*
X95228525Y-41356876D01*
X95227135Y-41355671D01*
X95219452Y-41354000D01*
X93997115Y-41354000D01*
X93981876Y-41358475D01*
X93980671Y-41359865D01*
X93979000Y-41367548D01*
X93979000Y-43570590D01*
X93471000Y-43570590D01*
X93471000Y-40827885D01*
X93979000Y-40827885D01*
X93983475Y-40843124D01*
X93984865Y-40844329D01*
X93992548Y-40846000D01*
X95214885Y-40846000D01*
X95230124Y-40841525D01*
X95231329Y-40840135D01*
X95233000Y-40832452D01*
X95233000Y-40041544D01*
X95232798Y-40036512D01*
X95218850Y-39863157D01*
X95217238Y-39853204D01*
X95161767Y-39627367D01*
X95158584Y-39617797D01*
X95067720Y-39403735D01*
X95063045Y-39394793D01*
X94939126Y-39198013D01*
X94933086Y-39189940D01*
X94779297Y-39015500D01*
X94772044Y-39008496D01*
X94592346Y-38860890D01*
X94584064Y-38855134D01*
X94383081Y-38738159D01*
X94373976Y-38733797D01*
X94156885Y-38650463D01*
X94147196Y-38647612D01*
X93996736Y-38616179D01*
X93982675Y-38617302D01*
X93979000Y-38627410D01*
X93979000Y-40827885D01*
X93471000Y-40827885D01*
X93471000Y-38629410D01*
X93466864Y-38615324D01*
X93453886Y-38613275D01*
X93436170Y-38615325D01*
X93426273Y-38617285D01*
X93202506Y-38680604D01*
X93193062Y-38684116D01*
X92982295Y-38782399D01*
X92973523Y-38787382D01*
X92779822Y-38919021D01*
X92712238Y-38940767D01*
X92643626Y-38922523D01*
X92595769Y-38870080D01*
X92583000Y-38814809D01*
X92583000Y-38371114D01*
X95938275Y-38371114D01*
X95940325Y-38388830D01*
X95942285Y-38398727D01*
X96005604Y-38622494D01*
X96009116Y-38631938D01*
X96107399Y-38842705D01*
X96112378Y-38851471D01*
X96243087Y-39043802D01*
X96249419Y-39051677D01*
X96409186Y-39220626D01*
X96416695Y-39227387D01*
X96601426Y-39368625D01*
X96609905Y-39374089D01*
X96814847Y-39483978D01*
X96824099Y-39488020D01*
X97043971Y-39563727D01*
X97053743Y-39566236D01*
X97283971Y-39606004D01*
X97291843Y-39606859D01*
X97315551Y-39607936D01*
X97318384Y-39608000D01*
X98152885Y-39608000D01*
X98168124Y-39603525D01*
X98169329Y-39602135D01*
X98171000Y-39594452D01*
X98171000Y-39589885D01*
X98679000Y-39589885D01*
X98683475Y-39605124D01*
X98684865Y-39606329D01*
X98692548Y-39608000D01*
X99483456Y-39608000D01*
X99488488Y-39607798D01*
X99661843Y-39593850D01*
X99671796Y-39592238D01*
X99897633Y-39536767D01*
X99907203Y-39533584D01*
X100121265Y-39442720D01*
X100130207Y-39438045D01*
X100326987Y-39314126D01*
X100335060Y-39308086D01*
X100509500Y-39154297D01*
X100516504Y-39147044D01*
X100664110Y-38967346D01*
X100669866Y-38959064D01*
X100786841Y-38758081D01*
X100791203Y-38748976D01*
X100874537Y-38531885D01*
X100877388Y-38522196D01*
X100908821Y-38371736D01*
X100907698Y-38357675D01*
X100897590Y-38354000D01*
X98697115Y-38354000D01*
X98681876Y-38358475D01*
X98680671Y-38359865D01*
X98679000Y-38367548D01*
X98679000Y-39589885D01*
X98171000Y-39589885D01*
X98171000Y-38372115D01*
X98166525Y-38356876D01*
X98165135Y-38355671D01*
X98157452Y-38354000D01*
X95954410Y-38354000D01*
X95940324Y-38358136D01*
X95938275Y-38371114D01*
X92583000Y-38371114D01*
X92583000Y-37828264D01*
X95941179Y-37828264D01*
X95942302Y-37842325D01*
X95952410Y-37846000D01*
X98152885Y-37846000D01*
X98168124Y-37841525D01*
X98169329Y-37840135D01*
X98171000Y-37832452D01*
X98171000Y-37827885D01*
X98679000Y-37827885D01*
X98683475Y-37843124D01*
X98684865Y-37844329D01*
X98692548Y-37846000D01*
X100895590Y-37846000D01*
X100909676Y-37841864D01*
X100911725Y-37828886D01*
X100911648Y-37828218D01*
X104674655Y-37828218D01*
X104675859Y-37841168D01*
X104690911Y-37846000D01*
X105772885Y-37846000D01*
X105788124Y-37841525D01*
X105789329Y-37840135D01*
X105791000Y-37832452D01*
X105791000Y-37827885D01*
X106299000Y-37827885D01*
X106303475Y-37843124D01*
X106304865Y-37844329D01*
X106312548Y-37846000D01*
X107400703Y-37846000D01*
X107413180Y-37842336D01*
X107415037Y-37826639D01*
X107394432Y-37721128D01*
X107391521Y-37710910D01*
X107311304Y-37499180D01*
X107306712Y-37489597D01*
X107191974Y-37294420D01*
X107185822Y-37285731D01*
X107039835Y-37112672D01*
X107032328Y-37105165D01*
X106859269Y-36959178D01*
X106850580Y-36953026D01*
X106655403Y-36838288D01*
X106645820Y-36833696D01*
X106434090Y-36753479D01*
X106423872Y-36750568D01*
X106316782Y-36729655D01*
X106303832Y-36730859D01*
X106299000Y-36745911D01*
X106299000Y-37827885D01*
X105791000Y-37827885D01*
X105791000Y-36744297D01*
X105787336Y-36731820D01*
X105771639Y-36729963D01*
X105666128Y-36750568D01*
X105655910Y-36753479D01*
X105444180Y-36833696D01*
X105434597Y-36838288D01*
X105239420Y-36953026D01*
X105230731Y-36959178D01*
X105057672Y-37105165D01*
X105050165Y-37112672D01*
X104904178Y-37285731D01*
X104898026Y-37294420D01*
X104783288Y-37489597D01*
X104778696Y-37499180D01*
X104698479Y-37710910D01*
X104695568Y-37721128D01*
X104674655Y-37828218D01*
X100911648Y-37828218D01*
X100909675Y-37811170D01*
X100907715Y-37801273D01*
X100844396Y-37577506D01*
X100840884Y-37568062D01*
X100742601Y-37357295D01*
X100737622Y-37348529D01*
X100606913Y-37156198D01*
X100600581Y-37148323D01*
X100440814Y-36979374D01*
X100433305Y-36972613D01*
X100248574Y-36831375D01*
X100240095Y-36825911D01*
X100035153Y-36716022D01*
X100025901Y-36711980D01*
X99806029Y-36636273D01*
X99796257Y-36633764D01*
X99566029Y-36593996D01*
X99558157Y-36593141D01*
X99534449Y-36592064D01*
X99531616Y-36592000D01*
X98697115Y-36592000D01*
X98681876Y-36596475D01*
X98680671Y-36597865D01*
X98679000Y-36605548D01*
X98679000Y-37827885D01*
X98171000Y-37827885D01*
X98171000Y-36610115D01*
X98166525Y-36594876D01*
X98165135Y-36593671D01*
X98157452Y-36592000D01*
X97366544Y-36592000D01*
X97361512Y-36592202D01*
X97188157Y-36606150D01*
X97178204Y-36607762D01*
X96952367Y-36663233D01*
X96942797Y-36666416D01*
X96728735Y-36757280D01*
X96719793Y-36761955D01*
X96523013Y-36885874D01*
X96514940Y-36891914D01*
X96340500Y-37045703D01*
X96333496Y-37052956D01*
X96185890Y-37232654D01*
X96180134Y-37240936D01*
X96063159Y-37441919D01*
X96058797Y-37451024D01*
X95975463Y-37668115D01*
X95972612Y-37677804D01*
X95941179Y-37828264D01*
X92583000Y-37828264D01*
X92583000Y-32946207D01*
X92584746Y-32925303D01*
X92585279Y-32922137D01*
X92588071Y-32905539D01*
X92588224Y-32893000D01*
X92587535Y-32888187D01*
X92587218Y-32883328D01*
X92587506Y-32883309D01*
X92587105Y-32856570D01*
X92597332Y-32765803D01*
X92603611Y-32738296D01*
X92617649Y-32698177D01*
X92641196Y-32630883D01*
X92653438Y-32605463D01*
X92697812Y-32534843D01*
X92713985Y-32509103D01*
X92731577Y-32487044D01*
X92812044Y-32406577D01*
X92834103Y-32388985D01*
X92930463Y-32328438D01*
X92955884Y-32316196D01*
X93063296Y-32278611D01*
X93090803Y-32272332D01*
X93126103Y-32268354D01*
X93178258Y-32262478D01*
X93193900Y-32261695D01*
X93202856Y-32261804D01*
X93211730Y-32263186D01*
X93243252Y-32259064D01*
X93259589Y-32258000D01*
X130240063Y-32258000D01*
X130264366Y-32260366D01*
G37*
%TD.AperFunction*%
%TD*%
%TA.AperFunction,Conductor*%
%TO.N,+5V*%
G36*
X99828370Y-65941189D02*
G01*
X101734139Y-66034153D01*
X101801204Y-66057450D01*
X101845028Y-66113307D01*
X101854000Y-66160003D01*
X101854000Y-70843063D01*
X101837119Y-70906062D01*
X101781473Y-71002444D01*
X101722458Y-71184072D01*
X101702496Y-71374000D01*
X101722458Y-71563928D01*
X101781473Y-71745556D01*
X101784776Y-71751278D01*
X101784777Y-71751279D01*
X101824453Y-71820000D01*
X101841191Y-71888996D01*
X101817970Y-71956087D01*
X101762163Y-71999974D01*
X101715334Y-72009000D01*
X96773000Y-72009000D01*
X96704879Y-71988998D01*
X96658386Y-71935342D01*
X96647000Y-71883000D01*
X96647000Y-65918296D01*
X96667002Y-65850175D01*
X96720658Y-65803682D01*
X96779139Y-65792446D01*
X99828370Y-65941189D01*
G37*
%TD.AperFunction*%
%TD*%
M02*
