%TF.GenerationSoftware,KiCad,Pcbnew,6.0.0*%
%TF.CreationDate,2022-01-29T03:06:04+03:00*%
%TF.ProjectId,pump,70756d70-2e6b-4696-9361-645f70636258,rev?*%
%TF.SameCoordinates,Original*%
%TF.FileFunction,Soldermask,Bot*%
%TF.FilePolarity,Negative*%
%FSLAX46Y46*%
G04 Gerber Fmt 4.6, Leading zero omitted, Abs format (unit mm)*
G04 Created by KiCad (PCBNEW 6.0.0) date 2022-01-29 03:06:04*
%MOMM*%
%LPD*%
G01*
G04 APERTURE LIST*
G04 Aperture macros list*
%AMRoundRect*
0 Rectangle with rounded corners*
0 $1 Rounding radius*
0 $2 $3 $4 $5 $6 $7 $8 $9 X,Y pos of 4 corners*
0 Add a 4 corners polygon primitive as box body*
4,1,4,$2,$3,$4,$5,$6,$7,$8,$9,$2,$3,0*
0 Add four circle primitives for the rounded corners*
1,1,$1+$1,$2,$3*
1,1,$1+$1,$4,$5*
1,1,$1+$1,$6,$7*
1,1,$1+$1,$8,$9*
0 Add four rect primitives between the rounded corners*
20,1,$1+$1,$2,$3,$4,$5,0*
20,1,$1+$1,$4,$5,$6,$7,0*
20,1,$1+$1,$6,$7,$8,$9,0*
20,1,$1+$1,$8,$9,$2,$3,0*%
G04 Aperture macros list end*
%ADD10R,1.778000X1.778000*%
%ADD11RoundRect,0.889000X0.000000X0.000000X0.000000X0.000000X0.000000X0.000000X0.000000X0.000000X0*%
%ADD12O,2.000000X4.000000*%
%ADD13O,4.000000X2.000000*%
%ADD14O,4.400000X2.200000*%
%ADD15RoundRect,0.889000X0.000000X0.000000X0.000000X0.000000X0.000000X0.000000X0.000000X0.000000X0*%
%ADD16R,1.650000X1.650000*%
%ADD17C,1.650000*%
%ADD18R,1.800000X1.800000*%
%ADD19C,1.800000*%
%ADD20RoundRect,0.889000X0.000000X0.000000X0.000000X0.000000X0.000000X0.000000X0.000000X0.000000X0*%
%ADD21C,3.000000*%
%ADD22C,1.100000*%
%ADD23R,1.100000X1.100000*%
G04 APERTURE END LIST*
D10*
%TO.C,J10*%
X106045000Y-78105000D03*
D11*
X106045000Y-75565000D03*
%TD*%
D12*
%TO.C,J1*%
X93725000Y-41100000D03*
D13*
X98425000Y-38100000D03*
D14*
X98425000Y-44100000D03*
%TD*%
D10*
%TO.C,R3*%
X128270000Y-60960000D03*
D11*
X128270000Y-58420000D03*
%TD*%
D10*
%TO.C,R2*%
X102870000Y-58420000D03*
D15*
X105410000Y-58420000D03*
%TD*%
D10*
%TO.C,R1*%
X102235000Y-61595000D03*
D15*
X104775000Y-61595000D03*
%TD*%
D10*
%TO.C,D2*%
X97155000Y-58420000D03*
D15*
X99695000Y-58420000D03*
%TD*%
D10*
%TO.C,D1*%
X97155000Y-61595000D03*
D15*
X99695000Y-61595000D03*
%TD*%
D16*
%TO.C,U2*%
X100965000Y-88900000D03*
D17*
X100965000Y-91440000D03*
X100965000Y-93980000D03*
X100965000Y-96520000D03*
X100965000Y-99060000D03*
X100965000Y-101600000D03*
X100965000Y-104140000D03*
X100965000Y-106680000D03*
X113665000Y-106680000D03*
X113665000Y-104140000D03*
X113665000Y-101600000D03*
X113665000Y-99060000D03*
X113665000Y-96520000D03*
X113665000Y-93980000D03*
X113665000Y-91440000D03*
X113665000Y-88900000D03*
%TD*%
D18*
%TO.C,TB1*%
X124460000Y-73660000D03*
D19*
X124460000Y-71120000D03*
X124460000Y-68580000D03*
X124460000Y-66040000D03*
X124460000Y-63500000D03*
X124460000Y-60960000D03*
X124460000Y-58420000D03*
X124460000Y-55880000D03*
X124460000Y-53340000D03*
X124460000Y-50800000D03*
X124460000Y-48260000D03*
X124460000Y-45720000D03*
X124460000Y-43180000D03*
X124460000Y-40640000D03*
X124460000Y-38100000D03*
X109220000Y-38100000D03*
X109220000Y-40640000D03*
X109220000Y-43180000D03*
X109220000Y-45720000D03*
X109220000Y-48260000D03*
X109220000Y-50800000D03*
X109220000Y-53340000D03*
X109220000Y-55880000D03*
X109220000Y-58420000D03*
X109220000Y-60960000D03*
X109220000Y-63500000D03*
X109220000Y-66040000D03*
X109220000Y-68580000D03*
X109220000Y-71120000D03*
X109220000Y-73660000D03*
%TD*%
D10*
%TO.C,J9*%
X128270000Y-89535000D03*
D20*
X128270000Y-92075000D03*
X128270000Y-94615000D03*
X128270000Y-97155000D03*
%TD*%
D21*
%TO.C,J8*%
X121285000Y-101600000D03*
X121285000Y-96520000D03*
X121285000Y-91440000D03*
X121285000Y-86360000D03*
%TD*%
D10*
%TO.C,J7*%
X104775000Y-64770000D03*
D20*
X104775000Y-67310000D03*
%TD*%
D10*
%TO.C,J6*%
X128905000Y-43180000D03*
D11*
X128905000Y-40640000D03*
X128905000Y-38100000D03*
X128905000Y-35560000D03*
%TD*%
D10*
%TO.C,J5*%
X106045000Y-40640000D03*
D11*
X106045000Y-38100000D03*
%TD*%
D10*
%TO.C,J4*%
X129792250Y-65914750D03*
D20*
X129792250Y-68454750D03*
X129792250Y-70994750D03*
X129792250Y-73534750D03*
%TD*%
D10*
%TO.C,J3*%
X105157750Y-55245000D03*
D11*
X105157750Y-52705000D03*
X105157750Y-50165000D03*
X105157750Y-47625000D03*
%TD*%
D10*
%TO.C,J2*%
X94232250Y-48260000D03*
D20*
X94232250Y-50800000D03*
X94232250Y-53340000D03*
%TD*%
D22*
%TO.C,C5*%
X104795000Y-83185000D03*
D23*
X107295000Y-83185000D03*
%TD*%
D22*
%TO.C,C4*%
X97175000Y-83185000D03*
D23*
X99675000Y-83185000D03*
%TD*%
D22*
%TO.C,C2*%
X101580000Y-49530000D03*
D23*
X99080000Y-49530000D03*
%TD*%
M02*
