M48
; DRILL file {KiCad 6.0.0} date Сб 29 янв 2022 03:08:01
; FORMAT={3:3/ absolute / metric / suppress trailing zeros}
; #@! TF.CreationDate,2022-01-29T03:08:01+03:00
; #@! TF.GenerationSoftware,Kicad,Pcbnew,6.0.0
; #@! TF.FileFunction,Plated,1,2,PTH
FMAT,2
METRIC,LZ
; #@! TA.AperFunction,Plated,PTH,ViaDrill
T1C0.400
; #@! TA.AperFunction,Plated,PTH,ComponentDrill
T2C0.600
; #@! TA.AperFunction,Plated,PTH,ComponentDrill
T3C0.900
; #@! TA.AperFunction,Plated,PTH,ComponentDrill
T4C1.000
; #@! TA.AperFunction,Plated,PTH,ComponentDrill
T5C1.016
; #@! TA.AperFunction,Plated,PTH,ComponentDrill
T6C1.100
; #@! TA.AperFunction,Plated,PTH,ComponentDrill
T7C1.780
%
G90
G05
T1
X093345Y-07874
X093345Y-08001
X094107Y-103251
X095123Y-106299
X09652Y-094615
X096647Y-101473
X097028Y-089281
X097155Y-104267
X097409Y-069469
X097409Y-071247
X097663Y-092075
X097663Y-107061
X098298Y-080645
X098933Y-064389
X099314Y-069469
X099314Y-071247
X099695Y-085725
X10033Y-067183
X101092Y-069596
X102108Y-064516
X102235Y-07493
X102616Y-071374
X102616Y-073152
X103759Y-079248
X103759Y-100838
X103886Y-035814
X10414Y-085598
X10414Y-096393
X105156Y-034036
X106426Y-094869
X106553Y-098806
X108712Y-106807
X108839Y-080518
X109347Y-078232
X109347Y-104648
X110236Y-076073
X11049Y-080518
X111252Y-104521
X111379Y-092964
X111379Y-096139
X111379Y-106553
X112268Y-078359
X112395Y-058674
X112395Y-061341
X112395Y-063246
X112395Y-065151
X112395Y-071247
X112395Y-073025
X112395Y-074676
X113538Y-041021
X113538Y-043434
X1143Y-04826
X11557Y-051435
X11684Y-053975
X11811Y-046355
X118618Y-084582
X118999Y-107061
X120523Y-040894
X121158Y-080645
X123317Y-08128
X125603Y-08128
X126238Y-079248
X127Y-076835
T2
X097175Y-083185
X09908Y-04953
X099675Y-083185
X10158Y-04953
X104795Y-083185
X107295Y-083185
T3
X10922Y-0381
X10922Y-04064
X10922Y-04318
X10922Y-04572
X10922Y-04826
X10922Y-0508
X10922Y-05334
X10922Y-05588
X10922Y-05842
X10922Y-06096
X10922Y-0635
X10922Y-06604
X10922Y-06858
X10922Y-07112
X10922Y-07366
X12446Y-0381
X12446Y-04064
X12446Y-04318
X12446Y-04572
X12446Y-04826
X12446Y-0508
X12446Y-05334
X12446Y-05588
X12446Y-05842
X12446Y-06096
X12446Y-0635
X12446Y-06604
X12446Y-06858
X12446Y-07112
X12446Y-07366
T5
X094232Y-04826
X094232Y-0508
X094232Y-05334
X097155Y-05842
X097155Y-061595
X099695Y-05842
X099695Y-061595
X102235Y-061595
X10287Y-05842
X104775Y-061595
X104775Y-06477
X104775Y-06731
X105158Y-047625
X105158Y-050165
X105158Y-052705
X105158Y-055245
X10541Y-05842
X106045Y-0381
X106045Y-04064
X106045Y-075565
X106045Y-078105
X12827Y-05842
X12827Y-06096
X12827Y-089535
X12827Y-092075
X12827Y-094615
X12827Y-097155
X128905Y-03556
X128905Y-0381
X128905Y-04064
X128905Y-04318
X129792Y-065915
X129792Y-068455
X129792Y-070995
X129792Y-073535
T6
X100965Y-0889
X100965Y-09144
X100965Y-09398
X100965Y-09652
X100965Y-09906
X100965Y-1016
X100965Y-10414
X100965Y-10668
X113665Y-0889
X113665Y-09144
X113665Y-09398
X113665Y-09652
X113665Y-09906
X113665Y-1016
X113665Y-10414
X113665Y-10668
T7
X121285Y-08636
X121285Y-09144
X121285Y-09652
X121285Y-1016
T4
G00X093725Y-0401
M15
G01X093725Y-0421
M16
G05
G00X099425Y-0381
M15
G01X097425Y-0381
M16
G05
G00X099675Y-0441
M15
G01X097175Y-0441
M16
G05
T0
M30
